<svg width="24" height="25" viewBox="0 0 24 25" fill="none" xmlns="http://www.w3.org/2000/svg">
<g clip-path="url(#clip0_1_9620)">
<path d="M23.511 10.9928C23.0918 7.93743 21.476 5.17371 19.0191 3.30964C16.5622 1.44558 13.4654 0.633865 10.41 1.05307C7.35464 1.47228 4.59091 3.08807 2.72685 5.54498C0.862783 8.0019 0.0510709 11.0987 0.470279 14.1541C0.815651 16.6829 1.97777 19.0297 3.77977 20.8373C5.58178 22.6448 7.92498 23.8142 10.4528 24.1673C10.97 24.2351 11.4911 24.2691 12.0128 24.2693C14.1204 24.2728 16.1885 23.6976 17.9918 22.6066C18.1183 22.5303 18.2286 22.4299 18.3164 22.3111C18.4042 22.1922 18.4676 22.0572 18.5032 21.9138C18.5388 21.7704 18.5458 21.6214 18.5238 21.4753C18.5018 21.3292 18.4513 21.1889 18.375 21.0623C18.2988 20.9358 18.1984 20.8255 18.0795 20.7377C17.9607 20.6499 17.8257 20.5865 17.6823 20.5509C17.3927 20.479 17.0864 20.5251 16.8308 20.6791C15.5473 21.4495 14.0979 21.9013 12.604 21.9968C11.1101 22.0923 9.61501 21.8286 8.24387 21.2279C6.87272 20.6272 5.66536 19.7068 4.72279 18.5439C3.78022 17.3809 3.12985 16.0091 2.82608 14.5433C2.52231 13.0775 2.57397 11.5602 2.97675 10.1184C3.37953 8.67668 4.1217 7.35232 5.1412 6.25617C6.16069 5.16001 7.42785 4.32393 8.83669 3.81786C10.2455 3.31178 11.7551 3.15044 13.239 3.34732C14.6174 3.53059 15.9377 4.01817 17.1044 4.77475C18.271 5.53132 19.2548 6.53794 19.9843 7.72167C20.7139 8.9054 21.171 10.2366 21.3226 11.6188C21.4741 13.001 21.3163 14.3996 20.8605 15.7133C20.7423 16.0292 20.5286 16.3005 20.2492 16.4894C19.9698 16.6784 19.6385 16.7757 19.3013 16.7678C18.8569 16.7672 18.4309 16.5904 18.1166 16.2762C17.8024 15.962 17.6256 15.536 17.625 15.0916V8.14282C17.625 7.84445 17.5065 7.55831 17.2955 7.34733C17.0845 7.13635 16.7984 7.01782 16.5 7.01782C16.2017 7.01782 15.9155 7.13635 15.7045 7.34733C15.4936 7.55831 15.375 7.84445 15.375 8.14282V8.15332C14.5222 7.50963 13.5036 7.12216 12.4386 7.03627C11.3735 6.95038 10.306 7.16961 9.36104 7.66832C8.41606 8.16702 7.63266 8.92456 7.10253 9.85229C6.5724 10.78 6.31748 11.8395 6.36759 12.9069C6.4177 13.9742 6.77077 15.0052 7.38549 15.8792C8.00021 16.7531 8.85114 17.4339 9.83869 17.8419C10.8262 18.2499 11.9096 18.3681 12.9619 18.1828C14.0142 17.9975 14.992 17.5163 15.7808 16.7956C16.0995 17.4594 16.5988 18.0199 17.2214 18.413C17.8441 18.806 18.5649 19.0157 19.3013 19.0178C20.1062 19.0256 20.8936 18.7825 21.5541 18.3223C22.2145 17.8621 22.7153 17.2076 22.9868 16.4498C23.5931 14.6984 23.7728 12.8276 23.511 10.9928ZM12 16.0178C11.3325 16.0178 10.68 15.8199 10.125 15.449C9.56996 15.0782 9.13738 14.5511 8.88194 13.9344C8.62649 13.3177 8.55965 12.6391 8.68988 11.9844C8.8201 11.3297 9.14154 10.7283 9.61354 10.2563C10.0855 9.78434 10.6869 9.4629 11.3416 9.33267C11.9963 9.20245 12.6749 9.26928 13.2916 9.52473C13.9083 9.78017 14.4354 10.2128 14.8062 10.7678C15.1771 11.3228 15.375 11.9753 15.375 12.6428C15.374 13.5376 15.0181 14.3955 14.3854 15.0282C13.7527 15.6609 12.8948 16.0168 12 16.0178Z" fill="#001E62"/>
</g>
<defs>
<clipPath id="clip0_1_9620">
<rect width="24" height="24" fill="white" transform="translate(0 0.642822)"/>
</clipPath>
</defs>
</svg>
