<svg width="30" height="30" viewBox="0 0 30 30" fill="none" xmlns="http://www.w3.org/2000/svg">
<g clip-path="url(#clip0_103_26)">
<path d="M17.214 8.95351C20.6302 6.90231 22.4714 9.79349 20.7202 13.0615C18.9652 16.3427 17.3546 18.4821 16.5203 18.4821C15.7009 18.4821 15.0522 16.2809 14.0922 12.4597C13.1078 8.50165 13.1078 1.36555 8.99043 2.17553C5.09802 2.94427 0 9.03789 0 9.03789L1.21122 10.6335C1.21122 10.6335 3.72367 8.65164 4.5599 9.63787C5.40738 10.6335 8.61544 22.5882 9.67667 24.7988C10.6029 26.7356 13.1735 29.2912 15.9822 27.4687C18.8171 25.635 28.175 17.644 29.8512 8.18853C31.5237 -1.25002 18.5715 0.726188 17.214 8.95351Z" fill="white"/>
</g>
<defs>
<clipPath id="clip0_103_26">
<rect width="30" height="30" fill="white"/>
</clipPath>
</defs>
</svg>
