<svg width="51" height="50" viewBox="0 0 51 50" fill="none" xmlns="http://www.w3.org/2000/svg">
<path d="M35.8594 29.7266V3.90625C35.8584 3.07773 35.5223 2.28342 34.9247 1.69757C34.3272 1.11172 33.517 0.782181 32.6719 0.78125H11.9531C11.108 0.782181 10.2978 1.11172 9.70027 1.69757C9.1027 2.28342 8.76657 3.07773 8.76562 3.90625V46.0938C8.76657 46.9223 9.1027 47.7166 9.70027 48.3024C10.2978 48.8883 11.108 49.2178 11.9531 49.2188H32.6719C33.517 49.2178 34.3272 48.8883 34.9247 48.3024C35.5223 47.7166 35.8584 46.9223 35.8594 46.0938V45.2734C37.8252 45.08 39.6475 44.1775 40.9729 42.7411C42.2983 41.3048 43.0322 39.4369 43.0322 37.5C43.0322 35.5631 42.2983 33.6952 40.9729 32.2589C39.6475 30.8225 37.8252 29.92 35.8594 29.7266ZM26.0728 2.34375L25.6743 3.90625H18.9507L18.5522 2.34375H26.0728ZM34.2656 46.0938C34.2651 46.508 34.097 46.9051 33.7982 47.198C33.4995 47.4909 33.0944 47.6557 32.6719 47.6562H11.9531C11.5306 47.6557 11.1256 47.4909 10.8268 47.198C10.528 46.9051 10.3599 46.508 10.3594 46.0938V3.90625C10.3599 3.49202 10.528 3.0949 10.8268 2.802C11.1256 2.50909 11.5306 2.34429 11.9531 2.34375H16.9087L17.5552 4.87695C17.5982 5.04597 17.6977 5.19601 17.8378 5.30324C17.9778 5.41047 18.1504 5.46872 18.3281 5.46875H26.2969C26.4746 5.46872 26.6472 5.41047 26.7872 5.30324C26.9273 5.19601 27.0268 5.04597 27.0698 4.87695L27.7163 2.34375H32.6719C33.0944 2.34429 33.4995 2.50909 33.7982 2.802C34.097 3.0949 34.2651 3.49202 34.2656 3.90625V29.7266C32.2999 29.92 30.4775 30.8225 29.1521 32.2589C27.8267 33.6952 27.0928 35.5631 27.0928 37.5C27.0928 39.4369 27.8267 41.3048 29.1521 42.7411C30.4775 44.1775 32.2999 45.08 34.2656 45.2734V46.0938ZM35.0625 43.75C33.8016 43.75 32.5691 43.3834 31.5207 42.6967C30.4724 42.0099 29.6553 41.0338 29.1728 39.8918C28.6903 38.7497 28.564 37.4931 28.81 36.2807C29.056 35.0683 29.6631 33.9547 30.5547 33.0806C31.4463 32.2065 32.5822 31.6112 33.8188 31.3701C35.0554 31.1289 36.3372 31.2527 37.5021 31.7258C38.667 32.1988 39.6626 32.9999 40.3631 34.0277C41.0636 35.0555 41.4375 36.2639 41.4375 37.5C41.4356 39.157 40.7633 40.7457 39.5682 41.9174C38.3731 43.0891 36.7527 43.7481 35.0625 43.75Z" fill="white"/>
<path d="M38.7481 34.5462C38.6664 34.482 38.5726 34.4343 38.4721 34.4057C38.3715 34.3771 38.2662 34.3682 38.1622 34.3795C38.0582 34.3908 37.9574 34.4221 37.8657 34.4716C37.774 34.5211 37.6932 34.5878 37.6278 34.6679L34.8967 38.0148L33.1137 36.8497C32.9378 36.7372 32.7238 36.6973 32.5181 36.7386C32.3124 36.78 32.1317 36.8993 32.0152 37.0706C31.8987 37.2419 31.8559 37.4513 31.8961 37.6534C31.9362 37.8554 32.0561 38.0338 32.2297 38.1497L34.6203 39.7122C34.7861 39.8207 34.9875 39.8644 35.1846 39.8345C35.3817 39.8046 35.5602 39.7034 35.6848 39.5508L38.8723 35.6445C38.9377 35.5644 38.9864 35.4724 39.0156 35.3739C39.0447 35.2753 39.0538 35.1721 39.0423 35.0701C39.0307 34.9681 38.9988 34.8693 38.9484 34.7794C38.8979 34.6895 38.8298 34.6103 38.7481 34.5462Z" fill="white"/>
<path d="M22.3125 28.9062H14.3438C14.1324 28.9062 13.9297 28.9886 13.7803 29.1351C13.6308 29.2816 13.5469 29.4803 13.5469 29.6875C13.5469 29.8947 13.6308 30.0934 13.7803 30.2399C13.9297 30.3864 14.1324 30.4688 14.3438 30.4688H22.3125C22.5238 30.4688 22.7265 30.3864 22.876 30.2399C23.0254 30.0934 23.1094 29.8947 23.1094 29.6875C23.1094 29.4803 23.0254 29.2816 22.876 29.1351C22.7265 28.9886 22.5238 28.9062 22.3125 28.9062Z" fill="white"/>
<path d="M22.3125 31.25H14.3438C14.1324 31.25 13.9297 31.3323 13.7803 31.4788C13.6308 31.6253 13.5469 31.824 13.5469 32.0312C13.5469 32.2385 13.6308 32.4372 13.7803 32.5837C13.9297 32.7302 14.1324 32.8125 14.3438 32.8125H22.3125C22.5238 32.8125 22.7265 32.7302 22.876 32.5837C23.0254 32.4372 23.1094 32.2385 23.1094 32.0312C23.1094 31.824 23.0254 31.6253 22.876 31.4788C22.7265 31.3323 22.5238 31.25 22.3125 31.25Z" fill="white"/>
<path d="M17.5312 33.5938H14.3438C14.1324 33.5938 13.9297 33.6761 13.7803 33.8226C13.6308 33.9691 13.5469 34.1678 13.5469 34.375C13.5469 34.5822 13.6308 34.7809 13.7803 34.9274C13.9297 35.0739 14.1324 35.1562 14.3438 35.1562H17.5312C17.7426 35.1562 17.9453 35.0739 18.0947 34.9274C18.2442 34.7809 18.3281 34.5822 18.3281 34.375C18.3281 34.1678 18.2442 33.9691 18.0947 33.8226C17.9453 33.6761 17.7426 33.5938 17.5312 33.5938Z" fill="white"/>
<path d="M20.7188 33.5938H19.9219C19.7105 33.5938 19.5078 33.6761 19.3584 33.8226C19.209 33.9691 19.125 34.1678 19.125 34.375C19.125 34.5822 19.209 34.7809 19.3584 34.9274C19.5078 35.0739 19.7105 35.1562 19.9219 35.1562H20.7188C20.9301 35.1562 21.1328 35.0739 21.2822 34.9274C21.4317 34.7809 21.5156 34.5822 21.5156 34.375C21.5156 34.1678 21.4317 33.9691 21.2822 33.8226C21.1328 33.6761 20.9301 33.5938 20.7188 33.5938Z" fill="white"/>
</svg>
