<svg width="51" height="50" viewBox="0 0 51 50" fill="none" xmlns="http://www.w3.org/2000/svg">
<path d="M6.375 39.0625H3.98438C3.77303 39.0625 3.57034 39.1448 3.4209 39.2913C3.27146 39.4378 3.1875 39.6365 3.1875 39.8438C3.1875 40.051 3.27146 40.2497 3.4209 40.3962C3.57034 40.5427 3.77303 40.625 3.98438 40.625H6.375C6.58634 40.625 6.78903 40.5427 6.93848 40.3962C7.08792 40.2497 7.17188 40.051 7.17188 39.8438C7.17188 39.6365 7.08792 39.4378 6.93848 39.2913C6.78903 39.1448 6.58634 39.0625 6.375 39.0625Z" fill="white"/>
<path d="M9.5625 39.0625H8.76562C8.55428 39.0625 8.35159 39.1448 8.20215 39.2913C8.05271 39.4378 7.96875 39.6365 7.96875 39.8438C7.96875 40.051 8.05271 40.2497 8.20215 40.3962C8.35159 40.5427 8.55428 40.625 8.76562 40.625H9.5625C9.77384 40.625 9.97653 40.5427 10.126 40.3962C10.2754 40.2497 10.3594 40.051 10.3594 39.8438C10.3594 39.6365 10.2754 39.4378 10.126 39.2913C9.97653 39.1448 9.77384 39.0625 9.5625 39.0625Z" fill="white"/>
<path d="M47.0156 16.4062H45.4219V10.1562C45.4208 9.32778 45.0846 8.53356 44.4871 7.94774C43.8895 7.36192 43.0794 7.03234 42.2344 7.03125H8.76562C7.92054 7.03218 7.11034 7.36172 6.51277 7.94757C5.9152 8.53342 5.57907 9.32773 5.57812 10.1562V24.2188H3.98438C3.13929 24.2197 2.32909 24.5492 1.73152 25.1351C1.13395 25.7209 0.797824 26.5152 0.796875 27.3438V39.8438C0.797824 40.6723 1.13395 41.4666 1.73152 42.0524C2.32909 42.6383 3.13929 42.9678 3.98438 42.9688H11.9531C12.7982 42.9677 13.6083 42.6381 14.2058 42.0523C14.8033 41.4664 15.1395 40.6722 15.1406 39.8438V37.5H22.0884L21.6899 39.0625H19.125C18.9137 39.0625 18.711 39.1448 18.5615 39.2913C18.4121 39.4378 18.3281 39.6366 18.3281 39.8438V42.1875C18.3281 42.3947 18.4121 42.5934 18.5615 42.7399C18.711 42.8864 18.9137 42.9688 19.125 42.9688H47.0156C47.8607 42.9677 48.6708 42.6381 49.2683 42.0523C49.8658 41.4664 50.202 40.6722 50.2031 39.8438V19.5312C50.202 18.7028 49.8658 17.9086 49.2683 17.3227C48.6708 16.7369 47.8607 16.4073 47.0156 16.4062ZM13.5469 39.8438C13.5463 40.258 13.3782 40.6551 13.0795 40.948C12.7807 41.2409 12.3756 41.4057 11.9531 41.4062H3.98438C3.56186 41.4057 3.1568 41.2409 2.85803 40.948C2.55927 40.6551 2.39118 40.258 2.39062 39.8438V27.3438C2.39118 26.9295 2.55927 26.5324 2.85803 26.2395C3.1568 25.9466 3.56186 25.7818 3.98438 25.7812H5.00338L5.61896 27.5908C5.67186 27.7464 5.77334 27.8817 5.90903 27.9776C6.04472 28.0734 6.20774 28.125 6.375 28.125H9.5625C9.72976 28.125 9.89278 28.0734 10.0285 27.9776C10.1642 27.8817 10.2656 27.7464 10.3185 27.5908L10.9341 25.7812H11.9531C12.3756 25.7818 12.7807 25.9466 13.0795 26.2395C13.3782 26.5324 13.5463 26.9295 13.5469 27.3438V39.8438ZM6.68379 25.7812H9.25371L8.98775 26.5625H6.94975L6.68379 25.7812ZM15.1406 35.9375V33.5938H29.4844V35.9375H15.1406ZM29.4844 37.5V39.0625H29.3101L28.9116 37.5H29.4844ZM27.6665 39.0625H23.3335L23.7319 37.5H27.2681L27.6665 39.0625ZM19.9219 41.4062V40.625H29.585C29.6579 40.8988 29.7685 41.1616 29.9137 41.4062H19.9219ZM29.4844 19.5312V32.0312H15.1406V27.3438C15.1395 26.5153 14.8033 25.7211 14.2058 25.1352C13.6083 24.5494 12.7982 24.2198 11.9531 24.2188H7.17188V10.1562C7.17243 9.74202 7.34052 9.3449 7.63929 9.052C7.93805 8.75909 8.34311 8.59429 8.76562 8.59375H42.2344C42.6569 8.59429 43.062 8.75909 43.3607 9.052C43.6595 9.3449 43.8276 9.74202 43.8281 10.1562V16.4062H32.6719C31.8268 16.4073 31.0167 16.7369 30.4192 17.3227C29.8217 17.9086 29.4855 18.7028 29.4844 19.5312ZM48.6094 39.8438C48.6088 40.258 48.4407 40.6551 48.142 40.948C47.8432 41.2409 47.4381 41.4057 47.0156 41.4062H32.6719C32.2494 41.4057 31.8443 41.2409 31.5455 40.948C31.2468 40.6551 31.0787 40.258 31.0781 39.8438V19.5312C31.0787 19.117 31.2468 18.7199 31.5455 18.427C31.8443 18.1341 32.2494 17.9693 32.6719 17.9688H47.0156C47.4381 17.9693 47.8432 18.1341 48.142 18.427C48.4407 18.7199 48.6088 19.117 48.6094 19.5312V39.8438Z" fill="white"/>
<path d="M47.0156 18.75H32.6719C32.4605 18.75 32.2578 18.8323 32.1084 18.9788C31.959 19.1253 31.875 19.324 31.875 19.5312V37.5C31.875 37.7072 31.959 37.9059 32.1084 38.0524C32.2578 38.1989 32.4605 38.2812 32.6719 38.2812H47.0156C47.227 38.2812 47.4297 38.1989 47.5791 38.0524C47.7285 37.9059 47.8125 37.7072 47.8125 37.5V19.5312C47.8125 19.324 47.7285 19.1253 47.5791 18.9788C47.4297 18.8323 47.227 18.75 47.0156 18.75ZM46.2188 36.7188H33.4688V20.3125H46.2188V36.7188Z" fill="white"/>
<path d="M39.0469 40.625C39.487 40.625 39.8438 40.2752 39.8438 39.8438C39.8438 39.4123 39.487 39.0625 39.0469 39.0625C38.6068 39.0625 38.25 39.4123 38.25 39.8438C38.25 40.2752 38.6068 40.625 39.0469 40.625Z" fill="white"/>
</svg>
