<svg width="52" height="50" viewBox="0 0 52 50" fill="none" xmlns="http://www.w3.org/2000/svg">
<path d="M50.375 8.59375H1.625C1.40951 8.59375 1.20285 8.67606 1.05048 8.82257C0.898102 8.96909 0.8125 9.1678 0.8125 9.375V40.625C0.8125 40.8322 0.898102 41.0309 1.05048 41.1774C1.20285 41.3239 1.40951 41.4062 1.625 41.4062H50.375C50.5905 41.4062 50.7972 41.3239 50.9495 41.1774C51.1019 41.0309 51.1875 40.8322 51.1875 40.625V9.375C51.1875 9.1678 51.1019 8.96909 50.9495 8.82257C50.7972 8.67606 50.5905 8.59375 50.375 8.59375ZM41.4375 28.0261C40.7396 27.8531 40.1213 27.4619 39.6798 26.9141C39.2383 26.3664 38.9988 25.693 38.9988 25C38.9988 24.307 39.2383 23.6336 39.6798 23.0859C40.1213 22.5381 40.7396 22.1469 41.4375 21.9739V28.0261ZM43.0625 17.1875H49.5625V19.5312H46.3125C46.097 19.5312 45.8903 19.6136 45.738 19.7601C45.5856 19.9066 45.5 20.1053 45.5 20.3125V29.6875C45.5 29.8947 45.5856 30.0934 45.738 30.2399C45.8903 30.3864 46.097 30.4688 46.3125 30.4688H49.5625V32.8125H43.0625V17.1875ZM49.5625 21.0938V28.9062H47.125V21.0938H49.5625ZM25.1875 30.412C23.8339 30.2244 22.5959 29.5739 21.7005 28.58C20.8051 27.586 20.3123 26.315 20.3123 25C20.3123 23.685 20.8051 22.414 21.7005 21.42C22.5959 20.4261 23.8339 19.7756 25.1875 19.588V30.412ZM26.8125 19.588C28.1661 19.7756 29.4041 20.4261 30.2995 21.42C31.1949 22.414 31.6877 23.685 31.6877 25C31.6877 26.315 31.1949 27.586 30.2995 28.58C29.4041 29.5739 28.1661 30.2244 26.8125 30.412V19.588ZM10.5625 21.9739C11.2604 22.1469 11.8787 22.5381 12.3202 23.0859C12.7617 23.6336 13.0012 24.307 13.0012 25C13.0012 25.693 12.7617 26.3664 12.3202 26.9141C11.8787 27.4619 11.2604 27.8531 10.5625 28.0261V21.9739ZM8.9375 32.8125H2.4375V30.4688H5.6875C5.90299 30.4688 6.10965 30.3864 6.26202 30.2399C6.4144 30.0934 6.5 29.8947 6.5 29.6875V20.3125C6.5 20.1053 6.4144 19.9066 6.26202 19.7601C6.10965 19.6136 5.90299 19.5312 5.6875 19.5312H2.4375V17.1875H8.9375V32.8125ZM2.4375 21.0938H4.875V28.9062H2.4375V21.0938ZM2.4375 34.375H9.75C9.96549 34.375 10.1722 34.2927 10.3245 34.1462C10.4769 33.9997 10.5625 33.801 10.5625 33.5938V29.6212C11.6984 29.4368 12.7296 28.8714 13.4733 28.0255C14.217 27.1795 14.625 26.1077 14.625 25C14.625 23.8923 14.217 22.8205 13.4733 21.9745C12.7296 21.1286 11.6984 20.5633 10.5625 20.3788V16.4062C10.5625 16.199 10.4769 16.0003 10.3245 15.8538C10.1722 15.7073 9.96549 15.625 9.75 15.625H2.4375V10.1562H25.1875V18.0132C23.4 18.2052 21.7489 19.0239 20.5498 20.3129C19.3507 21.6019 18.6877 23.2706 18.6877 25C18.6877 26.7294 19.3507 28.3981 20.5498 29.6871C21.7489 30.9761 23.4 31.7948 25.1875 31.9868V39.8438H2.4375V34.375ZM26.8125 39.8438V31.9868C28.6 31.7948 30.2511 30.9761 31.4502 29.6871C32.6493 28.3981 33.3123 26.7294 33.3123 25C33.3123 23.2706 32.6493 21.6019 31.4502 20.3129C30.2511 19.0239 28.6 18.2052 26.8125 18.0132V10.1562H49.5625V15.625H42.25C42.0345 15.625 41.8278 15.7073 41.6755 15.8538C41.5231 16.0003 41.4375 16.199 41.4375 16.4062V20.3788C40.3016 20.5633 39.2704 21.1286 38.5267 21.9745C37.783 22.8205 37.375 23.8923 37.375 25C37.375 26.1077 37.783 27.1795 38.5267 28.0255C39.2704 28.8714 40.3016 29.4368 41.4375 29.6212V33.5938C41.4375 33.801 41.5231 33.9997 41.6755 34.1462C41.8278 34.2927 42.0345 34.375 42.25 34.375H49.5625V39.8438H26.8125Z" fill="white"/>
<path d="M44.6875 37.5H38.1875C37.972 37.5 37.7653 37.5823 37.613 37.7288C37.4606 37.8753 37.375 38.074 37.375 38.2812C37.375 38.4885 37.4606 38.6872 37.613 38.8337C37.7653 38.9802 37.972 39.0625 38.1875 39.0625H44.6875C44.903 39.0625 45.1097 38.9802 45.262 38.8337C45.4144 38.6872 45.5 38.4885 45.5 38.2812C45.5 38.074 45.4144 37.8753 45.262 37.7288C45.1097 37.5823 44.903 37.5 44.6875 37.5Z" fill="white"/>
<path d="M47.9375 37.5H47.125C46.9095 37.5 46.7028 37.5823 46.5505 37.7288C46.3981 37.8753 46.3125 38.074 46.3125 38.2812C46.3125 38.4885 46.3981 38.6872 46.5505 38.8337C46.7028 38.9802 46.9095 39.0625 47.125 39.0625H47.9375C48.153 39.0625 48.3597 38.9802 48.512 38.8337C48.6644 38.6872 48.75 38.4885 48.75 38.2812C48.75 38.074 48.6644 37.8753 48.512 37.7288C48.3597 37.5823 48.153 37.5 47.9375 37.5Z" fill="white"/>
</svg>
