<svg width="51" height="50" viewBox="0 0 51 50" fill="none" xmlns="http://www.w3.org/2000/svg">
<g clip-path="url(#clip0_1_15076)">
<path d="M47.0156 0.78125H3.98438C3.13934 0.782335 2.32923 1.11192 1.73169 1.69774C1.13416 2.28356 0.797982 3.07778 0.796875 3.90625V46.0938C0.797982 46.9222 1.13416 47.7164 1.73169 48.3023C2.32923 48.8881 3.13934 49.2177 3.98438 49.2188H47.0156C47.8607 49.2177 48.6708 48.8881 49.2683 48.3023C49.8658 47.7164 50.202 46.9222 50.2031 46.0938V3.90625C50.202 3.07778 49.8658 2.28356 49.2683 1.69774C48.6708 1.11192 47.8607 0.782335 47.0156 0.78125ZM48.6094 46.0938C48.6088 46.508 48.4407 46.9051 48.142 47.198C47.8432 47.4909 47.4381 47.6557 47.0156 47.6562H3.98438C3.56186 47.6557 3.1568 47.4909 2.85803 47.198C2.55927 46.9051 2.39118 46.508 2.39062 46.0938V7.03125H48.6094V46.0938ZM48.6094 5.46875H2.39062V3.90625C2.39118 3.49202 2.55927 3.0949 2.85803 2.802C3.1568 2.50909 3.56186 2.34429 3.98438 2.34375H47.0156C47.4381 2.34429 47.8432 2.50909 48.142 2.802C48.4407 3.0949 48.6088 3.49202 48.6094 3.90625V5.46875Z" fill="white"/>
<path d="M36.1293 18.3379C36.0947 18.2832 36.0532 18.233 36.0058 18.1885C34.7375 16.6556 33.1361 15.4197 31.3186 14.5707C29.5011 13.7218 27.5133 13.2812 25.5 13.2812C23.4868 13.2812 21.4989 13.7218 19.6814 14.5707C17.8639 15.4197 16.2626 16.6556 14.9942 18.1885C14.9468 18.233 14.9053 18.2832 14.8707 18.3379C12.9812 20.679 11.9531 23.5771 11.9531 26.5625C11.9531 29.5479 12.9812 32.4459 14.8707 34.7871C14.9053 34.8418 14.9468 34.892 14.9942 34.9365C16.2622 36.4695 17.8633 37.7055 19.6807 38.5545C21.4981 39.4035 23.4859 39.8439 25.499 39.8437H25.501C27.548 39.8464 29.5686 39.3908 31.4088 38.5117C33.188 37.6617 34.7567 36.4416 36.0058 34.9365C36.0532 34.892 36.0947 34.8418 36.1293 34.7871C38.0189 32.4459 39.0469 29.5479 39.0469 26.5625C39.0469 23.5771 38.0189 20.679 36.1293 18.3379ZM23.1423 15.0732C21.4589 16.7544 20.16 18.7678 19.3322 20.9795C18.3116 20.3757 17.3889 19.6256 16.5949 18.7539C18.3149 16.8663 20.6118 15.5751 23.1423 15.0732ZM15.5998 20.0019C16.5454 20.9973 17.6413 21.8444 18.8491 22.5137C18.5693 23.5833 18.4018 24.6782 18.3491 25.7812H13.5738C13.7128 23.7124 14.4122 21.7174 15.5998 20.0019ZM15.5998 33.123C14.4122 31.4076 13.7128 29.4126 13.5738 27.3437H18.3491C18.4018 28.4468 18.5693 29.5417 18.8491 30.6113C17.6413 31.2806 16.5454 32.1277 15.5998 33.123ZM16.5949 34.3711C17.3889 33.4994 18.3116 32.7492 19.3322 32.1455C20.16 34.3571 21.4589 36.3706 23.1423 38.0517C20.6118 37.5499 18.3149 36.2586 16.5949 34.3711ZM24.7031 37.3652C22.9266 35.7198 21.576 33.6826 20.7636 31.4228C22.0132 30.8955 23.3456 30.5817 24.7031 30.4951V37.3652ZM24.7031 28.9287C23.1945 29.0137 21.7111 29.3457 20.3143 29.9111C20.1139 29.0677 19.99 28.2086 19.9438 27.3437H24.7031V28.9287ZM24.7031 25.7812H19.9438C19.99 24.9164 20.1139 24.0573 20.3143 23.2139C21.7111 23.7792 23.1945 24.1113 24.7031 24.1963V25.7812ZM24.7031 22.6299C23.3456 22.5433 22.0132 22.2295 20.7636 21.7021C21.576 19.4424 22.9266 17.4052 24.7031 15.7598V22.6299ZM35.4002 20.0019C36.5878 21.7174 37.2872 23.7124 37.4262 25.7812H32.651C32.5983 24.6782 32.4307 23.5833 32.1509 22.5137C33.3587 21.8444 34.4546 20.9973 35.4002 20.0019ZM34.4051 18.7539C33.6111 19.6256 32.6884 20.3757 31.6678 20.9795C30.84 18.7678 29.5411 16.7544 27.8578 15.0732C30.3882 15.5751 32.6851 16.8663 34.4051 18.7539ZM26.2969 15.7598C28.0734 17.4052 29.424 19.4424 30.2364 21.7021C28.9869 22.2295 27.6544 22.5433 26.2969 22.6299V15.7598ZM26.2969 24.1963C27.8055 24.1113 29.2889 23.7792 30.6857 23.2139C30.8861 24.0573 31.0101 24.9164 31.0562 25.7812H26.2969V24.1963ZM26.2969 27.3437H31.0562C31.0101 28.2086 30.8861 29.0677 30.6857 29.9111C29.2889 29.3457 27.8055 29.0137 26.2969 28.9287V27.3437ZM26.2969 37.3652V30.4951C27.6544 30.5817 28.9869 30.8955 30.2364 31.4228C29.424 33.6826 28.0734 35.7198 26.2969 37.3652ZM27.8578 38.0517C29.5411 36.3706 30.84 34.3571 31.6678 32.1455C32.6884 32.7492 33.6111 33.4994 34.4051 34.3711C32.6851 36.2586 30.3882 37.5499 27.8578 38.0517ZM35.4002 33.123C34.4546 32.1277 33.3587 31.2806 32.1509 30.6113C32.4307 29.5417 32.5983 28.4468 32.651 27.3437H37.4262C37.2872 29.4126 36.5878 31.4076 35.4002 33.123Z" fill="white"/>
<path d="M3.88477 4.6875C4.32487 4.6875 4.68164 4.33772 4.68164 3.90625C4.68164 3.47478 4.32487 3.125 3.88477 3.125C3.44466 3.125 3.08789 3.47478 3.08789 3.90625C3.08789 4.33772 3.44466 4.6875 3.88477 4.6875Z" fill="white"/>
<path d="M6.375 4.6875C6.8151 4.6875 7.17188 4.33772 7.17188 3.90625C7.17188 3.47478 6.8151 3.125 6.375 3.125C5.9349 3.125 5.57812 3.47478 5.57812 3.90625C5.57812 4.33772 5.9349 4.6875 6.375 4.6875Z" fill="white"/>
<path d="M8.76562 4.6875C9.20573 4.6875 9.5625 4.33772 9.5625 3.90625C9.5625 3.47478 9.20573 3.125 8.76562 3.125C8.32552 3.125 7.96875 3.47478 7.96875 3.90625C7.96875 4.33772 8.32552 4.6875 8.76562 4.6875Z" fill="white"/>
<path d="M9.5625 8.59375H4.78125C4.56991 8.59375 4.36722 8.67606 4.21777 8.82257C4.06833 8.96909 3.98438 9.1678 3.98438 9.375V11.7188C3.98438 11.926 4.06833 12.1247 4.21777 12.2712C4.36722 12.4177 4.56991 12.5 4.78125 12.5H9.5625C9.77384 12.5 9.97653 12.4177 10.126 12.2712C10.2754 12.1247 10.3594 11.926 10.3594 11.7188V9.375C10.3594 9.1678 10.2754 8.96909 10.126 8.82257C9.97653 8.67606 9.77384 8.59375 9.5625 8.59375ZM8.76562 10.9375H5.57812V10.1562H8.76562V10.9375Z" fill="white"/>
<path d="M11.9531 10.1562H19.9219C20.1332 10.1562 20.3359 10.0739 20.4854 9.92743C20.6348 9.78091 20.7188 9.5822 20.7188 9.375C20.7188 9.1678 20.6348 8.96909 20.4854 8.82257C20.3359 8.67606 20.1332 8.59375 19.9219 8.59375H11.9531C11.7418 8.59375 11.5391 8.67606 11.3896 8.82257C11.2402 8.96909 11.1562 9.1678 11.1562 9.375C11.1562 9.5822 11.2402 9.78091 11.3896 9.92743C11.5391 10.0739 11.7418 10.1562 11.9531 10.1562Z" fill="white"/>
<path d="M14.3438 12.5C14.5551 12.5 14.7578 12.4177 14.9072 12.2712C15.0567 12.1247 15.1406 11.926 15.1406 11.7188C15.1406 11.5115 15.0567 11.3128 14.9072 11.1663C14.7578 11.0198 14.5551 10.9375 14.3438 10.9375H11.9531C11.7418 10.9375 11.5391 11.0198 11.3896 11.1663C11.2402 11.3128 11.1562 11.5115 11.1562 11.7188C11.1562 11.926 11.2402 12.1247 11.3896 12.2712C11.5391 12.4177 11.7418 12.5 11.9531 12.5H14.3438Z" fill="white"/>
<path d="M46.2188 44.5312H36.6562C36.4449 44.5312 36.2422 44.6136 36.0928 44.7601C35.9433 44.9066 35.8594 45.1053 35.8594 45.3125C35.8594 45.5197 35.9433 45.7184 36.0928 45.8649C36.2422 46.0114 36.4449 46.0938 36.6562 46.0938H46.2188C46.4301 46.0938 46.6328 46.0114 46.7822 45.8649C46.9317 45.7184 47.0156 45.5197 47.0156 45.3125C47.0156 45.1053 46.9317 44.9066 46.7822 44.7601C46.6328 44.6136 46.4301 44.5312 46.2188 44.5312Z" fill="white"/>
<path d="M46.2188 42.1875H42.2344C42.023 42.1875 41.8203 42.2698 41.6709 42.4163C41.5215 42.5628 41.4375 42.7615 41.4375 42.9688C41.4375 43.176 41.5215 43.3747 41.6709 43.5212C41.8203 43.6677 42.023 43.75 42.2344 43.75H46.2188C46.4301 43.75 46.6328 43.6677 46.7822 43.5212C46.9317 43.3747 47.0156 43.176 47.0156 42.9688C47.0156 42.7615 46.9317 42.5628 46.7822 42.4163C46.6328 42.2698 46.4301 42.1875 46.2188 42.1875Z" fill="white"/>
<path d="M34.166 44.5312H33.4688C33.2574 44.5312 33.0547 44.6136 32.9053 44.7601C32.7558 44.9066 32.6719 45.1053 32.6719 45.3125C32.6719 45.5197 32.7558 45.7184 32.9053 45.8649C33.0547 46.0114 33.2574 46.0938 33.4688 46.0938H34.166C34.3774 46.0938 34.58 46.0114 34.7295 45.8649C34.8789 45.7184 34.9629 45.5197 34.9629 45.3125C34.9629 45.1053 34.8789 44.9066 34.7295 44.7601C34.58 44.6136 34.3774 44.5312 34.166 44.5312Z" fill="white"/>
</g>
<defs>
<clipPath id="clip0_1_15076">
<rect width="51" height="50" fill="white"/>
</clipPath>
</defs>
</svg>
