<svg version="1.2" xmlns="http://www.w3.org/2000/svg" viewBox="0 0 119 118" width="119" height="118">
	<title>ads-svg</title>
	<style>
		.s0 { fill: #d9d9d9 } 
		.s1 { fill: #e20072 } 
	</style>
	<g id="Layer">
		<path id="Layer" class="s0" d="m32 2.9c1.7-1.6 4-2.6 6.4-2.6l41.2-0.3c2.4 0 4.7 1 6.4 2.6l29.4 29c1.7 1.7 2.6 4 2.6 6.4l0.3 41.2c0 2.4-0.9 4.7-2.6 6.4l-29 29.3c-1.7 1.7-4 2.7-6.4 2.7l-41.2 0.3c-2.4 0-4.7-1-6.4-2.6l-29.3-29c-1.7-1.7-2.7-4-2.7-6.4l-0.3-41.2c0-2.4 1-4.7 2.6-6.4z"/>
	</g>
	<path id="Layer" fill-rule="evenodd" class="s1" d="m55.4 71.1q-2.5 1-4.8 2.4l2.6 2.7c0.9 0.9 1.4 2 1.4 3.3 0 1.2-0.5 2.4-1.4 3.3q-0.2 0.2-0.4 0.2-0.3 0-0.5-0.2l-5.9-5.9q0 0 0 0-0.4 0.4-0.9 0.6-0.5 0.2-1 0.2-0.5 0-1-0.2-0.5-0.2-0.9-0.6l-2.8-2.8q-0.4-0.4-0.6-0.9-0.2-0.5-0.2-1 0-0.5 0.2-1 0.2-0.5 0.6-0.9c2.5-2.5 4.5-5.6 5.7-9.1l3.8-10.3q0.1-0.2 0.2-0.3 0.1-0.1 0.3-0.1 0.1-0.1 0.3 0 0.2 0 0.3 0.1l4.6 4.6c0.9-0.6 2-0.9 3.1-0.9 1.1 0.1 2.1 0.6 2.9 1.4 0.8 0.8 1.3 1.8 1.4 2.9 0 1.1-0.3 2.2-0.9 3.1l4.6 4.6q0.1 0.1 0.1 0.3 0.1 0.2 0 0.3 0 0.2-0.1 0.3-0.1 0.1-0.3 0.2zm-0.4-1.2l9.5-3.5-14.3-14.3-3.5 9.5c-0.9 2.5-2.2 4.9-3.8 7l5.1 5.1c2.1-1.6 4.5-2.9 7-3.8zm-10 6.4q0.3-0.1 0.5-0.3 0.7-0.8 1.5-1.5l-4.9-4.9q-0.7 0.8-1.5 1.5-0.1 0.2-0.3 0.5-0.1 0.2-0.1 0.5 0 0.3 0.1 0.6 0.2 0.2 0.3 0.4l2.9 2.9q0.2 0.2 0.5 0.3 0.2 0.1 0.5 0.1 0.3 0 0.5-0.1zm4.5-2.1q-1.1 0.8-2.2 1.7l5.4 5.4c0.5-0.6 0.7-1.4 0.6-2.2-0.1-0.8-0.4-1.5-1-2.1zm8.6-18.7c-0.8 0-1.6 0.1-2.2 0.6l4.7 4.7c0.4-0.7 0.6-1.5 0.5-2.2-0.1-0.8-0.5-1.5-1-2.1-0.5-0.5-1.3-0.9-2-1z"/>
	<path id="Layer" class="s1" d="m64.6 53.5c-1-1-2.2-1.6-3.5-1.9-1.3-0.3-2.7-0.2-3.9 0.3q-0.2 0.1-0.3 0.2 0 0.1-0.1 0.2 0 0.1 0 0.2 0 0.2 0 0.3 0.1 0.1 0.1 0.2 0.1 0.1 0.2 0.1 0.2 0.1 0.3 0.1 0.1 0 0.2-0.1c1-0.4 2.2-0.5 3.2-0.3 1.1 0.2 2.1 0.8 2.9 1.6 0.8 0.7 1.3 1.7 1.5 2.8 0.2 1.1 0.1 2.2-0.3 3.2q0 0.1 0 0.3 0 0.1 0 0.2 0.1 0.1 0.2 0.2 0.1 0.1 0.2 0.1 0.1 0.1 0.2 0.1 0.1 0 0.3-0.1 0.1 0 0.2-0.1 0.1-0.1 0.1-0.2c0.5-1.3 0.6-2.6 0.4-3.9-0.3-1.4-1-2.6-1.9-3.5z"/>
	<path id="Layer" class="s1" d="m68.4 62.4q0.1 0.1 0.2 0.1 0.1 0 0.2-0.1 0.2 0 0.2-0.1 0.1-0.1 0.2-0.2c0.7-1.9 0.9-3.9 0.5-5.8-0.4-2-1.3-3.8-2.8-5.2-1.4-1.4-3.2-2.4-5.1-2.8-2-0.4-4-0.2-5.8 0.6q-0.1 0-0.2 0.1-0.1 0.1-0.2 0.2 0 0.1 0 0.2 0 0.2 0 0.3 0.1 0.1 0.2 0.2 0 0.1 0.2 0.1 0.1 0.1 0.2 0.1 0.1 0 0.3-0.1c1.6-0.6 3.3-0.8 5-0.4 1.8 0.3 3.3 1.2 4.6 2.4 1.2 1.2 2 2.8 2.4 4.5 0.3 1.7 0.2 3.5-0.5 5.1q0 0.1 0 0.2 0 0.2 0 0.3 0.1 0.1 0.2 0.2 0 0.1 0.2 0.1z"/>
	<path id="Layer" fill-rule="evenodd" class="s1" d="m82.2 35.8c1.7 1.8 2.7 4.3 2.7 6.8 0 1.9-0.5 3.7-1.6 5.3-1 1.5-2.5 2.8-4.2 3.5-1.8 0.7-3.7 0.9-5.5 0.5-1.9-0.3-3.6-1.2-4.9-2.6-1.4-1.3-2.3-3-2.6-4.9-0.4-1.8-0.2-3.7 0.5-5.5 0.7-1.7 2-3.2 3.5-4.2 1.6-1.1 3.4-1.6 5.3-1.6 2.5 0 5 1 6.8 2.7zm-0.9 12.6c1.5-1.5 2.4-3.6 2.4-5.8 0-1.6-0.5-3.2-1.4-4.6-0.9-1.4-2.2-2.4-3.7-3.1-1.5-0.6-3.2-0.7-4.8-0.4-1.6 0.3-3.1 1.1-4.2 2.2-1.2 1.2-2 2.7-2.3 4.3-0.3 1.6-0.1 3.2 0.5 4.7 0.6 1.6 1.7 2.9 3 3.8 1.4 0.9 3 1.4 4.6 1.4 2.2 0 4.3-0.9 5.9-2.5z"/>
	<path id="Layer" fill-rule="evenodd" class="s1" d="m77.7 41.2q-0.5-0.3-0.9-0.8l-2.6 1.5c0.2 0.5 0.2 1 0 1.5l2.5 1.6c0.3-0.5 0.7-0.9 1.3-1.1 0.5-0.2 1.1-0.3 1.6-0.1 0.5 0.2 1 0.6 1.3 1.1 0.3 0.5 0.4 1 0.3 1.6-0.1 0.6-0.4 1.1-0.9 1.4-0.4 0.4-1 0.6-1.6 0.5-0.5 0-1.1-0.2-1.5-0.6-0.4-0.4-0.7-0.9-0.7-1.5l-3-1.9q-0.6 0.5-1.2 0.5-0.7 0.1-1.3-0.2-0.7-0.3-1-0.9-0.4-0.6-0.4-1.3 0-0.6 0.4-1.2 0.4-0.6 1-0.9 0.7-0.3 1.3-0.2 0.7 0.1 1.2 0.6l3-1.7q0-0.7 0.4-1.3 0.4-0.6 1-0.9 0.7-0.2 1.4-0.1 0.7 0.1 1.2 0.6 0.5 0.6 0.7 1.3 0.1 0.7-0.2 1.3-0.3 0.7-0.8 1.1-0.6 0.4-1.4 0.4-0.6 0-1.1-0.3zm0.4-2.9c-0.2 0.2-0.4 0.5-0.4 0.8q0 0.3 0.2 0.6 0.2 0.3 0.5 0.4 0.3 0.2 0.7 0.1 0.3-0.1 0.5-0.3 0.2-0.2 0.3-0.6 0.1-0.3 0-0.6-0.2-0.3-0.5-0.5-0.2-0.2-0.6-0.2c-0.3 0-0.5 0.1-0.7 0.3zm-5.3 5.1c0.2-0.2 0.3-0.5 0.3-0.8q0-0.3-0.2-0.6-0.2-0.3-0.5-0.4-0.3-0.2-0.6-0.1-0.4 0.1-0.6 0.3-0.2 0.2-0.3 0.6-0.1 0.3 0.1 0.6 0.1 0.3 0.4 0.5 0.3 0.2 0.6 0.2c0.3 0 0.6-0.1 0.8-0.3zm5.3 1.9c-0.2 0.2-0.4 0.5-0.4 0.8q0 0.3 0.2 0.6 0.2 0.2 0.5 0.4 0.3 0.1 0.7 0 0.3 0 0.5-0.3 0.2-0.2 0.3-0.5 0.1-0.4 0-0.7-0.2-0.3-0.5-0.5-0.2-0.1-0.6-0.1c-0.3 0-0.5 0.1-0.7 0.3z"/>
	<path id="Layer" fill-rule="evenodd" class="s1" d="m82.2 68.7c1.7 1.8 2.7 4.2 2.7 6.7 0 1.9-0.5 3.7-1.6 5.3-1 1.6-2.5 2.8-4.2 3.5-1.8 0.7-3.7 0.9-5.5 0.6-1.9-0.4-3.6-1.3-4.9-2.6-1.4-1.4-2.3-3.1-2.6-4.9-0.4-1.9-0.2-3.8 0.5-5.5 0.7-1.8 2-3.3 3.5-4.3 1.6-1.1 3.4-1.6 5.3-1.6 2.5 0 5 1 6.8 2.8zm-0.9 12.6c1.5-1.6 2.4-3.7 2.4-5.9 0-1.6-0.5-3.2-1.4-4.6-0.9-1.3-2.2-2.4-3.7-3-1.5-0.6-3.2-0.8-4.8-0.5-1.6 0.3-3.1 1.1-4.2 2.3-1.2 1.1-2 2.6-2.3 4.2-0.3 1.6-0.1 3.3 0.5 4.8 0.6 1.5 1.7 2.8 3 3.7 1.4 0.9 3 1.4 4.6 1.4 2.2 0 4.3-0.9 5.9-2.4z"/>
	<path id="Layer" fill-rule="evenodd" class="s1" d="m79.7 74.9q0.1 0.1 0.2 0.2 0.1 0.2 0.1 0.4 0 0.2-0.1 0.4-0.1 0.1-0.2 0.2l-5.7 3.8q-0.1 0.1-0.3 0.1-0.2 0-0.3-0.1-0.2-0.1-0.3-0.3-0.1-0.1-0.1-0.3v-7.6q0-0.2 0.1-0.3 0.1-0.2 0.3-0.3 0.1-0.1 0.3-0.1 0.2 0 0.3 0.1l5.7 3.8zm-1.7 0.6l-3.6-2.4v4.8z"/>
	<path id="Layer" fill-rule="evenodd" class="s1" d="m35.8 49.3c-1.7-1.8-2.7-4.2-2.7-6.7 0-1.9 0.5-3.7 1.6-5.3 1-1.6 2.5-2.8 4.2-3.5 1.8-0.7 3.7-0.9 5.5-0.6 1.9 0.4 3.6 1.3 4.9 2.6 1.4 1.4 2.3 3.1 2.6 4.9 0.4 1.9 0.2 3.8-0.5 5.5-0.7 1.8-2 3.3-3.5 4.3-1.6 1.1-3.4 1.6-5.3 1.6-2.5 0-5-1-6.8-2.8zm0.9-12.6c-1.5 1.6-2.4 3.7-2.4 5.9 0 1.6 0.5 3.2 1.4 4.6 0.9 1.3 2.2 2.4 3.7 3 1.5 0.6 3.2 0.8 4.8 0.5 1.6-0.3 3.1-1.1 4.2-2.3 1.2-1.1 2-2.6 2.3-4.2 0.3-1.6 0.1-3.3-0.5-4.8-0.6-1.5-1.7-2.8-3-3.7-1.4-0.9-3-1.4-4.6-1.4-2.2 0-4.3 0.9-5.9 2.4z"/>
	<path id="Layer" fill-rule="evenodd" class="s1" d="m37.5 45.9c-0.3-0.3-0.5-0.8-0.5-1.2v-4.2c0-0.5 0.2-0.9 0.5-1.2 0.3-0.3 0.7-0.5 1.2-0.5h4.5c0.5 0 0.9 0.2 1.2 0.5 0.3 0.3 0.5 0.7 0.5 1.2v0.1l2.3-1.3q0.2-0.1 0.3-0.1 0.2 0 0.4 0.1 0.1 0.1 0.2 0.3 0.1 0.1 0.1 0.3v5.4q0 0.2-0.1 0.3-0.1 0.2-0.2 0.2-0.2 0.1-0.4 0.1-0.1 0-0.3 0l-2.3-1.3v0.1c0 0.4-0.2 0.9-0.5 1.2-0.3 0.3-0.7 0.5-1.2 0.5h-4.5c-0.5 0-0.9-0.2-1.2-0.5zm7.4-3.9v1.1l2 1.1v-3.3zm-6.6 2.7q0 0.2 0.1 0.3 0.1 0.1 0.3 0.1h4.5q0.2 0 0.3-0.1 0.1-0.1 0.1-0.3v-4.2q0-0.2-0.1-0.3-0.1-0.1-0.3-0.1h-4.5q-0.2 0-0.3 0.1-0.1 0.1-0.1 0.3z"/>
</svg>