<svg version="1.2" xmlns="http://www.w3.org/2000/svg" viewBox="0 0 119 119" width="119" height="119">
	<title>data-analysis-svg</title>
	<defs>
		<clipPath clipPathUnits="userSpaceOnUse" id="cp1">
			<path d="m32 32h54v54h-54z"/>
		</clipPath>
	</defs>
	<style>
		.s0 { fill: #d9d9d9 } 
		.s1 { fill: #e20072 } 
	</style>
	<g id="Layer">
		<path id="Layer" class="s0" d="m115.4 32c1.7 1.7 2.6 4 2.6 6.4l0.3 41.2c0 2.4-0.9 4.7-2.6 6.4l-29 29.4c-1.7 1.7-4 2.6-6.4 2.6l-41.2 0.3c-2.4 0-4.7-0.9-6.4-2.6l-29.3-29c-1.7-1.7-2.7-4-2.7-6.4l-0.3-41.2c0-2.4 1-4.7 2.6-6.4l29-29.3c1.7-1.7 4-2.7 6.4-2.7l41.2-0.3c2.4 0 4.7 1 6.4 2.6z"/>
	</g>
	<g id="Clip-Path" clip-path="url(#cp1)">
		<g id="Layer">
			<path id="Layer" fill-rule="evenodd" class="s1" d="m74.5 70l2.2 2.2 0.3-0.3q0.2-0.2 0.6-0.2 0.3 0 0.6 0.2l5.7 5.7q0.6 0.6 0.9 1.4 0.4 0.9 0.4 1.7 0 0.9-0.4 1.7-0.3 0.8-0.9 1.5-0.7 0.6-1.5 0.9-0.8 0.4-1.7 0.4-0.8 0-1.7-0.4-0.8-0.3-1.4-0.9l-5.7-5.7q-0.2-0.3-0.2-0.6 0-0.4 0.2-0.6l0.3-0.3-2.2-2.2c-1.7 1.1-3.5 1.7-5.4 2-1.9 0.3-3.8 0.3-5.7-0.2l-3.5 3.5q-0.3 0.3-0.6 0.3h-3.4v2.5c0 0.7-0.3 1.3-0.7 1.8-0.5 0.5-1.2 0.8-1.8 0.8h-10.2c-0.6 0-1.3-0.3-1.7-0.8-0.5-0.5-0.8-1.1-0.8-1.8v-6.7c0-0.7 0.3-1.3 0.8-1.8 0.4-0.5 1.1-0.8 1.7-0.8h10.2c0.6 0 1.3 0.3 1.8 0.8 0.4 0.5 0.7 1.1 0.7 1.8v2.5h3l2.7-2.7c-2.8-1.1-5.2-3.1-6.9-5.7h-14.8c-0.7 0-1.3-0.3-1.8-0.8-0.5-0.4-0.8-1.1-0.8-1.8v-32c0-0.7 0.3-1.3 0.8-1.8 0.5-0.5 1.1-0.8 1.8-0.8h47.2c0.7 0 1.3 0.3 1.8 0.8 0.5 0.5 0.8 1.1 0.8 1.8v32c0 0.7-0.3 1.4-0.8 1.8-0.5 0.5-1.1 0.8-1.8 0.8zm-24.8 5.9q0-0.4-0.2-0.6-0.3-0.3-0.6-0.3h-10.2q-0.3 0-0.6 0.3-0.2 0.2-0.2 0.6v6.7q0 0.4 0.2 0.6 0.3 0.3 0.6 0.3h10.2q0.3 0 0.6-0.3 0.2-0.2 0.2-0.6zm-0.4-7.6q-0.4-0.8-0.6-1.7h-11.6q-0.4 0-0.6-0.2-0.3-0.3-0.3-0.6v-23.6h1.7v22.8h10.4c-0.7-3.7 0.1-7.5 2.2-10.6l-0.8-0.8-8.7 9.4-1.2-1.1 9.3-10.2q0.1-0.1 0.3-0.2 0.1 0 0.3 0 0.2 0 0.4 0 0.1 0.1 0.2 0.2l1.2 1.4c2.4-2.8 5.8-4.6 9.4-4.9l-3.2-5.2h-2.9v2.5c0 0.7-0.3 1.4-0.8 1.8-0.4 0.5-1.1 0.8-1.8 0.8h-10.1c-0.7 0-1.3-0.3-1.8-0.8-0.5-0.4-0.7-1.1-0.7-1.8v-6.7c0-0.7 0.2-1.3 0.7-1.8 0.5-0.5 1.1-0.7 1.8-0.7h10.1c0.7 0 1.4 0.2 1.8 0.7 0.5 0.5 0.8 1.1 0.8 1.8v2.5h3.3q0.3 0 0.5 0.1 0.1 0.1 0.3 0.3l3.9 6.4q1.9 0.1 3.7 0.6l4.8-4.8h-2.2v-1.7h4.2q0.4 0 0.6 0.2 0.3 0.3 0.3 0.6v4.2h-1.7v-2.1l-4.3 4.2c1.7 0.8 3.3 1.9 4.6 3.3 1.3 1.3 2.3 3 3 4.7 0.6 1.8 1 3.7 0.9 5.6-0.1 1.9-0.5 3.7-1.3 5.4h7.2q0.4 0 0.6-0.2 0.3-0.3 0.3-0.6v-32.1q0-0.3-0.3-0.6-0.2-0.2-0.6-0.2h-47.2q-0.4 0-0.6 0.2-0.3 0.3-0.3 0.6v32.1q0 0.3 0.3 0.6 0.2 0.2 0.6 0.2zm3.5-30.1q-0.3-0.2-0.6-0.2h-10.1q-0.4 0-0.6 0.2-0.3 0.3-0.3 0.6v6.8q0 0.3 0.3 0.5 0.2 0.3 0.6 0.3h10.1q0.3 0 0.6-0.3 0.2-0.2 0.2-0.5v-6.8q0-0.3-0.2-0.6zm0.6 33.2c2.3 2.3 5.6 3.7 8.9 3.7 2.5 0 5-0.8 7.1-2.2 2-1.3 3.7-3.3 4.6-5.6 1-2.3 1.2-4.9 0.7-7.3-0.5-2.5-1.7-4.8-3.4-6.5-1.8-1.8-4.1-3-6.5-3.5-2.5-0.5-5-0.2-7.3 0.7-2.3 1-4.3 2.6-5.7 4.7-1.4 2.1-2.1 4.5-2.1 7 0 3.4 1.3 6.6 3.7 9zm24.1 2.3l-3.9 3.9 5.1 5.1q0.4 0.4 0.9 0.6 0.5 0.2 1.1 0.2 0.5 0 1-0.2 0.5-0.2 0.9-0.6 0.4-0.3 0.6-0.9 0.2-0.5 0.2-1 0-0.6-0.2-1.1-0.2-0.5-0.6-0.9zm-2-0.3l-2-2q-1 1.2-2.2 2.2l2 2z"/>
			<path id="Layer" fill-rule="evenodd" class="s1" d="m70.1 54.6c2.1 2.1 3.2 4.9 3.2 7.8 0 2.1-0.6 4.3-1.8 6.1-1.2 1.8-2.9 3.2-4.9 4-2 0.8-4.2 1.1-6.4 0.6-2.1-0.4-4-1.4-5.6-3-1.5-1.5-2.6-3.5-3-5.6-0.4-2.1-0.2-4.3 0.6-6.3 0.9-2 2.3-3.7 4.1-4.9 1.8-1.3 3.9-1.9 6.1-1.9 2.9 0 5.7 1.2 7.7 3.2zm-12.1-0.4c-1.2 0.6-2.2 1.5-3.1 2.6l1.6 1.8 5.5-5.5c-1.4 0.1-2.7 0.4-4 1.1zm10.6 15.1c1.7-1.6 2.8-3.7 3-6 0.2-2.3-0.4-4.6-1.8-6.4-1.3-1.9-3.3-3.2-5.6-3.6l-7.1 7.1q-0.3 0.3-0.6 0.3h-0.1q-0.1 0-0.3-0.1-0.1-0.1-0.3-0.2l-1.8-2c-1 2-1.2 4.3-0.5 6.5h10.6v1.7h-10c0.8 1.5 2 2.8 3.4 3.7 1.5 0.9 3.2 1.4 4.9 1.4 2.3 0 4.5-0.9 6.2-2.4z"/>
			<path id="Layer" class="s1" d="m43 39.6h8.4v1.7h-8.4z"/>
			<path id="Layer" class="s1" d="m43 43h8.4v1.7h-8.4z"/>
			<path id="Layer" class="s1" d="m39.6 76.7h8.4v1.7h-8.4z"/>
			<path id="Layer" class="s1" d="m39.6 80.1h8.4v1.7h-8.4z"/>
		</g>
	</g>
</svg>