<svg version="1.2" xmlns="http://www.w3.org/2000/svg" viewBox="0 0 54 54" width="54" height="54">
	<title>device-svg</title>
	<style>
		.s0 { fill: #000000 } 
		.s1 { fill: #001e62 } 
	</style>
	<path id="Layer" class="s0" d="m4.5 29.6q-0.3 0-0.5 0.2-0.2 0.1-0.2 0.4 0 0.3 0.2 0.4 0.2 0.2 0.5 0.2 0.1 0 0.2 0 0.1-0.1 0.2-0.2 0.1 0 0.1-0.2 0.1-0.1 0.1-0.2 0-0.3-0.2-0.4-0.2-0.2-0.4-0.2z"/>
	<path id="Layer" class="s0" d="m7.2 47.8c0.5 0 1-0.4 1-0.9 0-0.6-0.5-1-1-1-0.5 0-0.9 0.4-0.9 1 0 0.5 0.4 0.9 0.9 0.9z"/>
	<path id="Layer" class="s0" d="m45 46.4h-1.5q-0.3 0-0.5 0.2-0.1 0.2-0.1 0.5 0 0.2 0.1 0.4 0.2 0.2 0.5 0.2h1.5q0.3 0 0.5-0.2 0.2-0.2 0.2-0.4 0-0.3-0.2-0.5-0.2-0.2-0.5-0.2z"/>
	<path id="Layer" class="s1" d="m50.7 29h-12.9q-0.2 0-0.4 0.2-0.2 0.2-0.2 0.4v3.8q0 0.2 0.2 0.4 0.2 0.2 0.4 0.2 0.3 0 0.5-0.2 0.2-0.2 0.2-0.4v-3.1h11.6v14.4h-11.6v-12.1q0-0.3-0.2-0.4-0.2-0.2-0.5-0.2-0.2 0-0.4 0.2-0.2 0.1-0.2 0.4v12.8q0 0.2 0.2 0.4 0.2 0.2 0.4 0.2h12.9q0.3 0 0.4-0.2 0.2-0.2 0.2-0.4v-15.8q0-0.2-0.2-0.4-0.1-0.2-0.4-0.2z"/>
	<path id="Layer" fill-rule="evenodd" class="s0" d="m24 32.9c-0.3-0.3-0.5-0.7-0.5-1.1q0-0.4 0.3-0.8 0.2-0.4 0.6-0.6 0.5-0.1 0.9-0.1 0.5 0.1 0.8 0.5 0.3 0.3 0.4 0.7 0.1 0.5-0.1 0.9-0.2 0.4-0.6 0.7-0.3 0.2-0.8 0.2c-0.4 0-0.8-0.1-1-0.4zm0.9-1.3q-0.1 0.1-0.1 0.2 0 0.1 0 0.1 0.1 0.1 0.1 0.1 0.1 0.1 0.2 0 0 0 0.1 0 0-0.1 0-0.1 0.1-0.1 0-0.2 0 0-0.1-0.1 0 0-0.1 0-0.1 0-0.1 0z"/>
	<path id="Layer" class="s0" d="m24.4 38.6h-0.1q-0.3 0-0.4 0.1-0.2 0.2-0.2 0.5 0 0.2 0.2 0.4 0.1 0.2 0.4 0.2h0.1q0.2 0 0.4-0.2 0.2-0.2 0.2-0.4 0-0.3-0.2-0.5-0.2-0.1-0.4-0.1z"/>
	<path id="Layer" fill-rule="evenodd" class="s1" d="m52.9 27.2c0.4 0.4 0.6 1 0.6 1.5v19c0 0.6-0.2 1.1-0.6 1.5-0.4 0.4-0.9 0.6-1.5 0.6h-14.3c-0.5 0-1.1-0.2-1.4-0.6-0.4-0.4-0.7-0.9-0.7-1.5v-12.2h-4.6v2c0 0.2 0.1 0.5 0.3 0.7 0.2 0.2 0.5 0.4 0.8 0.4h0.1q0 0 0.1 0c0.8 0 1.6 0.4 2.2 1 0.5 0.6 0.9 1.4 0.9 2.2q0 0.2-0.2 0.4-0.2 0.2-0.5 0.2h-18.2q-0.2 0-0.4-0.2-0.2-0.2-0.2-0.4c0-0.9 0.3-1.7 0.9-2.3 0.6-0.6 1.5-0.9 2.3-0.9 0.3 0 0.6-0.2 0.8-0.4 0.2-0.2 0.3-0.5 0.3-0.7v-2h-5.7v12c0 0.6-0.2 1.2-0.7 1.6-0.4 0.4-0.9 0.7-1.5 0.7h-8.9c-0.6 0-1.2-0.3-1.6-0.7-0.4-0.4-0.7-1-0.7-1.6v-18.7c0-0.6 0.3-1.2 0.7-1.6 0.4-0.5 1-0.7 1.6-0.7h2.2v-19.9c0-0.6 0.3-1.2 0.7-1.7 0.4-0.4 1-0.7 1.7-0.7h35.8c0.6 0 1.2 0.3 1.7 0.7 0.4 0.5 0.6 1.1 0.6 1.7v20h5.9c0.6 0 1.1 0.3 1.5 0.6zm-40.3 18.2h-10.8v2.1q0 0.4 0.3 0.7 0.3 0.3 0.7 0.3h8.9q0.4 0 0.7-0.3 0.2-0.3 0.2-0.7zm0-16.6q0-0.4-0.2-0.7-0.3-0.3-0.7-0.3h-8.9q-0.4 0-0.7 0.3-0.3 0.3-0.3 0.7v0.8h0.8q0.3 0 0.5 0.2 0.2 0.2 0.2 0.4 0 0.3-0.2 0.5-0.2 0.2-0.5 0.2h-0.8v13.3h10.8v-13.3h-11.3q-0.2 0-0.4-0.2-0.2-0.2-0.2-0.5 0-0.2 0.2-0.4 0.2-0.2 0.4-0.2c0 0 0.2 0 0.5 0 0.4 0 0.8 0 0.8 0h10zm18.9 11.1c0 0.1 0-0.4 0 0-1.1-0.1-2.1-1.1-2.1-1.3q-0.2-0.5-0.2-1.1v-2h-8.3v2c0 0.6-0.3 1.2-0.7 1.7-0.5 0.4-1.1 0.7-1.7 0.7q-0.6 0-1.1 0.3-0.5 0.4-0.8 1h16.8q-0.2-0.6-0.7-1-0.5-0.3-1.2-0.3zm4.4-12.8c0.3-0.3 0.8-0.4 1.2-0.4h7.2v-20.1c0-0.3-0.1-0.5-0.3-0.7-0.2-0.3-0.5-0.4-0.8-0.4h-35.8c-0.3 0-0.6 0.1-0.8 0.4-0.2 0.2-0.3 0.4-0.3 0.7v20h5.4c0.5 0 0.9 0.1 1.3 0.4 0.4 0.3 0.7 0.7 0.8 1.2h0.6q0 0 0 0h20.7c0.2-0.4 0.4-0.8 0.8-1.1zm-22 1.3q-0.1 0.2-0.1 0.4 0 0.3 0.1 0.5 0.2 0.2 0.5 0.2h1.8q0.2-0.1 0.4-0.2 0.2-0.2 0.2-0.5 0-0.2-0.2-0.4-0.2-0.2-0.4-0.2h-1.8q-0.3 0-0.5 0.2zm2.3 1.1q0 0 0 0h-2.3v4.8h21.2v-4.8zm36-0.7q0-0.4-0.2-0.6-0.3-0.2-0.6-0.2h-14.3q-0.3 0-0.6 0.2-0.2 0.2-0.2 0.6v19q0 0.3 0.2 0.5 0.3 0.3 0.6 0.3h14.3q0.3 0 0.6-0.3 0.2-0.2 0.2-0.5z"/>
	<path id="Layer" class="s1" d="m24.5 23q0.8 0 1.6-0.2 0.1-0.1 0.2-0.1 0.1-0.1 0.1-0.2 0.1-0.1 0.1-0.2 0-0.1-0.1-0.2 0-0.1-0.1-0.2 0-0.1-0.1-0.1-0.1-0.1-0.2-0.1-0.1 0-0.2 0.1c-1 0.2-2 0.2-2.9-0.2-0.9-0.3-1.7-1-2.2-1.8-0.5-0.8-0.7-1.8-0.6-2.8 0.1-1 0.5-1.9 1.2-2.6 0.7-0.7 1.6-1.1 2.6-1.3 0.9-0.1 1.9 0.1 2.8 0.6 0.8 0.4 1.5 1.2 1.9 2.1 0.4 0.9 0.4 1.9 0.2 2.9q-0.1 0.2 0 0.4 0.2 0.1 0.4 0.2 0.2 0 0.4-0.1 0.2-0.1 0.2-0.3c0.3-1.1 0.3-2.3-0.2-3.3-0.4-1.1-1.1-2-2-2.7-1-0.6-2.1-0.9-3.3-0.9-1.1 0-2.2 0.4-3.1 1.1-1 0.7-1.6 1.7-2 2.8-0.3 1.1-0.3 2.3 0.1 3.4 0.4 1.1 1.1 2 2 2.7 0.9 0.6 2.1 1 3.2 1z"/>
	<path id="Layer" class="s1" d="m29.3 14.7q-0.4-0.7-1-1.3-0.1-0.1-0.2-0.1-0.1 0-0.2 0-0.1 0-0.2 0-0.1 0.1-0.2 0.1-0.1 0.1-0.1 0.2 0 0.1 0 0.2 0 0.1 0 0.2 0.1 0.1 0.1 0.2c0.7 0.7 1.2 1.5 1.4 2.5 0.1 1 0 2-0.5 2.8-0.5 0.9-1.2 1.6-2.1 2-0.9 0.4-1.9 0.4-2.9 0.2-0.9-0.2-1.8-0.8-2.4-1.6-0.6-0.7-0.9-1.7-0.9-2.7 0-0.9 0.3-1.9 0.9-2.7 0.6-0.8 1.4-1.3 2.4-1.6q0.2 0 0.3-0.2 0.1-0.2 0-0.4 0-0.2-0.2-0.3-0.2-0.1-0.4-0.1c-1.1 0.3-2.1 0.9-2.8 1.8-0.8 0.9-1.2 2-1.3 3.2-0.1 1.1 0.2 2.2 0.8 3.2 0.6 1 1.5 1.7 2.6 2.2 1.1 0.4 2.2 0.5 3.3 0.3 1.2-0.3 2.2-0.9 2.9-1.8 0.8-0.8 1.3-1.9 1.4-3 0.1-1.2-0.2-2.3-0.7-3.3z"/>
	<path id="Layer" fill-rule="evenodd" class="s1" d="m26.9 17.3q0.1 0.1 0.1 0.2 0 0.1-0.1 0.2 0 0.1-0.1 0.2l-2.9 2q-0.2 0.1-0.3 0.1-0.2 0-0.3-0.1-0.1 0-0.2-0.1-0.1-0.2-0.1-0.3v-4q0-0.1 0.1-0.3 0.1-0.1 0.2-0.1 0.1-0.1 0.3-0.1 0.1 0 0.3 0.1l2.9 2q0.1 0.1 0.1 0.2zm-1.4 0.2l-1.4-1v2z"/>
</svg>