<svg version="1.2" xmlns="http://www.w3.org/2000/svg" viewBox="0 0 119 119" width="119" height="119">
	<title>digital-money-svg</title>
	<defs>
		<clipPath clipPathUnits="userSpaceOnUse" id="cp1">
			<path d="m32 32h54v54h-54z"/>
		</clipPath>
	</defs>
	<style>
		.s0 { fill: #d9d9d9 } 
		.s1 { fill: #e20072 } 
	</style>
	<g id="Layer">
		<path id="Layer" class="s0" d="m115.4 32c1.7 1.7 2.6 4 2.6 6.4l0.3 41.2c0 2.4-0.9 4.7-2.6 6.4l-29 29.4c-1.7 1.7-4 2.6-6.4 2.6l-41.2 0.3c-2.4 0-4.7-0.9-6.4-2.6l-29.3-29c-1.7-1.7-2.7-4-2.7-6.4l-0.3-41.2c0-2.4 1-4.7 2.6-6.4l29-29.3c1.7-1.7 4-2.7 6.4-2.7l41.2-0.3c2.4 0 4.7 1 6.4 2.6z"/>
	</g>
	<g id="Clip-Path" clip-path="url(#cp1)">
		<g id="Layer">
			<path id="Layer" fill-rule="evenodd" class="s1" d="m82.5 42.7c0.8 0.8 1.3 1.9 1.3 3v26.6c0 1.2-0.5 2.2-1.3 3-0.7 0.8-1.8 1.3-2.9 1.3h-14.9q0.9 2.5 2.2 3.9h1.3c0.5 0 1.1 0.3 1.5 0.7 0.4 0.4 0.6 0.9 0.6 1.5v2.5q0 0.3-0.2 0.6-0.3 0.2-0.6 0.2h-21q-0.3 0-0.6-0.2-0.2-0.3-0.2-0.6v-2.5c0-0.6 0.2-1.1 0.6-1.5 0.4-0.4 1-0.7 1.5-0.7h1.3q1.3-1.4 2.2-3.9h-14.9c-1.1 0-2.2-0.5-2.9-1.3-0.8-0.8-1.3-1.8-1.3-3v-26.6c0-1.1 0.5-2.2 1.3-3 0.7-0.8 1.8-1.2 2.9-1.2h5.9c1.3-2.8 3.3-5.2 5.9-6.9 2.7-1.7 5.7-2.6 8.8-2.6 3.1 0 6.1 0.9 8.8 2.6 2.6 1.7 4.6 4.1 5.9 6.9h5.9c1.1 0 2.2 0.4 2.9 1.2zm-38 5.5c0 8 6.5 14.5 14.5 14.5 8 0 14.5-6.5 14.5-14.5 0-8-6.5-14.5-14.5-14.5-8 0-14.5 6.5-14.5 14.5zm-7.9-4.3c-0.4 0.5-0.7 1.1-0.7 1.8v24.6h46.2v-24.6c0-0.7-0.3-1.3-0.7-1.8-0.5-0.5-1.2-0.7-1.8-0.7h-5.2c0.5 1.6 0.8 3.3 0.8 5 0 8.9-7.3 16.2-16.2 16.2-8.9 0-16.2-7.3-16.2-16.2 0-1.7 0.3-3.4 0.8-5h-5.2c-0.6 0-1.3 0.2-1.8 0.7zm31.9 38.5q-0.1-0.2-0.3-0.2h-18.4q-0.2 0-0.3 0.2-0.1 0.1-0.1 0.3v1.6h19.2v-1.6q0-0.2-0.1-0.3zm-3.8-1.9q-1-1.6-1.7-3.9h-8q-0.7 2.3-1.7 3.9zm16.6-6.4c0.5-0.4 0.7-1.1 0.7-1.8v-0.3h-46.2v0.3c0 0.7 0.3 1.4 0.8 1.8 0.5 0.5 1.1 0.8 1.8 0.8h41.1c0.7 0 1.3-0.3 1.8-0.8zm-21.5-0.7q0 0.3-0.2 0.5-0.1 0.2-0.3 0.3-0.3 0.1-0.5 0-0.3 0-0.5-0.2-0.1-0.2-0.2-0.4 0-0.3 0-0.5 0.1-0.2 0.4-0.4 0.2-0.1 0.4-0.1 0.4 0 0.6 0.2 0.3 0.3 0.3 0.6zm-9.8-16.3c-2.4-2.4-3.7-5.6-3.7-8.9 0-2.5 0.8-4.9 2.1-7 1.4-2.1 3.4-3.7 5.7-4.7 2.3-0.9 4.8-1.2 7.3-0.7 2.4 0.5 4.7 1.7 6.5 3.5 1.7 1.7 2.9 4 3.4 6.4 0.5 2.5 0.2 5-0.7 7.3-1 2.3-2.6 4.3-4.7 5.7-2 1.4-4.5 2.1-7 2.1-3.3 0-6.5-1.3-8.9-3.7zm8.9-19.8c-2.9 0-5.6 1.1-7.7 3.2-2 2-3.2 4.8-3.2 7.7 0 2.2 0.6 4.3 1.8 6.1 1.2 1.8 2.9 3.2 4.9 4 2 0.8 4.2 1 6.4 0.6 2.1-0.4 4-1.4 5.6-3 1.5-1.5 2.5-3.5 3-5.6 0.4-2.1 0.2-4.3-0.7-6.3-0.8-2-2.2-3.7-4-4.9-1.8-1.2-3.9-1.8-6.1-1.8zm-2 15.6c0.3 0.4 0.7 0.7 1.2 0.8v-4.8c-1.6-0.5-3.3-1.2-3.3-4 0-0.9 0.3-1.8 0.9-2.6 0.6-0.7 1.5-1.2 2.4-1.4v-0.8q0-0.3 0.2-0.6 0.3-0.2 0.6-0.2 0.4 0 0.6 0.2 0.3 0.3 0.3 0.6v0.8c0.9 0.2 1.7 0.7 2.3 1.4 0.6 0.8 0.9 1.7 0.9 2.6q0 0.4-0.2 0.6-0.2 0.3-0.6 0.3-0.3 0-0.6-0.3-0.2-0.2-0.2-0.6c0-0.5-0.2-1-0.5-1.4-0.3-0.4-0.7-0.7-1.1-0.9v4.9c1.5 0.4 3.2 1.2 3.2 4 0 0.9-0.3 1.8-0.9 2.6-0.6 0.7-1.4 1.2-2.3 1.4v0.8q0 0.3-0.3 0.6-0.2 0.2-0.6 0.2-0.3 0-0.6-0.2-0.2-0.3-0.2-0.6v-0.8c-0.9-0.2-1.8-0.7-2.4-1.4-0.6-0.8-0.9-1.7-0.9-2.6q0-0.4 0.3-0.6 0.2-0.3 0.6-0.3 0.3 0 0.6 0.3 0.2 0.2 0.2 0.6c0 0.5 0.2 0.9 0.4 1.4zm2.9-3.6v4.4c0.4-0.1 0.8-0.4 1.1-0.8 0.3-0.5 0.5-0.9 0.5-1.4 0-1.4-0.6-1.9-1.6-2.2zm-1.7-2.2v-4.5c-0.5 0.2-0.9 0.5-1.2 0.9-0.2 0.4-0.4 0.9-0.4 1.4 0 1.4 0.5 1.9 1.6 2.2z"/>
		</g>
	</g>
</svg>