<svg version="1.2" xmlns="http://www.w3.org/2000/svg" viewBox="0 0 119 119" width="119" height="119">
	<title>music-svg</title>
	<defs>
		<clipPath clipPathUnits="userSpaceOnUse" id="cp1">
			<path d="m32 32h54v54h-54z"/>
		</clipPath>
	</defs>
	<style>
		.s0 { fill: #d9d9d9 } 
		.s1 { fill: #009fdf } 
	</style>
	<g id="Layer">
		<path id="Layer" class="s0" d="m115.4 32c1.7 1.7 2.6 4 2.6 6.4l0.3 41.2c0 2.4-0.9 4.7-2.6 6.4l-29 29.4c-1.7 1.7-4 2.6-6.4 2.6l-41.2 0.3c-2.4 0-4.7-0.9-6.4-2.6l-29.3-29c-1.7-1.7-2.7-4-2.7-6.4l-0.3-41.2c0-2.4 1-4.7 2.6-6.4l29-29.3c1.7-1.7 4-2.7 6.4-2.7l41.2-0.3c2.4 0 4.7 1 6.4 2.6z"/>
	</g>
	<g id="Clip-Path" clip-path="url(#cp1)">
		<g id="Layer">
			<path id="Layer" class="s1" d="m37.5 61.6q-0.3 0-0.5 0.2-0.2 0.1-0.2 0.4 0 0.3 0.2 0.4 0.2 0.2 0.5 0.2 0.1 0 0.2 0 0.1-0.1 0.2-0.2 0.1 0 0.1-0.2 0.1-0.1 0.1-0.2 0-0.3-0.2-0.4-0.2-0.2-0.4-0.2z"/>
			<path id="Layer" class="s1" d="m40.2 79.8c0.5 0 1-0.4 1-1 0-0.5-0.5-0.9-1-0.9-0.5 0-0.9 0.4-0.9 0.9 0 0.6 0.4 1 0.9 1z"/>
			<path id="Layer" class="s1" d="m78 78.4h-1.5q-0.3 0-0.5 0.2-0.1 0.2-0.1 0.5 0 0.2 0.1 0.4 0.2 0.2 0.5 0.2h1.5q0.3 0 0.5-0.2 0.2-0.2 0.2-0.4 0-0.3-0.2-0.5-0.2-0.2-0.5-0.2z"/>
			<path id="Layer" class="s1" d="m83.7 61h-12.9q-0.2 0-0.4 0.2-0.2 0.2-0.2 0.4v3.8q0 0.2 0.2 0.4 0.2 0.2 0.4 0.2 0.3 0 0.5-0.2 0.2-0.2 0.2-0.4v-3.1h11.6v14.4h-11.6v-12.1q0-0.3-0.2-0.4-0.2-0.2-0.5-0.2-0.2 0-0.4 0.2-0.2 0.1-0.2 0.4v12.8q0 0.2 0.2 0.4 0.2 0.2 0.4 0.2h12.9q0.3 0 0.4-0.2 0.2-0.2 0.2-0.4v-15.8q0-0.2-0.2-0.4-0.1-0.2-0.4-0.2z"/>
			<path id="Layer" fill-rule="evenodd" class="s1" d="m57 64.9c-0.3-0.3-0.5-0.7-0.5-1.1q0-0.4 0.3-0.8 0.2-0.4 0.6-0.6 0.5-0.1 0.9-0.1 0.5 0.1 0.8 0.5 0.3 0.3 0.4 0.7 0.1 0.5-0.1 0.9-0.2 0.4-0.6 0.7-0.3 0.2-0.8 0.2c-0.4 0-0.8-0.1-1-0.4zm0.9-1.3q-0.1 0.1-0.1 0.2 0 0.1 0 0.1 0.1 0.1 0.1 0.1 0.1 0.1 0.2 0 0 0 0.1 0 0-0.1 0-0.1 0.1-0.1 0-0.2 0 0-0.1-0.1 0 0-0.1 0-0.1 0-0.1 0z"/>
			<path id="Layer" class="s1" d="m57.4 70.6h-0.1q-0.3 0-0.4 0.1-0.2 0.2-0.2 0.5 0 0.2 0.2 0.4 0.1 0.2 0.4 0.2h0.1q0.2 0 0.4-0.2 0.2-0.2 0.2-0.4 0-0.3-0.2-0.5-0.2-0.1-0.4-0.1z"/>
			<path id="Layer" fill-rule="evenodd" class="s1" d="m85.9 59.2c0.4 0.4 0.6 1 0.6 1.5v19c0 0.6-0.2 1.1-0.6 1.5-0.4 0.4-0.9 0.6-1.5 0.6h-14.3c-0.5 0-1.1-0.2-1.4-0.6-0.4-0.4-0.7-0.9-0.7-1.5v-12.2h-4.6v2c0 0.2 0.1 0.5 0.3 0.7 0.2 0.2 0.5 0.4 0.8 0.4h0.1q0 0 0.1 0c0.8 0 1.6 0.4 2.2 1 0.5 0.6 0.9 1.4 0.9 2.2q0 0.2-0.2 0.4-0.2 0.2-0.5 0.2h-18.2q-0.2 0-0.4-0.2-0.2-0.2-0.2-0.4c0-0.9 0.3-1.7 0.9-2.3 0.6-0.6 1.5-0.9 2.3-0.9 0.3 0 0.6-0.2 0.8-0.4 0.2-0.2 0.3-0.5 0.3-0.7v-2h-5.7v12c0 0.6-0.2 1.2-0.7 1.6-0.4 0.4-0.9 0.7-1.5 0.7h-8.9c-0.6 0-1.2-0.3-1.6-0.7-0.4-0.4-0.7-1-0.7-1.6v-18.7c0-0.6 0.3-1.2 0.7-1.6 0.4-0.5 1-0.7 1.6-0.7h2.2v-19.9c0-0.6 0.3-1.2 0.7-1.7 0.4-0.4 1-0.7 1.7-0.7h35.8c0.6 0 1.2 0.3 1.7 0.7 0.4 0.5 0.6 1.1 0.6 1.7v20h5.9c0.6 0 1.1 0.3 1.5 0.6zm-40.3 18.2h-10.8v2.1q0 0.4 0.3 0.7 0.3 0.3 0.7 0.3h8.9q0.4 0 0.7-0.3 0.2-0.3 0.2-0.7zm0-16.6q0-0.4-0.2-0.7-0.3-0.3-0.7-0.3h-8.9q-0.4 0-0.7 0.3-0.3 0.3-0.3 0.7v0.8h0.8q0.3 0 0.5 0.2 0.2 0.2 0.2 0.4 0 0.3-0.2 0.5-0.2 0.2-0.5 0.2h-0.8v13.3h10.8v-13.3h-11.3q-0.2 0-0.4-0.2-0.2-0.2-0.2-0.5 0-0.2 0.2-0.4 0.2-0.2 0.4-0.2c0 0 0.2 0 0.5 0 0.4 0 0.8 0 0.8 0h10zm18.9 11.1c0 0.1 0-0.4 0 0-1.1-0.1-2.1-1.1-2.1-1.3q-0.2-0.5-0.2-1.1v-2h-8.3v2c0 0.6-0.3 1.2-0.7 1.7-0.5 0.4-1.1 0.7-1.7 0.7q-0.6 0-1.1 0.3-0.5 0.4-0.8 1h16.8q-0.2-0.6-0.7-1-0.5-0.3-1.2-0.3zm4.4-12.8c0.3-0.3 0.8-0.4 1.2-0.4h7.2v-20.1c0-0.3-0.1-0.5-0.3-0.7-0.2-0.3-0.5-0.4-0.8-0.4h-35.8c-0.3 0-0.6 0.1-0.8 0.4-0.2 0.2-0.3 0.4-0.3 0.7v20h5.4c0.5 0 0.9 0.1 1.3 0.4 0.4 0.3 0.7 0.7 0.8 1.2h0.6q0 0 0 0h20.7c0.2-0.4 0.4-0.8 0.8-1.1zm-22 1.3q-0.1 0.2-0.1 0.4 0 0.3 0.1 0.5 0.2 0.2 0.5 0.2h1.8q0.2-0.1 0.4-0.2 0.2-0.2 0.2-0.5 0-0.2-0.2-0.4-0.2-0.2-0.4-0.2h-1.8q-0.3 0-0.5 0.2zm2.3 1.1q0 0 0 0h-2.3v4.8h21.2v-4.8zm36-0.7q0-0.4-0.2-0.6-0.3-0.2-0.6-0.2h-14.3q-0.3 0-0.6 0.2-0.2 0.2-0.2 0.6v19q0 0.3 0.2 0.5 0.3 0.3 0.6 0.3h14.3q0.3 0 0.6-0.3 0.2-0.2 0.2-0.5z"/>
		</g>
	</g>
</svg>