<svg version="1.2" xmlns="http://www.w3.org/2000/svg" viewBox="0 0 119 119" width="119" height="119">
	<title>operation-svg</title>
	<style>
		.s0 { fill: #d9d9d9 } 
		.s1 { fill: #009fdf } 
	</style>
	<g id="Layer">
		<path id="Layer" class="s0" d="m115.4 32c1.7 1.7 2.6 4 2.6 6.4l0.3 41.2c0 2.4-0.9 4.7-2.6 6.4l-29 29.4c-1.7 1.7-4 2.6-6.4 2.6l-41.2 0.3c-2.4 0-4.7-0.9-6.4-2.6l-29.3-29c-1.7-1.7-2.7-4-2.7-6.4l-0.3-41.2c0-2.4 1-4.7 2.6-6.4l29-29.3c1.7-1.7 4-2.7 6.4-2.7l41.2-0.3c2.4 0 4.7 1 6.4 2.6z"/>
	</g>
	<path id="Layer" fill-rule="evenodd" class="s1" d="m84.6 55.1c0.7 0 1.4 0.2 2 0.6 0.7 0.4 1.2 1 1.5 1.6 0.3 0.7 0.4 1.4 0.3 2.2-0.1 0.7-0.4 1.4-0.8 2-0.5 0.5-1.1 1-1.8 1.2-0.7 0.2-1.5 0.2-2.2 0.1-0.7-0.2-1.4-0.6-1.9-1.1-0.5-0.6-0.8-1.2-0.9-2h-5.6c-0.2 3.8-1.7 7.4-4.2 10.2l3.9 3.9c0.8-0.5 1.8-0.7 2.8-0.6 0.9 0.2 1.8 0.7 2.4 1.4 0.6 0.8 0.9 1.7 0.8 2.7 0 0.9-0.4 1.9-1.1 2.5-0.7 0.7-1.6 1.1-2.6 1.1-0.9 0.1-1.9-0.2-2.6-0.9-0.8-0.6-1.2-1.5-1.4-2.4-0.1-1 0.1-1.9 0.7-2.7l-4-4c-2.8 2.6-6.4 4.1-10.2 4.3v5.5c1 0.2 1.8 0.8 2.4 1.5 0.6 0.8 0.9 1.8 0.8 2.7-0.1 1-0.6 1.9-1.3 2.5-0.7 0.7-1.6 1.1-2.6 1.1-1 0-1.9-0.4-2.6-1.1-0.7-0.6-1.2-1.5-1.3-2.5-0.1-0.9 0.2-1.9 0.8-2.7 0.6-0.7 1.4-1.3 2.4-1.5v-5.5c-3.8-0.2-7.4-1.7-10.2-4.2l-3.9 3.9c0.5 0.9 0.7 1.8 0.6 2.8-0.2 1-0.7 1.8-1.5 2.4-0.7 0.6-1.7 0.9-2.7 0.9-0.9-0.1-1.8-0.5-2.5-1.2-0.7-0.7-1.1-1.6-1.1-2.6 0-1 0.3-1.9 0.9-2.7 0.7-0.7 1.6-1.2 2.5-1.3 1-0.1 2 0.1 2.8 0.7l3.9-4c-2.6-2.7-4.1-6.3-4.2-10.1h-5.7c-0.2 0.9-0.7 1.7-1.3 2.2-0.7 0.6-1.6 0.9-2.5 0.9-1 0-2-0.4-2.7-1.2-0.7-0.7-1.2-1.7-1.2-2.7 0-1 0.4-1.9 1.1-2.7 0.6-0.7 1.6-1.1 2.5-1.2 1-0.1 2 0.2 2.8 0.8 0.7 0.6 1.2 1.5 1.4 2.5h5.5c0.2-3.8 1.7-7.4 4.2-10.2l-4-4c-0.8 0.5-1.8 0.7-2.7 0.6-1-0.2-1.8-0.7-2.4-1.5-0.6-0.7-0.9-1.7-0.8-2.6 0-1 0.4-1.9 1.1-2.6 0.7-0.6 1.7-1 2.6-1.1 1 0 1.9 0.4 2.7 1 0.7 0.6 1.2 1.5 1.3 2.5 0.1 0.9-0.2 1.9-0.7 2.7l3.9 3.9c2.8-2.5 6.4-4 10.2-4.2v-5.7c-1-0.2-1.8-0.7-2.4-1.5-0.5-0.8-0.8-1.8-0.7-2.8 0.2-0.9 0.6-1.8 1.4-2.4 0.7-0.7 1.7-1 2.6-1 1 0.1 1.9 0.5 2.6 1.1 0.7 0.7 1.1 1.6 1.2 2.6 0 1-0.3 1.9-0.9 2.7-0.6 0.7-1.4 1.2-2.4 1.4v5.6c3.8 0.1 7.4 1.6 10.2 4.1l4-3.9c-0.5-0.8-0.7-1.8-0.6-2.8 0.2-0.9 0.7-1.8 1.4-2.4 0.8-0.6 1.7-0.9 2.7-0.8 0.9 0 1.8 0.5 2.5 1.1 0.7 0.7 1.1 1.6 1.1 2.6 0 1-0.3 1.9-0.9 2.6-0.6 0.8-1.5 1.2-2.5 1.4-0.9 0.1-1.9-0.2-2.7-0.7l-3.9 4c2.6 2.8 4.1 6.4 4.3 10.2h5.5c0.2-0.9 0.7-1.7 1.4-2.3 0.7-0.6 1.6-0.9 2.5-0.9zm-10-14.2c0 0.7 0.3 1.3 0.8 1.7 0.4 0.5 1 0.8 1.7 0.8 0.6 0 1.2-0.3 1.7-0.8q0.3-0.3 0.5-0.7 0.2-0.5 0.2-1 0-0.5-0.2-0.9-0.2-0.5-0.5-0.8-0.3-0.3-0.8-0.5-0.4-0.2-0.9-0.2-0.5 0-1 0.2-0.4 0.2-0.7 0.5c-0.5 0.5-0.8 1.1-0.8 1.7zm-17.3-5.7c0.4 0.4 1.1 0.7 1.7 0.7q0.7 0 1.4-0.4 0.6-0.5 0.8-1.1 0.3-0.7 0.2-1.4-0.2-0.8-0.7-1.3-0.5-0.5-1.2-0.7-0.7-0.1-1.4 0.2-0.7 0.3-1.1 0.9-0.4 0.6-0.4 1.3c0 0.7 0.2 1.3 0.7 1.8zm-16.4 8.2c0.7 0 1.3-0.3 1.7-0.8 0.5-0.4 0.8-1 0.8-1.7 0-0.6-0.3-1.2-0.8-1.7q-0.3-0.3-0.7-0.5-0.5-0.2-1-0.2-0.5 0-0.9 0.2-0.5 0.2-0.8 0.5-0.3 0.3-0.5 0.8-0.2 0.4-0.2 0.9 0 0.5 0.2 1 0.2 0.4 0.5 0.7c0.5 0.5 1.1 0.8 1.7 0.8zm-5.7 17.3c0.4-0.4 0.7-1.1 0.7-1.7q0-0.7-0.4-1.4-0.5-0.6-1.1-0.8-0.7-0.3-1.4-0.2-0.8 0.2-1.3 0.7-0.5 0.5-0.7 1.2-0.1 0.7 0.2 1.4 0.3 0.7 0.9 1.1 0.6 0.4 1.3 0.4c0.7 0 1.3-0.2 1.8-0.7zm7.4 18.1c0.5-0.4 0.7-1 0.8-1.6 0-0.6-0.2-1.2-0.6-1.7q-0.1 0-0.1-0.1-0.1 0-0.1-0.1c-0.5-0.4-1.1-0.7-1.7-0.7-0.7 0.1-1.3 0.3-1.7 0.8q-0.3 0.3-0.5 0.7-0.2 0.5-0.2 1 0 0.5 0.2 0.9 0.2 0.5 0.5 0.8 0.3 0.3 0.8 0.5 0.4 0.2 0.9 0.2 0.5 0 1-0.2 0.4-0.2 0.7-0.5zm18.8 5.8c0-0.7-0.2-1.2-0.6-1.7-0.4-0.4-1-0.7-1.6-0.8q-0.2 0.1-0.4 0-0.7 0.1-1.3 0.5-0.5 0.5-0.8 1.1-0.2 0.7-0.1 1.4 0.2 0.7 0.7 1.2 0.6 0.5 1.3 0.7 0.7 0.1 1.4-0.2 0.6-0.3 1-0.9 0.4-0.6 0.4-1.3zm15.7-10c-0.7 0-1.3 0.3-1.7 0.8-0.5 0.4-0.8 1-0.8 1.7 0 0.6 0.3 1.2 0.8 1.7q0.3 0.3 0.7 0.5 0.5 0.2 1 0.2 0.5 0 0.9-0.2 0.5-0.2 0.8-0.5 0.3-0.3 0.5-0.8 0.2-0.4 0.2-0.9 0-0.5-0.2-1-0.2-0.4-0.5-0.7c-0.5-0.5-1.1-0.8-1.7-0.8zm-7.7-5.2c2.8-2.7 4.3-6.5 4.3-10.4 0-2.9-0.8-5.7-2.5-8.1-1.6-2.5-3.9-4.4-6.6-5.5-2.7-1.1-5.6-1.4-8.5-0.8-2.8 0.6-5.4 2-7.5 4-2.1 2.1-3.5 4.7-4 7.6-0.6 2.8-0.3 5.8 0.8 8.5 1.1 2.6 3 4.9 5.4 6.6 2.4 1.6 5.3 2.4 8.2 2.4 3.9 0 7.6-1.5 10.4-4.3zm16.9-8.7c0.4-0.4 0.7-1.1 0.7-1.7q0-0.7-0.4-1.4-0.4-0.6-1.1-0.8-0.7-0.3-1.4-0.2-0.7 0.2-1.3 0.7-0.5 0.5-0.6 1.2-0.2 0.7 0.1 1.4c0.2 0.5 0.5 0.9 0.9 1.1 0.4 0.3 0.9 0.4 1.4 0.4 0.6 0 1.2-0.2 1.7-0.7z"/>
	<path id="Layer" fill-rule="evenodd" class="s1" d="m71.1 58.7q0.1 0.2 0.1 0.3 0 0.2-0.1 0.3c-1.1 2.3-2.8 4.2-5 5.6-2.1 1.3-4.6 2-7.1 2-2.5 0-5-0.7-7.1-2-2.2-1.4-3.9-3.3-5-5.6q-0.1-0.1-0.1-0.3 0-0.1 0.1-0.3c0.8-1.7 2-3.2 3.5-4.4 1.4-1.2 3.1-2.1 4.9-2.6 1.9-0.6 3.8-0.7 5.7-0.4 1.8 0.3 3.6 0.9 5.2 2 2.1 1.3 3.8 3.2 4.9 5.4zm-1.5 0.3c-1-1.9-2.5-3.5-4.4-4.7-1.9-1.1-4-1.7-6.2-1.7-2.2 0-4.3 0.6-6.2 1.7-1.9 1.2-3.4 2.8-4.4 4.7 0.7 1.5 1.8 2.8 3.1 3.8 1.3 1.1 2.8 1.8 4.4 2.2 1.6 0.5 3.3 0.6 4.9 0.3 1.7-0.2 3.2-0.8 4.6-1.7 1.8-1.2 3.3-2.7 4.2-4.6z"/>
	<path id="Layer" fill-rule="evenodd" class="s1" d="m62.9 55.2c1 1 1.6 2.4 1.6 3.8 0 1.1-0.4 2.1-1 3-0.5 0.9-1.4 1.6-2.4 2-1 0.4-2 0.5-3.1 0.3-1-0.2-2-0.7-2.7-1.5-0.8-0.7-1.3-1.7-1.5-2.7-0.2-1.1-0.1-2.1 0.3-3.1 0.4-1 1.1-1.9 2-2.4 0.9-0.6 1.9-1 3-1 1.4 0 2.8 0.6 3.8 1.6zm-1.1 6.6c0.8-0.7 1.2-1.7 1.2-2.8 0-0.8-0.2-1.5-0.7-2.2-0.4-0.6-1-1.1-1.7-1.4-0.7-0.3-1.5-0.4-2.3-0.2-0.8 0.1-1.5 0.5-2 1-0.6 0.6-0.9 1.3-1.1 2.1-0.1 0.7-0.1 1.5 0.2 2.2 0.3 0.7 0.8 1.4 1.5 1.8 0.6 0.4 1.4 0.7 2.2 0.7 1 0 2-0.5 2.7-1.2z"/>
</svg>