<svg version="1.2" xmlns="http://www.w3.org/2000/svg" viewBox="0 0 119 119" width="119" height="119">
	<title>security-lock-svg</title>
	<defs>
		<clipPath clipPathUnits="userSpaceOnUse" id="cp1">
			<path d="m34 38h46v46h-46z"/>
		</clipPath>
	</defs>
	<style>
		.s0 { fill: #d9d9d9 } 
		.s1 { fill: #009fdf } 
	</style>
	<g id="Layer">
		<path id="Layer" class="s0" d="m32 3.4c1.7-1.7 4-2.7 6.4-2.7l41.2-0.3c2.4 0 4.7 1 6.4 2.6l29.4 29c1.7 1.7 2.6 4 2.6 6.4l0.3 41.2c0 2.4-0.9 4.7-2.6 6.4l-29 29.4c-1.7 1.7-4 2.6-6.4 2.6l-41.2 0.3c-2.4 0-4.7-0.9-6.4-2.6l-29.3-29c-1.7-1.7-2.7-4-2.7-6.4l-0.3-41.2c0-2.4 1-4.7 2.6-6.4z"/>
	</g>
	<g id="Clip-Path" clip-path="url(#cp1)">
		<g id="Layer">
			<path id="Layer" fill-rule="evenodd" class="s1" d="m73.6 84h-26.3c-1.3 0-2.4-1.1-2.4-2.4v-1.6c0-0.4 0.3-0.7 0.7-0.7 0.4 0 0.7 0.3 0.7 0.7v1.6c0 0.6 0.4 1.1 1 1.1h26.4c0.6 0 1.1-0.5 1.1-1.1v-24.2h-28.6v6c0 0.4-0.3 0.7-0.7 0.7-0.4 0-0.7-0.3-0.7-0.7v-6.6c0-0.4 0.3-0.7 0.7-0.7h29.8c0.4 0 0.7 0.3 0.7 0.7v24.8c0 1.3-1 2.4-2.4 2.4z"/>
			<path id="Layer" fill-rule="evenodd" class="s1" d="m72.8 57.4h-24.6c-0.4 0-0.7-0.3-0.7-0.7v-5.8c0-7.1 5.8-12.9 13-12.9 7.1 0 12.9 5.8 12.9 12.9v5.9c0 0.3-0.3 0.6-0.6 0.6zm-24-1.3h23.3v-5.2c0-6.4-5.3-11.6-11.6-11.6-6.4 0-11.7 5.2-11.7 11.6z"/>
			<path id="Layer" fill-rule="evenodd" class="s1" d="m70 57.4h-19.1c-0.4 0-0.7-0.3-0.7-0.7v-5.8c0-5.6 4.6-10.2 10.3-10.2 5.6 0 10.2 4.5 10.2 10.2v5.8c0 0.4-0.3 0.7-0.7 0.7zm-18.4-1.3h17.8v-5.2c0-4.9-4-8.9-8.9-8.9-4.9 0-8.9 4-8.9 8.9z"/>
			<path id="Layer" fill-rule="evenodd" class="s1" d="m62.4 78h-3.9c-0.3 0-0.6-0.3-0.6-0.6v-7.1c-1.3-0.9-2-2.3-2-3.8 0-2.5 2-4.5 4.5-4.5 2.5 0 4.6 2 4.6 4.5 0 1.5-0.8 2.9-2 3.8v7.1c0 0.4-0.3 0.6-0.6 0.6zm-3.2-1.3h2.5v-6.8c0-0.2 0.1-0.4 0.4-0.5 1-0.6 1.6-1.7 1.6-2.8 0-1.8-1.5-3.3-3.2-3.3-1.8 0-3.2 1.5-3.2 3.3 0 1.1 0.6 2.2 1.6 2.8 0.2 0.1 0.3 0.3 0.3 0.5z"/>
			<path id="Layer" fill-rule="evenodd" class="s1" d="m45.5 80.6q-0.1 0-0.2 0c-7.4-2.8-7.4-7.5-7.3-13 0-0.6 0-1.1 0-1.7 0-0.4 0.3-0.7 0.7-0.7 4.1 0 6.3-2.2 6.4-2.3 0.2-0.2 0.7-0.2 0.9 0 0.1 0.1 2.3 2.3 6.4 2.3 0.4 0 0.7 0.3 0.7 0.7v1.7c0.1 5.5 0.1 10.2-7.3 13-0.1 0-0.2 0-0.3 0zm-6.2-14.1v1.1c-0.1 5.5-0.1 9.2 6.2 11.6 6.4-2.4 6.3-6.1 6.3-11.6q0-0.5 0-1.1c-3.2-0.2-5.3-1.5-6.2-2.2-1 0.7-3.1 2-6.3 2.2z"/>
			<path id="Layer" fill-rule="evenodd" class="s1" d="m44.1 74.8q-0.3 0-0.5-0.2l-2-2c-0.3-0.3-0.3-0.7 0-0.9 0.2-0.3 0.6-0.3 0.9 0l1.6 1.5 4.5-4.4c0.3-0.3 0.7-0.3 0.9 0 0.3 0.2 0.3 0.6 0 0.9l-5 4.9q-0.1 0.2-0.4 0.2z"/>
		</g>
	</g>
</svg>