<svg version="1.2" xmlns="http://www.w3.org/2000/svg" viewBox="0 0 119 119" width="119" height="119">
	<title>sports-svg</title>
	<style>
		.s0 { fill: #d9d9d9 } 
		.s1 { fill: #009fdf } 
	</style>
	<g id="Layer">
		<path id="Layer" class="s0" d="m32 3.4c1.7-1.7 4-2.7 6.4-2.7l41.2-0.3c2.4 0 4.7 1 6.4 2.6l29.4 29c1.7 1.7 2.6 4 2.6 6.4l0.3 41.2c0 2.4-0.9 4.7-2.6 6.4l-29 29.4c-1.7 1.7-4 2.6-6.4 2.6l-41.2 0.3c-2.4 0-4.7-0.9-6.4-2.6l-29.3-29c-1.7-1.7-2.7-4-2.7-6.4l-0.3-41.2c0-2.4 1-4.7 2.6-6.4z"/>
	</g>
	<path id="Layer" fill-rule="evenodd" class="s1" d="m81.4 41.7c1 2.8 0.7 6.2-0.7 9.3-2 4.4-5.9 7.1-9.5 7.1-1 0-2-0.2-2.9-0.6-1.7-0.8-3.1-2.3-3.8-4.3-1-2.8-0.8-6.2 0.7-9.3 2.5-5.6 8.1-8.5 12.4-6.5 1.7 0.8 3 2.3 3.8 4.3zm-4.5-1.4l2.6 1.2 0.2-0.4c-0.5-0.9-1.2-1.7-2.1-2.2zm-5.7 9.2l1-2.1-2.6-1.2-1 2.1zm-3.1 0l-1 2.1 2.6 1.2 1-2.1zm4.6-3.2l1-2.2-2.6-1.1-1 2.1zm-0.3 3.8l2.6 1.2 0.9-2.2-2.5-1.2zm4.1-2l0.9-2.1-2.6-1.2-0.9 2.1zm1.5-3.3l0.9-2.1-2.5-1.2-1 2.1zm-4.8-6.2l2.6 1.2 0.6-1.4q-0.8-0.3-1.7-0.3-0.7 0-1.3 0.1zm-1.5 3.3l2.5 1.2 1-2.1-2.6-1.2zm-2.7-1.3l1.6 0.7 1-2.1-0.4-0.2q-1.2 0.7-2.2 1.6zm-2.2 3l2.3 1 0.9-2.1-1.9-0.9q-0.7 0.9-1.3 2zm-1.3 3.3l2.1 1 0.9-2.1-2.3-1.1q-0.4 1.1-0.7 2.2zm0.6 4.2l0.9-2.1-1.7-0.8q-0.2 1.3 0 2.6zm3.2 2.9l-2.6-1.2-0.4 0.9c0.4 0.9 1.2 1.7 2.1 2.3zm3.7 1.7l-2.6-1.2-0.9 2c1 0.3 2 0.4 3 0.2zm1.6-3.3l-2.6-1.2-1 2.1 2.6 1.2zm0.9 3q1.1-0.7 2-1.7l-1.8-0.8-0.9 2.2 0.7 0.3zm2.8-2.7q0.7-0.9 1.2-2l-2.3-1-0.9 2.1 2 0.9zm1.7-3.1q0.5-1.1 0.7-2.3l-2-0.9-0.9 2.1 2.2 1.1zm0.8-3.6q0.1-1.4-0.1-2.7l-0.4-0.2-1 2.2 1.5 0.7z"/>
	<path id="Layer" class="s1" d="m44.5 42.6q-0.2-0.2-0.4-0.3-0.3 0-0.5 0.1-0.2 0.2-0.3 0.4 0 0.3 0.1 0.5l4.5 6.8q0.1 0.1 0.2 0.2 0.1 0 0.2 0.1 0.2 0 0.3 0 0.1-0.1 0.2-0.1 0.1-0.1 0.2-0.2 0.1-0.1 0.1-0.2 0-0.2 0-0.3 0-0.1-0.1-0.2z"/>
	<path id="Layer" fill-rule="evenodd" class="s1" d="m84.7 40.3c1.3 3.6 1 7.8-0.8 11.7-2.5 5.5-7.4 8.9-12.1 8.9q-0.8 0-1.6-0.2l-1.8 4 9.9-0.6c0.8-0.1 1.6 0.1 2.2 0.6l2.2 1.6q0.2 0.2 0.4 0.4 0.1 0.3 0.1 0.5 0 0.3-0.2 0.5-0.1 0.3-0.3 0.4l-3.1 1.9 2.8 2.8q0.2 0.1 0.3 0.4 0.1 0.3 0 0.5 0 0.3-0.2 0.5-0.1 0.2-0.4 0.3 0 0 0 0l-3.9 1.7 2.1 2.9q0.1 0.2 0.2 0.5 0 0.3-0.1 0.5-0.1 0.2-0.3 0.4-0.2 0.2-0.4 0.3l-2.8 0.7c-0.7 0.2-1.6 0.1-2.3-0.3l-0.7-0.4q-0.3 0.6-0.9 1l-1.6 1.1c-0.7 0.4-1.5 0.6-2.2 0.5-0.8-0.2-1.5-0.6-1.9-1.2q-0.2-0.3-0.3-0.6 0-0.2 0-0.5 0.1-0.3 0.2-0.6 0.2-0.2 0.4-0.4h0.1l-2.8-4.1-1.2-0.7-1-0.2c0.8 0.5 1.4 1.1 1.9 1.9 0.4 0.8 0.6 1.7 0.5 2.6-0.1 0.9-0.4 1.8-0.9 2.5-0.6 0.7-1.3 1.3-2.1 1.6-0.9 0.3-1.8 0.4-2.7 0.2-0.9-0.2-1.7-0.6-2.3-1.2-0.7-0.7-1.1-1.5-1.3-2.4-0.2-0.8-0.2-1.8 0.1-2.6q-0.1 0.1-0.3 0.3c-1.6 1.6-3.7 2.8-5.9 3.4-2.2 0.7-4.6 0.7-6.9 0.1-2.2-0.5-4.3-1.6-6-3.2-1.7-1.6-2.9-3.6-3.6-5.8-0.7-2.3-0.8-4.6-0.3-6.9 0.5-2.3 1.5-4.4 3.1-6.1 1.5-1.8 3.5-3.1 5.7-3.8 2.2-0.8 4.5-1 6.8-0.5l-8.1-11.8q-0.5-0.7-0.6-1.5-0.2-0.8-0.1-1.6 0.2-0.7 0.6-1.4 0.5-0.7 1.1-1.2c0.9-0.6 2-0.8 3.1-0.6 1 0.2 1.9 0.8 2.6 1.7l13.9 20.1c0.5 0.8 0.8 1.8 0.6 2.8-0.1 0.6 0.1 1.3 0.5 1.8l0.4 0.7q0.5 0 0.9 0.1l0.3 0.1 2.5-5.5c-1.3-1.1-2.3-2.5-3-4.3-1.3-3.6-1-7.8 0.8-11.7 3.2-7 10.3-10.6 15.8-8.1 2.2 1 3.9 3 4.9 5.5zm-25.2 26.7q0.1 0.7 0.1 1.4 0 2.2-0.7 4.2c0.6 0.7 1.4 0.8 2 0.9l1.7-8c-1.4-0.1-2.8 0.5-3.1 1.5zm-1.1 6.9q-0.3 0.8-0.7 1.5c0.6-0.5 1.3-0.7 2-0.8q-0.7-0.2-1.3-0.7zm-10.2-13.7c0.4 1.2 1 2.4 1.9 3.4l4.2-4.3q-0.2-0.1-0.3-0.2-0.1 0-0.1-0.1c-1.7-1.1-4.5-2.5-5.8-2.6-0.3 1.2-0.2 2.5 0.1 3.8zm5.9-1q0.2 0 0.5 0 0.2-0.1 0.3-0.3 0.1-0.1 0.1-0.2 0-0.2 0-0.3-0.1-0.2-0.2-0.3 0 0 0 0 0 0-0.1 0 0-0.1-0.1-0.1-0.1 0-0.2 0-0.2 0-0.3 0-0.1 0.1-0.2 0.2-0.1 0.1-0.1 0.2 0 0.1 0 0.3 0 0.1 0 0.2 0.1 0.1 0.1 0.1 0.1 0.1 0.2 0.2zm0.6-1.1q0 0 0.1 0c0 0 0 0 0 0q0.4 0.4 0.8 0.8c1.8 1.7 3 3.9 3.6 6.3 0.6-0.4 1.2-0.7 1.9-0.9l-0.1-0.1c-0.5-0.8-0.7-1.7-0.6-2.7 0.1-0.6-0.1-1.3-0.5-1.8l-13.9-20.2c-0.4-0.6-1-1-1.8-1.2-0.7-0.1-1.4 0.1-2.1 0.5q-0.4 0.3-0.7 0.8-0.3 0.4-0.4 1-0.1 0.5 0 1.1 0.1 0.5 0.4 1l9 12.9c1.1 0.4 3.1 1.4 4.2 2.4q0.1 0 0.1 0.1zm0.5 2.1l-4.3 4.3c1 0.8 2.2 1.4 3.4 1.8 1.3 0.3 2.6 0.4 3.9 0.1-0.4-2.3-1.5-4.4-3-6.2zm-17.4-0.9l8.3 8.2 3.1-3c-1-1.2-1.8-2.5-2.2-3.9-0.4-1.4-0.4-2.9-0.2-4.4q-0.4 0-0.7 0c-3.1 0-6 1.1-8.3 3.1zm-4 9.9c1.5-0.3 3-0.2 4.4 0.2 1.4 0.4 2.8 1.1 3.9 2.1l3.1-3.1-8.3-8.2c-2 2.3-3.1 5.2-3.1 8.2q0 0.4 0 0.8zm3.1 7.4l4.3-4.2c-1-0.8-2.2-1.5-3.4-1.8-1.3-0.3-2.6-0.4-3.8-0.2 0.3 2.4 1.4 4.5 2.9 6.2zm7 0.1c-0.3-1.3-1-2.4-1.8-3.4l-4.3 4.2c1.8 1.6 3.9 2.6 6.3 3 0.2-1.3 0.1-2.6-0.2-3.8zm6.2 3.3c1.5-0.5 3-1.4 4.2-2.5l-8.2-8.2-3.1 3.1c1 1.1 1.7 2.4 2.1 3.9 0.4 1.4 0.5 2.9 0.2 4.4 1.6 0.1 3.3-0.2 4.8-0.7zm8.2-11.6q0-0.3 0-0.7-0.8 0.1-1.7 0.1c-2.4 0-4.7-0.9-6.5-2.5l-3.1 3.1 8.2 8.2c2-2.2 3.1-5.1 3.1-8.2zm4.5 8.4c-0.6-0.6-1.5-1-2.4-1-0.7 0-1.4 0.2-1.9 0.6-0.6 0.4-1.1 0.9-1.3 1.5-0.3 0.7-0.4 1.4-0.2 2 0.1 0.7 0.4 1.3 0.9 1.8 0.5 0.5 1.1 0.8 1.8 1 0.7 0.1 1.4 0 2-0.2 0.6-0.3 1.2-0.7 1.6-1.3 0.4-0.6 0.6-1.2 0.6-1.9 0-1-0.4-1.8-1.1-2.5zm2.4-10.8l-1.4-0.3-1.7 8 1.4 0.3zm11.9 10.8q-0.3-0.3-0.7-0.5l-11.3-4.1-0.5 2.2 10.6 5.7c0.4 0.3 0.9 0.3 1.4 0.2l2.5-0.7zm-4.4 3.5l-1.7-0.9-2.7 1.8q0 0 0 0.1-0.1 0-0.1 0 0 0.1 0 0.1 0 0 0.1 0.1c0.2 0.3 0.6 0.6 1.1 0.7 0.4 0.1 0.8 0 1.2-0.3l1.7-1.1q0.3-0.2 0.4-0.5zm-4-0.9l1.1-0.7-2.5-1.4zm9.6-8.8q-0.2 0.1-0.4 0.1l-12.3-0.9-0.2 1.2 11.7 4.3 4.2-1.8zm-11.9-4.4l-0.5 2.3 11.9 0.9q0.5 0 0.9-0.2l3-1.9-2-1.5c-0.4-0.3-0.9-0.4-1.3-0.4zm2.5-5.7q-0.5-0.1-0.9-0.3-0.4-0.2-0.8-0.4l-2.3 5 1 0.2 0.9-0.1zm14.6-19.6c-0.9-2.3-2.3-4-4.3-4.9-1-0.4-2.1-0.7-3.2-0.6-4.1 0-8.6 3.1-10.9 8.1-1.6 3.6-1.9 7.5-0.7 10.7 0.8 2.3 2.3 3.9 4.2 4.8 4.9 2.3 11.2-1.1 14.1-7.4 1.7-3.6 2-7.5 0.8-10.7z"/>
</svg>