<svg width="48" height="47" viewBox="0 0 48 47" fill="none" xmlns="http://www.w3.org/2000/svg">
<g clip-path="url(#clip0_1_29596)">
<path d="M0.756261 26.5462L1.97396 34.5156H1.49601C1.38231 34.5156 1.27011 34.5411 1.16794 34.59C1.06576 34.639 0.976301 34.7102 0.906353 34.7982C0.836406 34.8862 0.787813 34.9887 0.764267 35.0979C0.740722 35.2071 0.742844 35.3202 0.770472 35.4285L2.26642 41.3035C2.30694 41.4623 2.40034 41.6032 2.5318 41.7039C2.66325 41.8047 2.82521 41.8594 2.99196 41.8594H44.8785C45.0453 41.8594 45.2072 41.8047 45.3387 41.7039C45.4701 41.6032 45.5635 41.4623 45.6041 41.3035L47.1 35.4285C47.1276 35.3202 47.1298 35.2071 47.1062 35.0979C47.0827 34.9887 47.0341 34.8862 46.9641 34.7982C46.8942 34.7102 46.8047 34.639 46.7025 34.59C46.6004 34.5411 46.4882 34.5156 46.3745 34.5156H45.8965L47.1142 26.5462C47.1293 26.4366 47.1189 26.3251 47.0836 26.2201H47.0888L43.3489 14.4701C43.3017 14.3204 43.2068 14.1894 43.0783 14.0964C42.9498 14.0034 42.7943 13.9532 42.6346 13.9531C36.61 13.9473 30.6431 15.1061 25.0744 17.3636L9.87332 23.5103C9.32206 23.2995 8.77081 23.088 8.22778 22.8493V15.4219H11.9677C12.166 15.4219 12.3563 15.3445 12.4965 15.2068C12.6368 15.0691 12.7156 14.8823 12.7156 14.6875V5.875C12.7156 5.68023 12.6368 5.49344 12.4965 5.35572C12.3563 5.218 12.166 5.14062 11.9677 5.14062H2.99196C2.79358 5.14062 2.60333 5.218 2.46306 5.35572C2.32279 5.49344 2.24398 5.68023 2.24398 5.875V14.6875C2.24398 14.8823 2.32279 15.0691 2.46306 15.2068C2.60333 15.3445 2.79358 15.4219 2.99196 15.4219H6.73183V22.1194C5.85146 21.6736 4.98306 21.2029 4.14159 20.6771C4.05011 20.6199 3.94707 20.583 3.83961 20.5688C3.73214 20.5547 3.62283 20.5636 3.51924 20.595C3.41564 20.6265 3.32025 20.6797 3.23967 20.7509C3.15908 20.8221 3.09523 20.9097 3.05254 21.0075L0.808619 26.1482C0.753863 26.2735 0.735733 26.4113 0.756261 26.5462ZM6.73183 9.54688H8.22778V11.0156H6.73183V9.54688ZM5.23588 11.0156H3.73993V9.54688H5.23588V11.0156ZM6.73183 8.07812V6.60938H8.22778V8.07812H6.73183ZM9.72373 9.54688H11.2197V11.0156H9.72373V9.54688ZM8.22778 12.4844V13.9531H6.73183V12.4844H8.22778ZM9.72373 13.9531V12.4844H11.2197V13.9531H9.72373ZM11.2197 8.07812H9.72373V6.60938H11.2197V8.07812ZM5.23588 6.60938V8.07812H3.73993V6.60938H5.23588ZM3.73993 12.4844H5.23588V13.9531H3.73993V12.4844ZM2.42873 27.5934C4.15007 28.2553 5.8921 28.835 7.65483 29.3324L7.90615 34.5156H3.48637L2.42873 27.5934ZM39.8933 35.9844H42.4244L41.3025 40.3906H39.6794L39.8933 35.9844ZM38.1812 40.3906H35.1893L35.6784 30.4112C36.6922 30.2095 37.7 29.9801 38.7018 29.7231L38.1812 40.3906ZM33.6933 40.3906H29.919V35.25C29.919 35.0552 29.8402 34.8684 29.7 34.7307C29.5597 34.593 29.3694 34.5156 29.1711 34.5156H18.6994C18.501 34.5156 18.3108 34.593 18.1705 34.7307C18.0303 34.8684 17.9514 35.0552 17.9514 35.25V40.3906H14.1772L13.7067 30.6969C17.0817 31.2818 20.5021 31.5766 23.9293 31.5781H23.9412C27.3684 31.5766 30.7888 31.2818 34.1638 30.6969L33.6933 40.3906ZM24.6832 35.9844H28.4231V40.3906H24.6832V35.9844ZM23.1873 40.3906H19.4474V35.9844H23.1873V40.3906ZM12.192 30.4112L12.679 40.3906H9.68708L9.16948 29.7231C10.1733 29.9782 11.1808 30.2075 12.192 30.4112ZM8.19113 40.3906H6.56802L5.44606 35.9844H7.97721L8.19113 40.3906ZM2.45416 35.9844H3.90374L5.0257 40.3906H3.57612L2.45416 35.9844ZM44.2944 40.3906H42.8448L43.9667 35.9844H45.4163L44.2944 40.3906ZM39.9643 34.5156L40.2157 29.3324C41.9779 28.8345 43.7199 28.2548 45.4418 27.5934L44.3841 34.5156H39.9643ZM25.6444 18.7222C30.7903 16.6371 36.2898 15.5212 41.856 15.4329C41.8163 15.9315 41.7357 16.4261 41.6151 16.9119C36.3262 17.0265 31.1045 18.1006 26.2136 20.08L14.3612 24.8703C13.5638 24.6897 12.7747 24.4775 11.9938 24.2388L25.6444 18.7222ZM41.1028 18.3976C40.5645 19.6152 39.7657 20.7049 38.7605 21.5926C37.7554 22.4804 36.5676 23.1454 35.2775 23.5426L34.5879 23.7556C30.4255 25.0472 26.0858 25.704 21.7205 25.7031C20.1567 25.7028 18.595 25.5929 17.0471 25.3741L26.7835 21.4379C31.3347 19.5973 36.1836 18.5677 41.1028 18.3976ZM4.08475 22.3698C9.40941 25.5148 15.5066 27.175 21.7205 27.1719C26.2386 27.1728 30.7301 26.493 35.0382 25.156L35.7278 24.943C37.4094 24.4261 38.9384 23.5167 40.1837 22.2927C41.429 21.0687 42.3537 19.5666 42.8784 17.9151L45.4537 26.0079L45.2944 26.0703C38.5048 28.7442 31.256 30.1153 23.9405 30.1094C23.9368 30.1086 23.933 30.1086 23.9293 30.1094C16.6141 30.1146 9.36568 28.7435 2.57608 26.0703L2.48558 26.0343L4.08475 22.3698Z" fill="#001E62"/>
</g>
<defs>
<clipPath id="clip0_1_29596">
<rect width="47.8704" height="47" fill="white"/>
</clipPath>
</defs>
</svg>
