<svg width="54" height="54" viewBox="0 0 54 54" fill="none" xmlns="http://www.w3.org/2000/svg">
<path d="M42.3679 39.6296C42.7757 39.6296 43.1062 39.299 43.1062 38.8913C43.1062 38.4835 42.7757 38.153 42.3679 38.153C41.9602 38.153 41.6296 38.4835 41.6296 38.8913C41.6296 39.299 41.9602 39.6296 42.3679 39.6296Z" fill="black"/>
<path d="M42.3679 37.0983C42.7757 37.0983 43.1062 36.7678 43.1062 36.36C43.1062 35.9523 42.7757 35.6217 42.3679 35.6217C41.9602 35.6217 41.6296 35.9523 41.6296 36.36C41.6296 36.7678 41.9602 37.0983 42.3679 37.0983Z" fill="black"/>
<path d="M42.3679 42.3717C42.7757 42.3717 43.1062 42.0412 43.1062 41.6335C43.1062 41.2257 42.7757 40.8952 42.3679 40.8952C41.9602 40.8952 41.6296 41.2257 41.6296 41.6335C41.6296 42.0412 41.9602 42.3717 42.3679 42.3717Z" fill="black"/>
<path d="M44.8992 39.6296C45.3069 39.6296 45.6375 39.299 45.6375 38.8913C45.6375 38.4835 45.3069 38.153 44.8992 38.153C44.4914 38.153 44.1609 38.4835 44.1609 38.8913C44.1609 39.299 44.4914 39.6296 44.8992 39.6296Z" fill="black"/>
<path d="M44.8992 37.0983C45.3069 37.0983 45.6375 36.7678 45.6375 36.36C45.6375 35.9523 45.3069 35.6217 44.8992 35.6217C44.4914 35.6217 44.1609 35.9523 44.1609 36.36C44.1609 36.7678 44.4914 37.0983 44.8992 37.0983Z" fill="black"/>
<path d="M44.8992 42.3717C45.3069 42.3717 45.6375 42.0412 45.6375 41.6335C45.6375 41.2257 45.3069 40.8952 44.8992 40.8952C44.4914 40.8952 44.1609 41.2257 44.1609 41.6335C44.1609 42.0412 44.4914 42.3717 44.8992 42.3717Z" fill="black"/>
<path d="M42.3679 33.9342C42.7757 33.9342 43.1062 33.6037 43.1062 33.196C43.1062 32.7882 42.7757 32.4577 42.3679 32.4577C41.9602 32.4577 41.6296 32.7882 41.6296 33.196C41.6296 33.6037 41.9602 33.9342 42.3679 33.9342Z" fill="black"/>
<path d="M51.6552 4.87824H2.34478C1.86293 4.87877 1.40097 5.07042 1.06024 5.41114C0.719524 5.75186 0.527874 6.21383 0.527344 6.69568V36.7559C0.527874 37.2377 0.719524 37.6997 1.06024 38.0404C1.40097 38.3811 1.86293 38.5728 2.34478 38.5733H19.8517V42.3491H17.263C17.0952 42.3491 16.9342 42.4157 16.8156 42.5344C16.6969 42.6531 16.6302 42.8141 16.6302 42.9819C16.6302 43.1497 16.6969 43.3107 16.8156 43.4294C16.9342 43.548 17.0952 43.6147 17.263 43.6147H36.737C36.9048 43.6147 37.0658 43.548 37.1844 43.4294C37.3031 43.3107 37.3698 43.1497 37.3698 42.9819C37.3698 42.8141 37.3031 42.6531 37.1844 42.5344C37.0658 42.4157 36.9048 42.3491 36.737 42.3491H34.1483V38.5733H39.8366V45.325C39.8366 46.332 40.2366 47.2977 40.9487 48.0098C41.6607 48.7218 42.6265 49.1219 43.6335 49.1219C44.6405 49.1219 45.6062 48.7218 46.3183 48.0098C47.0303 47.2977 47.4304 46.332 47.4304 45.325V38.5732H51.6552C52.1371 38.5727 52.599 38.381 52.9397 38.0403C53.2804 37.6996 53.4721 37.2377 53.4727 36.7559V6.69568C53.4721 6.21383 53.2805 5.75186 52.9398 5.41114C52.599 5.07042 52.1371 4.87877 51.6552 4.87824ZM32.8826 42.3489H21.1174V38.5731H32.8826V42.3489ZM46.1647 44.6921H45.4175C45.2496 44.6921 45.0887 44.7587 44.97 44.8774C44.8513 44.9961 44.7847 45.157 44.7847 45.3249C44.7847 45.4927 44.8513 45.6537 44.97 45.7723C45.0887 45.891 45.2496 45.9577 45.4175 45.9577H46.0846C45.9444 46.5012 45.6276 46.9828 45.1839 47.3266C44.7402 47.6704 44.1948 47.857 43.6335 47.857C43.0722 47.857 42.5268 47.6704 42.0831 47.3266C41.6394 46.9828 41.3225 46.5012 41.1824 45.9577H46.2963C46.4641 45.9577 46.6251 45.891 46.7438 45.7723C46.8624 45.6537 46.9291 45.4927 46.9291 45.3249C46.9291 45.157 46.8624 44.9961 46.7438 44.8774C46.6251 44.7587 46.4641 44.6921 46.2963 44.6921H41.1025V31.6139C41.1025 31.502 41.147 31.3947 41.2261 31.3156C41.3052 31.2365 41.4125 31.1921 41.5244 31.1921H45.7432C45.8551 31.1921 45.9624 31.2365 46.0415 31.3156C46.1206 31.3947 46.165 31.502 46.165 31.6139L46.1647 44.6921ZM52.207 36.7559C52.2069 36.9022 52.1487 37.0424 52.0452 37.1459C51.9418 37.2493 51.8015 37.3075 51.6552 37.3077H47.4304V35.019H49.2855C49.4534 35.019 49.6143 34.9523 49.733 34.8336C49.8517 34.715 49.9184 34.554 49.9184 34.3862V9.06493C49.9184 8.8971 49.8517 8.73614 49.733 8.61746C49.6143 8.49879 49.4534 8.43212 49.2855 8.43212H7.4383C7.27047 8.43212 7.10951 8.49879 6.99083 8.61746C6.87216 8.73614 6.80549 8.8971 6.80549 9.06493C6.80549 9.23276 6.87216 9.39372 6.99083 9.5124C7.10951 9.63107 7.27047 9.69774 7.4383 9.69774H48.6527V33.7537H47.4304V31.6139C47.4298 31.1665 47.2519 30.7376 46.9355 30.4213C46.6192 30.1049 46.1902 29.927 45.7429 29.9264H41.5241C41.0767 29.927 40.6478 30.1049 40.3314 30.4213C40.0151 30.7376 39.8371 31.1665 39.8366 31.6139V33.7537H5.34727V9.69774H9.21955C9.38738 9.69774 9.54834 9.63107 9.66702 9.5124C9.78569 9.39372 9.85236 9.23276 9.85236 9.06493C9.85236 8.8971 9.78569 8.73614 9.66702 8.61746C9.54834 8.49879 9.38738 8.43212 9.21955 8.43212H4.71445C4.54662 8.43212 4.38566 8.49879 4.26699 8.61746C4.14831 8.73614 4.08164 8.8971 4.08164 9.06493V34.3865C4.08164 34.5543 4.14831 34.7153 4.26699 34.834C4.38566 34.9526 4.54662 35.0193 4.71445 35.0193H39.8366V37.308H2.34478C2.19843 37.3078 2.05812 37.2496 1.95466 37.1461C1.85121 37.0425 1.79305 36.9022 1.79297 36.7559V6.69568C1.79314 6.54938 1.85133 6.40912 1.95478 6.30567C2.05822 6.20223 2.19848 6.14403 2.34478 6.14387H51.6552C51.8015 6.14403 51.9418 6.20223 52.0452 6.30567C52.1487 6.40912 52.2069 6.54938 52.207 6.69568V36.7559Z" fill="#001E62"/>
<path d="M32.0979 25.4015C31.9644 25.2998 31.796 25.2552 31.6297 25.2777C31.4634 25.3001 31.3128 25.3877 31.211 25.5212C31.0424 25.7421 30.857 25.9495 30.6563 26.1416C30.535 26.2577 30.4648 26.4172 30.4611 26.585C30.4574 26.7529 30.5206 26.9153 30.6366 27.0366C30.7527 27.1579 30.9122 27.2281 31.0801 27.2318C31.2479 27.2354 31.4104 27.1723 31.5317 27.0562C31.7801 26.8185 32.0096 26.5618 32.218 26.2884C32.2684 26.2223 32.3052 26.1469 32.3264 26.0665C32.3477 25.9862 32.3528 25.9024 32.3417 25.8201C32.3305 25.7377 32.3033 25.6584 32.2614 25.5866C32.2196 25.5147 32.164 25.4519 32.0979 25.4015Z" fill="#001E62"/>
<path d="M27 28.8741C27.6399 28.8745 28.2764 28.7813 28.8893 28.5974C28.9695 28.5741 29.0443 28.5351 29.1094 28.4826C29.1745 28.4302 29.2285 28.3654 29.2684 28.292C29.3083 28.2186 29.3333 28.138 29.3419 28.0549C29.3505 27.9718 29.3425 27.8878 29.3185 27.8077C29.2944 27.7277 29.2548 27.6532 29.2018 27.5886C29.1488 27.524 29.0836 27.4705 29.0098 27.4312C28.936 27.392 28.8552 27.3677 28.772 27.3598C28.6888 27.352 28.6049 27.3607 28.5251 27.3854C27.4047 27.7216 26.2044 27.6766 25.1123 27.2573C24.0203 26.8381 23.0982 26.0683 22.4907 25.0686C21.8832 24.069 21.6246 22.896 21.7554 21.7336C21.8862 20.5711 22.399 19.4849 23.2135 18.6453C24.028 17.8057 25.0981 17.26 26.256 17.094C27.4139 16.9279 28.5942 17.1507 29.6119 17.7275C30.6295 18.3044 31.427 19.2026 31.8793 20.2814C32.3316 21.3602 32.4131 22.5586 32.111 23.6887C32.0696 23.8502 32.0936 24.0215 32.1778 24.1653C32.262 24.3092 32.3995 24.4141 32.5605 24.4572C32.7216 24.5002 32.8931 24.478 33.0379 24.3953C33.1826 24.3127 33.2889 24.1762 33.3336 24.0157C33.6885 22.6924 33.62 21.2912 33.1376 20.0089C32.6553 18.7266 31.7834 17.6276 30.6444 16.8662C29.5054 16.1048 28.1565 15.7194 26.7872 15.764C25.4179 15.8086 24.097 16.281 23.0099 17.1148C21.9229 17.9487 21.1243 19.1021 20.7264 20.4131C20.3286 21.7241 20.3513 23.1268 20.7916 24.4241C21.2318 25.7215 22.0673 26.8484 23.1809 27.6465C24.2944 28.4447 25.63 28.874 27 28.8741Z" fill="#001E62"/>
<path d="M32.6792 19.0394C32.3596 18.485 31.9607 17.9804 31.495 17.5416C31.4346 17.4838 31.3634 17.4385 31.2855 17.4084C31.2076 17.3782 31.1244 17.3638 31.0409 17.366C30.9574 17.3681 30.8751 17.3868 30.7988 17.4209C30.7225 17.455 30.6538 17.5039 30.5965 17.5648C30.5392 17.6256 30.4945 17.6972 30.4651 17.7754C30.4356 17.8536 30.4219 17.9368 30.4248 18.0203C30.4276 18.1039 30.447 18.186 30.4818 18.2619C30.5166 18.3379 30.5661 18.4063 30.6274 18.463C31.4788 19.2652 32.0399 20.3272 32.2229 21.4826C32.4058 22.638 32.2002 23.8214 31.6382 24.8473C31.0762 25.8733 30.1897 26.6838 29.1176 27.1517C28.0455 27.6196 26.8485 27.7186 25.7141 27.433C24.5797 27.1475 23.5721 26.4936 22.8493 25.5739C22.1265 24.6541 21.7294 23.5205 21.7201 22.3508C21.7108 21.181 22.09 20.0413 22.7981 19.1102C23.5062 18.1791 24.5033 17.5093 25.633 17.2059C25.7935 17.161 25.9299 17.0545 26.0124 16.9097C26.0949 16.7649 26.117 16.5933 26.0738 16.4323C26.0305 16.2713 25.9255 16.1339 25.7816 16.0499C25.6376 15.9659 25.4663 15.942 25.3049 15.9836C23.9814 16.3379 22.8022 17.0978 21.9329 18.1567C21.0635 19.2156 20.5477 20.5202 20.4579 21.8873C20.368 23.2544 20.7086 24.6152 21.4319 25.7788C22.1552 26.9424 23.2248 27.8501 24.4904 28.3746C25.7561 28.8991 27.1543 29.0139 28.4885 28.703C29.8228 28.3921 31.0262 27.671 31.9297 26.6411C32.8331 25.6112 33.3912 24.3241 33.5257 22.9607C33.6601 21.5973 33.3641 20.226 32.6792 19.0394Z" fill="#001E62"/>
<path d="M29.9741 21.8118L26.5894 19.2733C26.4954 19.2027 26.3836 19.1598 26.2665 19.1493C26.1495 19.1387 26.0318 19.1609 25.9267 19.2135C25.8216 19.2661 25.7332 19.3469 25.6714 19.4468C25.6096 19.5468 25.5769 19.662 25.5769 19.7795V24.8566C25.5769 24.9741 25.6096 25.0893 25.6714 25.1893C25.7332 25.2892 25.8216 25.37 25.9267 25.4226C26.0318 25.4751 26.1495 25.4974 26.2665 25.4868C26.3836 25.4763 26.4954 25.4333 26.5894 25.3628L29.9741 22.8243C30.0527 22.7653 30.1165 22.6889 30.1604 22.601C30.2044 22.5132 30.2272 22.4163 30.2272 22.318C30.2272 22.2198 30.2044 22.1229 30.1604 22.035C30.1165 21.9472 30.0527 21.8707 29.9741 21.8118ZM26.8426 23.5909V21.0451L28.5397 22.318L26.8426 23.5909Z" fill="#001E62"/>
</svg>
