<svg width="53" height="53" viewBox="0 0 53 53" fill="none" xmlns="http://www.w3.org/2000/svg">
<g clip-path="url(#clip0_1_9446)">
<path d="M52.959 47.873C52.826 47.5406 52.4272 47.3411 52.0948 47.4741L48.239 48.8701L43.0536 34.6436C45.9122 32.7157 45.9122 25.4695 42.9871 17.3591C42.0564 14.8994 39.5967 8.84977 38.3336 6.65597C38.2006 6.39005 37.8018 6.25709 37.5359 6.39005L27.8299 9.91344C27.4975 10.0464 27.3646 10.3123 27.431 10.6447C27.8964 13.1709 29.8908 19.4199 30.755 21.8797C32.2175 25.8684 34.2119 29.4583 36.2728 31.918C38.1342 34.0453 39.9291 35.1755 41.4581 35.1755C41.5911 35.1755 41.724 35.1755 41.7905 35.1755L46.9759 49.402L42.9207 50.798C42.5883 50.931 42.3888 51.3299 42.5218 51.6623C42.5883 51.9282 42.8542 52.1276 43.1201 52.1276C43.1866 52.1276 43.2531 52.1276 43.3195 52.0611L52.4936 48.7372C52.8925 48.6042 53.0919 48.2053 52.959 47.873ZM28.8271 10.9771L37.4694 7.85259C38.5995 9.97992 40.3945 14.2346 41.3252 16.7608C40.9928 17.1597 40.5939 17.5585 39.7961 17.8244C38.666 18.2233 37.8683 18.0239 37.004 17.6915C36.0068 17.3591 34.9432 17.0267 33.3477 17.625C32.284 17.9574 31.6857 18.5557 31.2204 19.154C30.3561 16.5613 29.226 12.9715 28.8271 10.9771ZM41.99 33.7129C40.7933 34.1118 39.0649 33.1811 37.2699 30.9873C35.2756 28.6605 33.4142 25.2036 31.9516 21.3478C31.8851 21.1484 31.8187 20.949 31.6857 20.683C32.2175 19.8853 32.6164 19.2205 33.7466 18.8216C34.8767 18.4228 35.6744 18.6222 36.5387 18.9546C37.5359 19.287 38.5995 19.6194 40.195 19.0211C40.8598 18.7551 41.3916 18.4228 41.724 18.0904C44.7821 26.2673 44.3167 32.8487 41.99 33.7129Z" fill="#001E62"/>
<path d="M25.1708 9.84691L15.4648 6.32352C15.1324 6.19056 14.8 6.32352 14.6671 6.58944C13.3375 8.84972 10.8778 14.8328 10.0136 17.2926C7.08848 25.403 7.08848 32.6492 9.94708 34.5771L4.76172 48.8036L0.905935 47.4075C0.57354 47.2746 0.174666 47.474 0.0417076 47.8064C-0.0912504 48.1388 0.108187 48.5377 0.440582 48.6706L9.68116 52.0611C9.74764 52.0611 9.81412 52.1276 9.8806 52.1276C10.1465 52.1276 10.4124 51.9281 10.4789 51.6622C10.6119 51.3298 10.4124 50.9309 10.08 50.798L6.02482 49.3354L11.2102 35.1089C11.3431 35.1089 11.4761 35.1089 11.5426 35.1089C13.0716 35.1089 14.8665 33.9788 16.7279 31.8515C18.8553 29.3917 20.7832 25.8019 22.2457 21.8131C23.1764 19.3534 25.1043 13.1709 25.5696 10.5782C25.7026 10.3123 25.5032 9.97987 25.1708 9.84691ZM21.0491 21.3478C19.653 25.2036 17.7916 28.6605 15.7308 30.9872C13.8693 33.1146 12.1409 34.1117 11.0107 33.7129C8.75046 32.9151 8.2851 26.2672 11.1437 18.1568C11.5426 18.4892 12.0079 18.8216 12.6727 19.0875C14.2682 19.6858 15.3319 19.2869 16.3291 19.021C17.1933 18.7551 17.991 18.4892 19.1212 18.8881C20.2513 19.2869 20.7167 19.9517 21.182 20.7495C21.182 20.9489 21.1156 21.1483 21.0491 21.3478ZM21.7803 19.154C21.315 18.5557 20.7167 17.9573 19.653 17.5585C18.0575 16.9602 16.9939 17.359 15.9967 17.625C15.1324 17.8909 14.3347 18.1568 13.2046 17.7579C12.4733 17.492 12.0079 17.0931 11.6755 16.6942C12.6727 14.1016 14.4012 9.91339 15.5313 7.78606L24.1736 10.9106C23.7747 12.9714 22.7111 16.4948 21.7803 19.154Z" fill="#001E62"/>
<path d="M26.3674 0.872314C25.9685 0.872314 25.7026 1.13823 25.7026 1.5371L25.6361 4.99401C25.6361 5.39289 25.902 5.6588 26.3009 5.6588C26.6333 5.6588 26.9657 5.39289 26.9657 4.99401L27.0322 1.5371C27.0322 1.20471 26.7663 0.872314 26.3674 0.872314Z" fill="#001E62"/>
<path d="M32.417 1.73653C32.1511 1.53709 31.6857 1.67005 31.4863 1.93597L29.6913 4.92752C29.4919 5.3264 29.5584 5.72527 29.8908 5.92471C30.0237 5.99119 30.0902 5.99118 30.2232 5.99118C30.4226 5.99118 30.6885 5.85823 30.8215 5.65879L32.6164 2.66723C32.8159 2.33484 32.6829 1.93597 32.417 1.73653Z" fill="#001E62"/>
<path d="M22.9769 4.99397L21.1155 2.00242C20.9161 1.67002 20.5172 1.60354 20.1848 1.80298C19.8524 2.00242 19.7859 2.40129 19.9854 2.73369L21.9132 5.72524C22.0462 5.92468 22.2456 6.05764 22.4451 6.05764C22.578 6.05764 22.711 6.05764 22.7775 5.92468C23.1099 5.72524 23.1763 5.32637 22.9769 4.99397Z" fill="#001E62"/>
</g>
<defs>
<clipPath id="clip0_1_9446">
<rect width="53" height="53" fill="white"/>
</clipPath>
</defs>
</svg>
