<svg width="60" height="60" viewBox="0 0 60 60" fill="none" xmlns="http://www.w3.org/2000/svg">
<path d="M55.1478 11.6842H33.5098L29.1995 6.57948C29.0573 6.41076 28.8476 6.31378 28.6268 6.3147H11.1823C8.50246 6.3147 6.33005 8.48712 6.33005 11.1669V12.5832H4.85222C2.17488 12.5832 0.0033867 14.7519 0 17.4292V48.8332C0 51.513 2.17241 53.6854 4.85222 53.6854H48.8177C51.4975 53.6854 53.67 51.513 53.67 48.8332V47.4169H55.1478C57.8276 47.4169 60 45.2445 60 42.5647V16.5364C60 13.8566 57.8276 11.6842 55.1478 11.6842ZM52.1675 45.9576V48.864C52.1641 50.716 50.6636 52.2165 48.8116 52.2199H4.85222C3.00015 52.2165 1.49969 50.716 1.49631 48.864V17.46C1.49969 15.608 3.00015 14.1075 4.85222 14.1041H21.9951L26.3054 19.2088C26.4477 19.3775 26.6573 19.4745 26.8781 19.4736H48.8608C50.6841 19.5036 52.151 20.9814 52.1675 22.8049V45.9576ZM58.4975 42.6016C58.4941 44.4537 56.9937 45.9542 55.1416 45.9576H53.6638V22.8049C53.6638 20.125 51.4914 17.9526 48.8116 17.9526H27.1798L22.8695 12.848C22.7272 12.6792 22.5175 12.5823 22.2968 12.5832H7.83251V11.1669C7.8359 9.31486 9.33636 7.8144 11.1884 7.81101H28.3067L32.617 12.9157C32.7592 13.0844 32.9689 13.1814 33.1897 13.1805H55.1724C57.0245 13.1839 58.5249 14.6843 58.5283 16.5364L58.4975 42.6016Z" fill="#E20072"/>
</svg>
