<svg width="55" height="55" viewBox="0 0 55 55" fill="none" xmlns="http://www.w3.org/2000/svg">
<g clip-path="url(#clip0_1_9462)">
<path d="M54.4178 23.357L50.1299 22.3622C49.5488 19.801 48.5329 17.3584 47.1264 15.1405L49.4622 11.3936C49.5521 11.2495 49.5905 11.0791 49.5712 10.9104C49.552 10.7416 49.4761 10.5843 49.3561 10.4642L44.535 5.64309C44.4149 5.52288 44.2576 5.44691 44.0889 5.42756C43.9201 5.40821 43.7497 5.44662 43.6055 5.53652L39.8578 7.87187C37.64 6.46557 35.1975 5.44984 32.6365 4.86879L31.6413 0.580937C31.6027 0.415695 31.5094 0.268363 31.3765 0.162892C31.2435 0.0574219 31.0788 1.36567e-05 30.9091 0L24.0909 0C23.9213 0.000469009 23.7569 0.0582388 23.6243 0.163931C23.4916 0.269623 23.3987 0.417032 23.3604 0.582227L22.3652 4.87008C19.8037 5.45054 17.3606 6.46585 15.1422 7.87187L11.3945 5.53652C11.2503 5.44662 11.0799 5.40821 10.9111 5.42756C10.7424 5.44691 10.5851 5.52288 10.465 5.64309L5.64395 10.4642C5.52388 10.5843 5.44803 10.7416 5.42876 10.9104C5.40949 11.0791 5.44793 11.2495 5.53781 11.3936L7.87359 15.1405C6.46705 17.3584 5.45117 19.801 4.87008 22.3622L0.581797 23.357C0.416288 23.3955 0.268697 23.4889 0.163055 23.622C0.0574128 23.7551 -5.81026e-05 23.9201 4.40794e-08 24.09V30.9079C0.000523019 31.0773 0.0582596 31.2417 0.163855 31.3743C0.269451 31.5068 0.416718 31.5999 0.581797 31.6383L4.87008 32.633C5.45117 35.1943 6.46705 37.6369 7.87359 39.8548L5.53781 43.6017C5.44797 43.7459 5.40956 43.9163 5.42883 44.0851C5.4481 44.2539 5.52391 44.4113 5.64395 44.5315L10.465 49.3522C10.5851 49.4724 10.7424 49.5484 10.9111 49.5677C11.0799 49.5871 11.2503 49.5487 11.3945 49.4587L15.1422 47.1234C17.3599 48.5299 19.8024 49.5456 22.3635 50.1265L23.3587 54.4148C23.397 54.5799 23.4901 54.7272 23.6226 54.8328C23.7552 54.9384 23.9196 54.9961 24.0891 54.9966H30.9091C31.0787 54.9961 31.243 54.9384 31.3756 54.8328C31.5082 54.7272 31.6013 54.5799 31.6396 54.4148L32.6348 50.1265C35.1959 49.5456 37.6384 48.5299 39.8561 47.1234L43.6038 49.4587C43.748 49.5487 43.9183 49.5871 44.0871 49.5677C44.2559 49.5484 44.4132 49.4724 44.5332 49.3522L49.3543 44.5315C49.4744 44.4113 49.5502 44.2539 49.5695 44.0851C49.5887 43.9163 49.5503 43.7459 49.4605 43.6017L47.1247 39.8548C48.5312 37.6369 49.5471 35.1943 50.1282 32.633L54.4161 31.6383C54.5812 31.5999 54.7285 31.5069 54.8342 31.3743C54.9398 31.2417 54.9977 31.0774 54.9983 30.9079V24.09C54.9983 23.9203 54.941 23.7555 54.8356 23.6224C54.7303 23.4894 54.583 23.3958 54.4178 23.357ZM53.4961 30.3102L49.3255 31.2778C49.1853 31.3103 49.0573 31.3825 48.9569 31.4856C48.8564 31.5887 48.7876 31.7185 48.7588 31.8596C48.2044 34.5633 47.135 37.135 45.6087 39.4346C45.5292 39.5547 45.4859 39.6951 45.484 39.8392C45.482 39.9832 45.5214 40.1248 45.5976 40.2471L47.8702 43.8926L43.8939 47.8685L40.2484 45.5963C40.1261 45.5202 39.9845 45.4808 39.8405 45.4828C39.6965 45.4848 39.556 45.5281 39.4359 45.6075C37.1366 47.1341 34.5647 48.2036 31.8609 48.7575C31.7198 48.7864 31.59 48.8551 31.4869 48.9556C31.3838 49.056 31.3116 49.184 31.2791 49.3243L30.3114 53.4961H24.6886L23.7209 49.3255C23.6883 49.1853 23.6161 49.0574 23.513 48.957C23.4099 48.8565 23.2801 48.7877 23.1391 48.7588C20.4353 48.205 17.8634 47.1355 15.5641 45.6087C15.444 45.5293 15.3035 45.4861 15.1595 45.4841C15.0155 45.4821 14.8739 45.5215 14.7516 45.5976L11.1061 47.8672L7.12981 43.8913L9.40242 40.2458C9.47859 40.1235 9.51803 39.982 9.51605 39.8379C9.51407 39.6939 9.47075 39.5534 9.39125 39.4333C7.86484 37.1338 6.79537 34.5621 6.24121 31.8583C6.21236 31.7173 6.14361 31.5875 6.04314 31.4843C5.94267 31.3812 5.81471 31.3091 5.67445 31.2765L1.50391 30.3102V24.6873L5.67445 23.7187C5.81468 23.6863 5.94263 23.6142 6.0431 23.5112C6.14357 23.4081 6.21233 23.2784 6.24121 23.1374C6.79529 20.4335 7.86476 17.8615 9.39125 15.562C9.47075 15.4419 9.51407 15.3014 9.51605 15.1574C9.51803 15.0133 9.47859 14.8717 9.40242 14.7495L7.12981 11.104L11.1061 7.12809L14.7516 9.40027C14.8739 9.47644 15.0155 9.51588 15.1595 9.5139C15.3036 9.51192 15.444 9.4686 15.5641 9.3891C17.8634 7.86237 20.4353 6.79287 23.1391 6.23906C23.2802 6.21008 23.41 6.14123 23.5131 6.0407C23.6162 5.94017 23.6883 5.81216 23.7209 5.67187L24.6886 1.50391H30.3114L31.2813 5.67187C31.3138 5.81213 31.3859 5.94009 31.489 6.04056C31.5922 6.14103 31.722 6.20978 31.863 6.23863C34.5669 6.79252 37.1387 7.86202 39.438 9.38867C39.5581 9.46817 39.6986 9.51149 39.8426 9.51347C39.9867 9.51545 40.1283 9.47601 40.2505 9.39984L43.896 7.12766L47.8723 11.1036L45.5997 14.749C45.5236 14.8713 45.4841 15.0129 45.4861 15.1569C45.4881 15.301 45.5314 15.4414 45.6109 15.5616C47.1372 17.8612 48.2067 20.4331 48.7609 23.137C48.7898 23.278 48.8586 23.4077 48.959 23.5108C49.0595 23.6138 49.1875 23.6859 49.3277 23.7183L53.4982 24.686L53.4961 30.3102Z" fill="#009FDF"/>
<path d="M27.5 12.8906C24.6105 12.8906 21.786 13.7475 19.3835 15.3527C16.981 16.958 15.1085 19.2397 14.0027 21.9092C12.897 24.5787 12.6076 27.5162 13.1713 30.3501C13.7351 33.1841 15.1265 35.7872 17.1696 37.8304C19.2128 39.8735 21.8159 41.265 24.6499 41.8287C27.4838 42.3924 30.4213 42.1031 33.0908 40.9973C35.7603 39.8916 38.042 38.019 39.6473 35.6165C41.2526 33.214 42.1094 30.3895 42.1094 27.5C42.1051 23.6267 40.5645 19.9132 37.8256 17.1744C35.0868 14.4355 31.3733 12.8949 27.5 12.8906ZM27.5 40.6055C24.908 40.6055 22.3742 39.8368 20.219 38.3968C18.0638 36.9568 16.3841 34.91 15.3921 32.5152C14.4002 30.1205 14.1407 27.4855 14.6464 24.9432C15.152 22.401 16.4002 20.0659 18.233 18.233C20.0659 16.4002 22.401 15.152 24.9433 14.6463C27.4855 14.1407 30.1205 14.4002 32.5153 15.3921C34.91 16.384 36.9568 18.0638 38.3968 20.219C39.8369 22.3742 40.6055 24.908 40.6055 27.5C40.6016 30.9746 39.2196 34.3058 36.7627 36.7627C34.3058 39.2196 30.9746 40.6016 27.5 40.6055Z" fill="#009FDF"/>
</g>
<defs>
<clipPath id="clip0_1_9462">
<rect width="55" height="55" fill="white"/>
</clipPath>
</defs>
</svg>
