<svg width="136" height="90" viewBox="0 0 136 90" fill="none" xmlns="http://www.w3.org/2000/svg">
<path d="M0.865572 6.22702C0.438666 6.5774 0.376633 7.20752 0.727018 7.63443L6.43687 14.5913C6.78726 15.0182 7.41738 15.0802 7.84428 14.7298C8.27119 14.3794 8.33322 13.7493 7.98284 13.3224L2.90741 7.13855L9.09126 2.06313C9.51817 1.71274 9.5802 1.08262 9.22982 0.655716C8.87943 0.22881 8.24931 0.166778 7.82241 0.517163L0.865572 6.22702ZM1.40203 7.99519C2.08329 8.06226 2.76153 8.13248 3.43675 8.2058L3.65267 6.21749C2.97079 6.14344 2.28589 6.07253 1.59797 6.00481L1.40203 7.99519ZM7.45205 8.68263C8.79195 8.85548 10.1196 9.0406 11.4352 9.23761L11.7314 7.25966C10.4024 7.06065 9.06127 6.87365 7.70792 6.69907L7.45205 8.68263ZM15.4374 9.87958C16.7661 10.107 18.0821 10.3466 19.3853 10.5979L19.764 8.63406C18.447 8.38011 17.1173 8.13803 15.7748 7.90825L15.4374 9.87958ZM23.3623 11.4092C24.6791 11.6926 25.9825 11.9881 27.2726 12.2951L27.7356 10.3494C26.4315 10.0391 25.1141 9.74045 23.7832 9.45396L23.3623 11.4092ZM31.2121 13.2786C32.5157 13.6194 33.8052 13.972 35.0806 14.3358L35.6293 12.4126C34.3396 12.0447 33.0359 11.6882 31.718 11.3436L31.2121 13.2786ZM38.9701 15.493C40.2588 15.8924 41.5326 16.3032 42.7916 16.7248L43.4267 14.8283C42.1534 14.4019 40.8653 13.9865 39.5621 13.5827L38.9701 15.493ZM46.6185 18.0556C47.8902 18.5143 49.1461 18.984 50.3865 19.4641L51.1084 17.5989C49.8537 17.1133 48.5834 16.6382 47.2972 16.1743L46.6185 18.0556ZM54.1384 20.9667C55.3908 21.4854 56.6265 22.0144 57.8458 22.5532L58.6541 20.7238C57.4207 20.1788 56.1705 19.6436 54.9037 19.1189L54.1384 20.9667ZM61.5104 24.2241C62.741 24.8029 63.9541 25.3913 65.1496 25.9886L66.0435 24.1994C64.8338 23.5951 63.6066 22.9998 62.3615 22.4143L61.5104 24.2241ZM68.7144 27.8223C69.9209 28.4611 71.1086 29.1086 72.2778 29.7639L73.2557 28.0192C72.0727 27.3562 70.8709 26.7011 69.6502 26.0548L68.7144 27.8223ZM75.7657 31.7737C76.9333 32.4651 78.0814 33.164 79.21 33.8693L80.2699 32.1732C79.1279 31.4596 77.9662 30.7524 76.7848 30.0528L75.7657 31.7737ZM82.6137 36.0533C83.744 36.7977 84.8534 37.548 85.9424 38.303L87.0819 36.6594C85.9801 35.8955 84.8575 35.1363 83.7139 34.3831L82.6137 36.0533ZM89.2369 40.6461C90.338 41.4492 91.4166 42.2563 92.4729 43.066L93.6898 41.4788C92.621 40.6594 91.5296 39.8428 90.4155 39.0302L89.2369 40.6461ZM95.6339 45.5495C96.6959 46.4044 97.7336 47.261 98.7472 48.1176L100.038 46.59C99.0126 45.7233 97.9626 44.8567 96.8881 43.9916L95.6339 45.5495ZM101.806 50.7661C102.828 51.672 103.822 52.5762 104.79 53.4771L106.153 52.0129C105.173 51.1014 104.167 50.1865 103.133 49.2699L101.806 50.7661ZM107.7 56.2498C108.68 57.2067 109.631 58.1576 110.552 59.1004L111.982 57.703C111.051 56.749 110.089 55.7867 109.097 54.8184L107.7 56.2498ZM113.344 62.0294C114.284 63.0399 115.189 64.0379 116.059 65.0205L117.556 63.6944C116.675 62.6998 115.759 61.6897 114.808 60.6671L113.344 62.0294ZM118.698 68.0745C119.594 69.1381 120.447 70.1786 121.258 71.1919L122.82 69.9424C121.998 68.9162 121.135 67.8627 120.227 66.7859L118.698 68.0745ZM123.735 74.3716C124.588 75.4964 125.383 76.5771 126.12 77.6068L127.746 76.4423C126.998 75.3981 126.193 74.3029 125.329 73.1632L123.735 74.3716ZM128.417 80.9127C129.254 82.1572 129.986 83.2911 130.615 84.297L132.311 83.2362C131.67 82.2122 130.926 81.0597 130.076 79.7962L128.417 80.9127ZM132.661 87.7163C132.983 88.2828 133.221 88.7197 133.378 89.0131C133.456 89.1599 133.515 89.2707 133.553 89.3441C133.572 89.3807 133.586 89.408 133.595 89.4257C133.599 89.4345 133.602 89.441 133.604 89.445C133.605 89.447 133.606 89.4484 133.607 89.4492C133.607 89.4495 133.607 89.4498 133.607 89.4499C133.607 89.4499 133.607 89.4499 133.607 89.4499C133.607 89.4499 133.607 89.4498 133.607 89.4498C133.607 89.4498 133.607 89.4498 133.607 89.4498C133.607 89.4497 133.607 89.4497 134.5 89C135.393 88.5503 135.393 88.5503 135.393 88.5502C135.393 88.5502 135.393 88.5502 135.393 88.5501C135.393 88.5501 135.393 88.55 135.393 88.5499C135.393 88.5497 135.393 88.5495 135.393 88.5492C135.392 88.5487 135.392 88.548 135.392 88.5472C135.391 88.5455 135.39 88.5432 135.388 88.5403C135.385 88.5346 135.381 88.5264 135.376 88.5158C135.365 88.4946 135.349 88.4637 135.328 88.4235C135.286 88.343 135.224 88.2248 135.142 88.0707C134.977 87.7625 134.731 87.3106 134.4 86.7286L132.661 87.7163Z" fill="#009FDF"/>
</svg>
