<svg width="51" height="51" viewBox="0 0 51 51" fill="none" xmlns="http://www.w3.org/2000/svg">
<path d="M46.5288 22.291C45.7817 22.2888 45.0575 22.5491 44.4827 23.0263C43.9079 23.5036 43.5189 24.1676 43.3836 24.9023H38.7878C38.6385 21.7736 37.3931 18.7971 35.2699 16.4941L38.5289 13.24C39.1757 13.6902 39.9672 13.8831 40.7486 13.781C41.5301 13.6788 42.2454 13.289 42.7547 12.6876C43.2641 12.0862 43.5309 11.3165 43.503 10.5288C43.4752 9.74121 43.1546 8.99228 42.604 8.42839C42.0535 7.86449 41.3124 7.52615 40.5257 7.47949C39.7389 7.43282 38.9631 7.68117 38.3497 8.17602C37.7363 8.67087 37.3295 9.37665 37.2087 10.1555C37.0879 10.9343 37.2618 11.7301 37.6965 12.3875L34.4205 15.6637C32.106 13.5613 29.1226 12.3452 25.998 12.2305V7.63006C26.785 7.50649 27.4976 7.09379 27.9964 6.47267C28.4953 5.85155 28.7445 5.06669 28.6953 4.27157C28.6461 3.47645 28.3021 2.72827 27.7306 2.17333C27.159 1.6184 26.401 1.29663 25.6048 1.27095C24.8086 1.24527 24.0314 1.51753 23.4253 2.03449C22.8191 2.55144 22.4277 3.27591 22.3274 4.0662C22.2271 4.8565 22.4252 5.65579 22.883 6.30776C23.3408 6.95973 24.0253 7.41749 24.8027 7.59152V12.2383C21.7067 12.3991 18.7652 13.6403 16.4898 15.7458L13.2326 12.4886C13.6944 11.8411 13.8982 11.0447 13.804 10.2549C13.7098 9.46519 13.3244 8.73898 12.7232 8.2183C12.122 7.69762 11.3482 7.41992 10.5531 7.43948C9.75803 7.45905 8.99882 7.77448 8.42395 8.3241C7.84908 8.87372 7.49989 9.61801 7.44466 10.4114C7.38943 11.2048 7.63212 11.9903 8.12529 12.6143C8.61846 13.2383 9.32664 13.6559 10.1114 13.7854C10.8961 13.9149 11.7009 13.7471 12.3684 13.3148L15.6477 16.5831C13.5499 18.8995 12.3327 21.8793 12.2086 25.0019H7.63361C7.51057 24.2049 7.09104 23.4838 6.45901 22.9829C5.82697 22.4819 5.02906 22.2382 4.22501 22.3005C3.42095 22.3628 2.67008 22.7264 2.1227 23.3187C1.57532 23.9109 1.27182 24.688 1.27295 25.4945C1.27427 26.3416 1.61191 27.1534 2.21163 27.7516C2.81135 28.3497 3.62407 28.6853 4.47111 28.6844C5.19355 28.6772 5.89279 28.4284 6.45741 27.9777C7.02203 27.5269 7.41954 26.9002 7.58659 26.1973H12.2165C12.3776 29.2887 13.6129 32.2269 15.7092 34.5047L12.471 37.7491C11.8174 37.2861 11.0146 37.0838 10.2196 37.1815C9.42461 37.2792 8.69469 37.67 8.17263 38.2774C7.65056 38.8849 7.37389 39.6652 7.39676 40.4659C7.41963 41.2665 7.74038 42.0298 8.29627 42.6064C8.85216 43.1831 9.60319 43.5316 10.4024 43.5838C11.2017 43.636 11.9917 43.3881 12.6178 42.8886C13.244 42.3892 13.6613 41.6741 13.7881 40.8832C13.9149 40.0923 13.742 39.2826 13.3034 38.6125L16.5564 35.3594C18.8486 37.4512 21.8022 38.6722 24.9023 38.8095V43.3876C24.1201 43.5364 23.4215 43.9717 22.9432 44.6082C22.4649 45.2447 22.2413 46.0368 22.316 46.8295C22.3907 47.6222 22.7585 48.3585 23.3473 48.8945C23.9361 49.4304 24.7037 49.7274 25.4999 49.7274C26.2962 49.7274 27.0637 49.4304 27.6526 48.8945C28.2414 48.3585 28.6092 47.6222 28.6839 46.8295C28.7586 46.0368 28.535 45.2447 28.0566 44.6082C27.5783 43.9717 26.8798 43.5364 26.0976 43.3876V38.8095C29.2244 38.6708 32.2012 37.4299 34.5006 35.3064L37.7419 38.5473C37.2902 39.2005 37.0983 39.9987 37.2039 40.7859C37.3094 41.573 37.7047 42.2925 38.3125 42.8037C38.9203 43.3148 39.6969 43.581 40.4905 43.55C41.284 43.519 42.0375 43.1931 42.6036 42.6361C43.1697 42.0791 43.5077 41.3309 43.5515 40.538C43.5953 39.745 43.3418 38.9642 42.8405 38.3482C42.3392 37.7322 41.6262 37.3254 40.8408 37.2071C40.0555 37.0889 39.2543 37.2679 38.5939 37.709L35.3438 34.4481C37.4299 32.151 38.6481 29.1974 38.7878 26.0976H43.3919C43.5074 26.6929 43.7898 27.243 44.2062 27.6839C44.6225 28.1247 45.1556 28.4381 45.7433 28.5874C46.331 28.7367 46.9491 28.7159 47.5254 28.5273C48.1016 28.3387 48.6124 27.9901 48.9981 27.5222C49.3838 27.0543 49.6285 26.4863 49.7036 25.8846C49.7787 25.2829 49.6812 24.6723 49.4224 24.1239C49.1637 23.5755 48.7543 23.112 48.2421 22.7875C47.7299 22.4629 47.1359 22.2907 46.5296 22.291H46.5288ZM38.9535 9.21385C39.1395 9.02786 39.3603 8.88033 39.6033 8.77967C39.8463 8.67901 40.1068 8.6272 40.3698 8.6272C40.6328 8.6272 40.8933 8.67901 41.1363 8.77967C41.3793 8.88033 41.6001 9.02786 41.7861 9.21385C41.9721 9.39984 42.1196 9.62065 42.2203 9.86366C42.3209 10.1067 42.3727 10.3671 42.3727 10.6301C42.3727 10.8932 42.3209 11.1536 42.2203 11.3966C42.1196 11.6397 41.9721 11.8605 41.7861 12.0464C41.4105 12.4221 40.901 12.6331 40.3698 12.6331C39.8386 12.6331 39.3291 12.4221 38.9535 12.0464C38.5779 11.6708 38.3668 11.1614 38.3668 10.6301C38.3668 10.0989 38.5779 9.58948 38.9535 9.21385ZM23.4972 4.47115C23.4972 4.07505 23.6147 3.68784 23.8347 3.35849C24.0548 3.02914 24.3676 2.77244 24.7335 2.62086C25.0995 2.46927 25.5022 2.42961 25.8907 2.50689C26.2792 2.58416 26.636 2.77491 26.9161 3.055C27.1962 3.33509 27.3869 3.69194 27.4642 4.08044C27.5415 4.46893 27.5018 4.87162 27.3502 5.23757C27.1987 5.60352 26.942 5.91631 26.6126 6.13637C26.2833 6.35644 25.896 6.4739 25.4999 6.4739C24.969 6.47329 24.4599 6.26209 24.0845 5.88664C23.709 5.51118 23.4978 5.00213 23.4972 4.47115ZM9.21381 12.0464C9.02782 11.8605 8.88029 11.6397 8.77963 11.3966C8.67897 11.1536 8.62716 10.8932 8.62716 10.6301C8.62716 10.3671 8.67897 10.1067 8.77963 9.86366C8.88029 9.62065 9.02782 9.39984 9.21381 9.21385C9.3998 9.02786 9.62061 8.88033 9.86361 8.77967C10.1066 8.67901 10.3671 8.6272 10.6301 8.6272C10.8931 8.6272 11.1536 8.67901 11.3966 8.77967C11.6396 8.88033 11.8604 9.02786 12.0464 9.21385C12.422 9.58948 12.6331 10.0989 12.6331 10.6301C12.6331 11.1614 12.422 11.6708 12.0464 12.0464C11.6708 12.4221 11.1613 12.6331 10.6301 12.6331C10.0989 12.6331 9.58944 12.4221 9.21381 12.0464ZM4.47111 27.5027C4.075 27.5027 3.68779 27.3853 3.35844 27.1652C3.02909 26.9451 2.7724 26.6324 2.62081 26.2664C2.46923 25.9005 2.42957 25.4978 2.50685 25.1093C2.58412 24.7208 2.77487 24.3639 3.05496 24.0838C3.33504 23.8037 3.6919 23.613 4.08039 23.5357C4.46889 23.4584 4.87157 23.4981 5.23753 23.6497C5.60348 23.8013 5.91627 24.058 6.13633 24.3873C6.3564 24.7167 6.47386 25.1039 6.47386 25.5C6.47325 26.031 6.26205 26.54 5.8866 26.9155C5.51114 27.2909 5.00209 27.5021 4.47111 27.5027ZM12.0464 41.7861C11.8604 41.9721 11.6396 42.1196 11.3966 42.2203C11.1536 42.321 10.8931 42.3728 10.6301 42.3728C10.3671 42.3728 10.1066 42.321 9.86361 42.2203C9.62061 42.1196 9.3998 41.9721 9.21381 41.7861C9.02782 41.6001 8.88029 41.3793 8.77963 41.1363C8.67897 40.8933 8.62716 40.6329 8.62716 40.3698C8.62716 40.1068 8.67897 39.8463 8.77963 39.6033C8.88029 39.3603 9.02782 39.1395 9.21381 38.9535C9.57855 38.5881 10.0706 38.378 10.5868 38.3672C11.103 38.3565 11.6033 38.546 11.983 38.896C12.0067 38.9349 12.0349 38.9711 12.0669 39.0036C12.0959 39.0327 12.1278 39.0586 12.1621 39.081C12.4853 39.4644 12.6527 39.9551 12.6313 40.456C12.6099 40.9569 12.4012 41.4315 12.0465 41.7859L12.0464 41.7861ZM27.5027 46.5291C27.5031 46.9198 27.3893 47.3021 27.1753 47.6289C26.9612 47.9557 26.6563 48.2127 26.2979 48.3684C25.9396 48.524 25.5436 48.5715 25.1587 48.5049C24.7737 48.4384 24.4166 48.2606 24.1314 47.9937C23.8462 47.7267 23.6453 47.3822 23.5534 47.0025C23.4615 46.6228 23.4827 46.2245 23.6143 45.8567C23.7459 45.4889 23.9823 45.1676 24.2942 44.9324C24.6061 44.6972 24.98 44.5583 25.3699 44.533C25.4555 44.5525 25.5444 44.5525 25.63 44.533C26.1371 44.5662 26.6125 44.7908 26.9602 45.1614C27.3079 45.5319 27.5018 46.0207 27.5027 46.5288V46.5291ZM41.7861 38.9535C41.9721 39.1395 42.1196 39.3603 42.2203 39.6033C42.3209 39.8463 42.3727 40.1068 42.3727 40.3698C42.3727 40.6329 42.3209 40.8933 42.2203 41.1363C42.1196 41.3793 41.9721 41.6001 41.7861 41.7861C41.6001 41.9721 41.3793 42.1196 41.1363 42.2203C40.8933 42.321 40.6328 42.3728 40.3698 42.3728C40.1068 42.3728 39.8463 42.321 39.6033 42.2203C39.3603 42.1196 39.1395 41.9721 38.9535 41.7861C38.5779 41.4105 38.3668 40.901 38.3668 40.3698C38.3668 39.8386 38.5779 39.3292 38.9535 38.9535C39.3291 38.5779 39.8386 38.3669 40.3698 38.3669C40.901 38.3669 41.4105 38.5779 41.7861 38.9535ZM25.4999 37.6282C23.1055 37.6282 20.7649 36.9182 18.774 35.5879C16.7832 34.2577 15.2315 32.3669 14.3152 30.1548C13.3989 27.9427 13.1591 25.5085 13.6262 23.1601C14.0934 20.8117 15.2464 18.6545 16.9395 16.9614C18.6326 15.2683 20.7897 14.1153 23.1381 13.6482C25.4865 13.1811 27.9207 13.4208 30.1328 14.3371C32.345 15.2534 34.2357 16.8051 35.566 18.796C36.8962 20.7869 37.6063 23.1275 37.6063 25.5219C37.6027 28.7316 36.326 31.8088 34.0564 34.0784C31.7868 36.348 28.7096 37.6246 25.4999 37.6282ZM46.5288 27.5027C46.1327 27.5027 45.7455 27.3852 45.4161 27.1652C45.0868 26.9451 44.8301 26.6323 44.6786 26.2663C44.527 25.9004 44.4873 25.4977 44.5646 25.1092C44.6419 24.7207 44.8327 24.3639 45.1128 24.0838C45.3929 23.8037 45.7497 23.613 46.1382 23.5357C46.5267 23.4584 46.9294 23.4981 47.2953 23.6497C47.6613 23.8013 47.974 24.058 48.1941 24.3873C48.4142 24.7167 48.5316 25.1039 48.5316 25.5C48.531 26.031 48.3198 26.5401 47.9444 26.9155C47.5689 27.291 47.0598 27.5022 46.5288 27.5027Z" fill="#001E62"/>
<path d="M25.4639 30.8579C25.9903 30.8583 26.5138 30.7816 27.018 30.6303C27.084 30.6111 27.1455 30.579 27.199 30.5359C27.2526 30.4928 27.297 30.4395 27.3299 30.3791C27.3627 30.3187 27.3832 30.2524 27.3903 30.184C27.3973 30.1157 27.3908 30.0466 27.371 29.9807C27.3512 29.9149 27.3186 29.8536 27.275 29.8005C27.2315 29.7473 27.1778 29.7033 27.1171 29.671C27.0564 29.6387 26.99 29.6188 26.9215 29.6123C26.8531 29.6058 26.7841 29.613 26.7184 29.6333C25.7968 29.9099 24.8094 29.8729 23.9111 29.528C23.0128 29.1831 22.2544 28.5499 21.7546 27.7276C21.2549 26.9053 21.0422 25.9404 21.1498 24.9842C21.2574 24.028 21.6792 23.1346 22.3492 22.4439C23.0192 21.7532 23.8994 21.3044 24.8519 21.1678C25.8044 21.0312 26.7752 21.2145 27.6124 21.689C28.4495 22.1635 29.1054 22.9023 29.4775 23.7897C29.8495 24.6771 29.9166 25.6629 29.6681 26.5925C29.6341 26.7253 29.6538 26.8662 29.7231 26.9846C29.7923 27.1029 29.9054 27.1892 30.0379 27.2246C30.1704 27.26 30.3114 27.2418 30.4305 27.1738C30.5496 27.1058 30.637 26.9935 30.6738 26.8614C30.9657 25.7729 30.9093 24.6204 30.5126 23.5655C30.1158 22.5107 29.3986 21.6067 28.4617 20.9804C27.5248 20.3542 26.4152 20.0371 25.2888 20.0738C24.1625 20.1105 23.0759 20.4991 22.1817 21.185C21.2875 21.8709 20.6307 22.8197 20.3034 23.8981C19.9761 24.9764 19.9948 26.1303 20.3569 27.1975C20.7191 28.2647 21.4064 29.1916 22.3224 29.8481C23.2383 30.5047 24.3369 30.8578 25.4639 30.8579Z" fill="#001E62"/>
<path d="M30.1355 22.7681C29.8727 22.3121 29.5445 21.897 29.1614 21.536C29.1118 21.4885 29.0532 21.4512 28.9891 21.4264C28.925 21.4016 28.8566 21.3898 28.7879 21.3915C28.7192 21.3933 28.6515 21.4087 28.5888 21.4367C28.526 21.4648 28.4695 21.505 28.4223 21.5551C28.3752 21.6051 28.3385 21.664 28.3142 21.7283C28.29 21.7926 28.2787 21.8611 28.2811 21.9298C28.2835 21.9985 28.2994 22.066 28.328 22.1285C28.3566 22.191 28.3973 22.2473 28.4478 22.2939C29.1481 22.9538 29.6097 23.8274 29.7602 24.7778C29.9107 25.7282 29.7415 26.7016 29.2792 27.5456C28.817 28.3895 28.0878 29.0562 27.2059 29.4411C26.324 29.826 25.3393 29.9074 24.4062 29.6725C23.473 29.4376 22.6442 28.8997 22.0497 28.1432C21.4551 27.3866 21.1284 26.4541 21.1208 25.4919C21.1132 24.5297 21.425 23.5922 22.0075 22.8263C22.59 22.0604 23.4102 21.5095 24.3395 21.2598C24.4715 21.2229 24.5837 21.1354 24.6516 21.0162C24.7195 20.8971 24.7376 20.756 24.702 20.6235C24.6665 20.4911 24.5801 20.3781 24.4617 20.3089C24.3433 20.2398 24.2023 20.2202 24.0696 20.2544C22.9809 20.5458 22.011 21.171 21.2958 22.042C20.5807 22.913 20.1564 23.9861 20.0825 25.1107C20.0086 26.2352 20.2888 27.3546 20.8838 28.3118C21.4787 29.2689 22.3585 30.0156 23.3996 30.447C24.4407 30.8784 25.5908 30.9729 26.6884 30.7172C27.786 30.4614 28.7758 29.8683 29.519 29.0211C30.2621 28.1739 30.7213 27.1151 30.8318 25.9936C30.9424 24.8721 30.6989 23.7441 30.1355 22.7681Z" fill="#001E62"/>
<path d="M27.9104 25.0486L25.1262 22.9604C25.0489 22.9024 24.9569 22.8671 24.8606 22.8584C24.7643 22.8497 24.6675 22.868 24.5811 22.9113C24.4946 22.9545 24.4219 23.021 24.3711 23.1032C24.3203 23.1854 24.2933 23.2802 24.2933 23.3769V27.5531C24.2933 27.6498 24.3203 27.7446 24.3711 27.8268C24.4219 27.909 24.4946 27.9755 24.5811 28.0187C24.6675 28.062 24.7643 28.0803 24.8606 28.0716C24.9569 28.0629 25.0489 28.0276 25.1262 27.9696L27.9104 25.8814C27.975 25.833 28.0275 25.7701 28.0636 25.6978C28.0998 25.6255 28.1186 25.5458 28.1186 25.465C28.1186 25.3842 28.0998 25.3045 28.0636 25.2322C28.0275 25.1599 27.975 25.0971 27.9104 25.0486ZM25.3345 26.5121V24.4179L26.7305 25.465L25.3345 26.5121Z" fill="#001E62"/>
</svg>
