<svg width="135" height="90" viewBox="0 0 135 90" fill="none" xmlns="http://www.w3.org/2000/svg">
<path d="M134.634 6.22702C135.061 6.5774 135.123 7.20752 134.773 7.63443L129.063 14.5913C128.713 15.0182 128.083 15.0802 127.656 14.7298C127.229 14.3794 127.167 13.7493 127.517 13.3224L132.593 7.13855L126.409 2.06313C125.982 1.71274 125.92 1.08262 126.27 0.655716C126.621 0.22881 127.251 0.166778 127.678 0.517163L134.634 6.22702ZM134.098 7.99519C133.417 8.06226 132.738 8.13248 132.063 8.2058L131.847 6.21749C132.529 6.14344 133.214 6.07253 133.902 6.00481L134.098 7.99519ZM128.048 8.68263C126.708 8.85548 125.38 9.0406 124.065 9.23761L123.769 7.25966C125.098 7.06065 126.439 6.87365 127.792 6.69907L128.048 8.68263ZM120.063 9.87958C118.734 10.107 117.418 10.3466 116.115 10.5979L115.736 8.63406C117.053 8.38011 118.383 8.13803 119.725 7.90825L120.063 9.87958ZM112.138 11.4092C110.821 11.6926 109.517 11.9881 108.227 12.2951L107.764 10.3494C109.068 10.0391 110.386 9.74045 111.717 9.45396L112.138 11.4092ZM104.288 13.2786C102.984 13.6194 101.695 13.972 100.419 14.3358L99.8707 12.4126C101.16 12.0447 102.464 11.6882 103.782 11.3436L104.288 13.2786ZM96.5299 15.493C95.2412 15.8924 93.9674 16.3032 92.7084 16.7248L92.0733 14.8283C93.3466 14.4019 94.6347 13.9865 95.9379 13.5827L96.5299 15.493ZM88.8815 18.0556C87.6098 18.5143 86.3539 18.984 85.1135 19.4641L84.3916 17.5989C85.6463 17.1133 86.9166 16.6382 88.2028 16.1743L88.8815 18.0556ZM81.3616 20.9667C80.1092 21.4854 78.8735 22.0144 77.6542 22.5532L76.8459 20.7238C78.0793 20.1788 79.3295 19.6436 80.5963 19.1189L81.3616 20.9667ZM73.9896 24.2241C72.759 24.8029 71.5459 25.3913 70.3504 25.9886L69.4565 24.1994C70.6662 23.5951 71.8934 22.9998 73.1385 22.4143L73.9896 24.2241ZM66.7856 27.8223C65.5791 28.4611 64.3914 29.1086 63.2222 29.7639L62.2443 28.0192C63.4273 27.3562 64.6291 26.7011 65.8498 26.0548L66.7856 27.8223ZM59.7343 31.7737C58.5667 32.4651 57.4186 33.164 56.29 33.8693L55.2301 32.1732C56.3721 31.4596 57.5338 30.7524 58.7152 30.0528L59.7343 31.7737ZM52.8863 36.0533C51.756 36.7977 50.6466 37.548 49.5576 38.303L48.4181 36.6594C49.5199 35.8955 50.6425 35.1363 51.7861 34.3831L52.8863 36.0533ZM46.2631 40.6461C45.162 41.4492 44.0834 42.2563 43.0271 43.066L41.8102 41.4788C42.879 40.6594 43.9704 39.8428 45.0845 39.0302L46.2631 40.6461ZM39.8661 45.5495C38.8041 46.4044 37.7664 47.261 36.7528 48.1176L35.4618 46.59C36.4874 45.7233 37.5374 44.8567 38.6119 43.9916L39.8661 45.5495ZM33.6938 50.7661C32.6724 51.672 31.6779 52.5762 30.7097 53.4771L29.3473 52.0129C30.3269 51.1014 31.3333 50.1865 32.3667 49.2699L33.6938 50.7661ZM27.8001 56.2498C26.8196 57.2067 25.8692 58.1576 24.9484 59.1004L23.5176 57.703C24.4493 56.749 25.4111 55.7867 26.4032 54.8184L27.8001 56.2498ZM22.1563 62.0294C21.2162 63.0399 20.3111 64.0379 19.4407 65.0205L17.9436 63.6944C18.8246 62.6998 19.7406 61.6897 20.692 60.6671L22.1563 62.0294ZM16.8021 68.0745C15.906 69.1381 15.0529 70.1786 14.2421 71.1919L12.6805 69.9424C13.5016 68.9162 14.3654 67.8627 15.2726 66.7859L16.8021 68.0745ZM11.7647 74.3716C10.9118 75.4964 10.1172 76.5771 9.37964 77.6068L7.75367 76.4423C8.5015 75.3981 9.30691 74.3029 10.1711 73.1632L11.7647 74.3716ZM7.08333 80.9127C6.24599 82.1572 5.51412 83.2911 4.88473 84.297L3.18926 83.2362C3.82995 82.2122 4.57384 81.0597 5.42395 79.7962L7.08333 80.9127ZM2.83857 87.7163C2.51679 88.2828 2.27868 88.7197 2.1219 89.0131C2.04351 89.1599 1.98545 89.2707 1.94743 89.3441C1.92842 89.3807 1.91442 89.408 1.90539 89.4257C1.90088 89.4345 1.89761 89.441 1.89558 89.445C1.89456 89.447 1.89385 89.4484 1.89346 89.4492C1.89326 89.4495 1.89314 89.4498 1.89309 89.4499C1.89307 89.4499 1.89307 89.4499 1.89308 89.4499C1.89309 89.4499 1.89311 89.4498 1.89312 89.4498C1.89313 89.4498 1.89315 89.4498 1.89315 89.4498C1.89317 89.4497 1.89319 89.4497 1 89C0.106808 88.5503 0.10683 88.5503 0.106853 88.5502C0.106862 88.5502 0.106887 88.5502 0.106905 88.5501C0.106943 88.5501 0.106985 88.55 0.107031 88.5499C0.107125 88.5497 0.107238 88.5495 0.107371 88.5492C0.107636 88.5487 0.107979 88.548 0.108399 88.5472C0.10924 88.5455 0.110392 88.5432 0.111854 88.5403C0.114779 88.5346 0.118949 88.5264 0.124369 88.5158C0.135207 88.4946 0.151044 88.4637 0.171915 88.4235C0.213658 88.343 0.275543 88.2248 0.357867 88.0707C0.522513 87.7625 0.768931 87.3106 1.0995 86.7286L2.83857 87.7163Z" fill="#E20072"/>
</svg>
