<svg width="61" height="61" viewBox="0 0 61 61" fill="none" xmlns="http://www.w3.org/2000/svg">
<path d="M40.3244 9.82385H20.6757C15.2093 9.8501 9.97574 12.04 6.11966 15.9147C2.26359 19.7893 0.0988159 25.0333 0.0988159 30.4998C0.0988159 35.9662 2.26359 41.2102 6.11966 45.0849C9.97574 48.9595 15.2093 51.1494 20.6757 51.1757H40.3244C45.7908 51.1494 51.0243 48.9595 54.8804 45.0849C58.7365 41.2102 60.9012 35.9662 60.9012 30.4998C60.9012 25.0333 58.7365 19.7893 54.8804 15.9147C51.0243 12.04 45.7908 9.8501 40.3244 9.82385ZM38.0059 11.4918V14.5895H35.7027V11.4918H38.0059ZM40.3244 25.7887C41.5656 25.8012 42.7518 26.303 43.6251 27.1852C44.4984 28.0673 44.9883 29.2584 44.9883 30.4998C44.9883 31.7411 44.4984 32.9322 43.6251 33.8144C42.7518 34.6965 41.5656 35.1983 40.3244 35.2108H20.6757C19.4345 35.1983 18.2483 34.6965 17.375 33.8144C16.5017 32.9322 16.0118 31.7411 16.0118 30.4998C16.0118 29.2584 16.5017 28.0673 17.375 27.1852C18.2483 26.303 19.4345 25.8012 20.6757 25.7887H40.3244ZM35.7017 24.1207V21.0231H38.0059V24.1207H35.7017ZM34.0337 24.1207H20.6757C18.9934 24.1353 17.385 24.8137 16.2006 26.0085C15.0161 27.2032 14.3516 28.8174 14.3516 30.4998C14.3516 32.1821 15.0161 33.7963 16.2006 34.991C17.385 36.1858 18.9934 36.8642 20.6757 36.8788H40.3244C42.0066 36.8642 43.6151 36.1858 44.7995 34.991C45.9839 33.7963 46.6485 32.1821 46.6485 30.4998C46.6485 28.8174 45.9839 27.2032 44.7995 26.0085C43.6151 24.8137 42.0066 24.1353 40.3244 24.1207H39.6739V21.0231H40.3244C42.8261 21.0408 45.2193 22.0471 46.9821 23.8224C48.7448 25.5977 49.7341 27.998 49.7341 30.4998C49.7341 33.0015 48.7448 35.4019 46.9821 37.1771C45.2193 38.9524 42.8261 39.9587 40.3244 39.9764H20.6757C18.174 39.9587 15.7807 38.9524 14.018 37.1771C12.2552 35.4019 11.266 33.0015 11.266 30.4998C11.266 27.998 12.2552 25.5977 14.018 23.8224C15.7807 22.0471 18.174 21.0408 20.6757 21.0231H34.0347L34.0337 24.1207ZM20.6752 19.3551C17.7321 19.3743 14.9161 20.557 12.8417 22.6449C10.7674 24.7329 9.6032 27.5566 9.6032 30.4998C9.6032 33.4429 10.7674 36.2666 12.8417 38.3546C14.9161 40.4425 17.7321 41.6252 20.6752 41.6444H40.3244C43.2675 41.6252 46.0835 40.4425 48.1578 38.3546C50.2322 36.2666 51.3964 33.4429 51.3964 30.4998C51.3964 27.5566 50.2322 24.7329 48.1578 22.6449C46.0835 20.557 43.2675 19.3743 40.3244 19.3551H39.6739V16.2574H40.3244C44.0874 16.2792 47.6889 17.7893 50.3421 20.4579C52.9953 23.1265 54.4845 26.7367 54.4845 30.4998C54.4845 34.2628 52.9953 37.873 50.3421 40.5416C47.6889 43.2102 44.0874 44.7203 40.3244 44.7421H20.6757C16.9127 44.7203 13.3112 43.2102 10.658 40.5416C8.0048 37.873 6.51553 34.2628 6.51553 30.4998C6.51553 26.7367 8.0048 23.1265 10.658 20.4579C13.3112 17.7893 16.9127 16.2792 20.6757 16.2574H34.0347V19.3551H20.6752ZM38.0054 19.3551H35.7027V16.2574H38.0059L38.0054 19.3551ZM40.3239 49.5077H20.6757C15.651 49.4825 10.8406 47.4688 7.29645 43.9069C3.7523 40.3449 1.7627 35.5245 1.7627 30.4998C1.7627 25.475 3.7523 20.6546 7.29645 17.0926C10.8406 13.5307 15.651 11.517 20.6757 11.4918H34.0347V14.5895H20.6757C16.4711 14.6125 12.4466 16.2989 9.48159 19.2801C6.5166 22.2614 4.85225 26.2951 4.85225 30.4998C4.85225 34.7044 6.5166 38.7381 9.48159 41.7194C12.4466 44.7006 16.4711 46.387 20.6757 46.41H40.3244C44.5289 46.387 48.5535 44.7006 51.5185 41.7194C54.4835 38.7381 56.1478 34.7044 56.1478 30.4998C56.1478 26.2951 54.4835 22.2614 51.5185 19.2801C48.5535 16.2989 44.5289 14.6125 40.3244 14.5895H39.6739V11.4918H40.3244C45.3491 11.517 50.1595 13.5307 53.7036 17.0926C57.2478 20.6546 59.2374 25.475 59.2374 30.4998C59.2374 35.5245 57.2478 40.3449 53.7036 43.9069C50.1595 47.4688 45.3491 49.4825 40.3244 49.5077H40.3239Z" fill="#001E62"/>
</svg>
