<svg width="54" height="54" viewBox="0 0 54 54" fill="none" xmlns="http://www.w3.org/2000/svg">
<g clip-path="url(#clip0_1_9442)">
<path d="M44.7348 17.6271C48.6669 17.6293 52.1246 15.0265 53.2105 11.2474C54.2963 7.46874 52.7479 3.42751 49.4145 1.34205C46.0815 -0.743402 41.7699 -0.368961 38.8465 2.26035C35.9227 4.88966 35.0944 9.13729 36.8159 12.6721L24.6972 18.4874C21.1414 14.0749 15.2165 12.3388 9.84147 14.1343C4.46641 15.9297 0.774966 20.8783 0.585005 26.542C0.395045 32.2061 3.74675 37.3907 8.98939 39.5424C14.232 41.6941 20.2596 40.3588 24.1036 36.1948L36.5579 41.9064C34.7985 46.2997 36.8218 51.298 41.1411 53.231C45.4609 55.1639 50.5359 53.3419 52.6392 49.1025C54.7425 44.8636 53.1242 39.7196 48.972 37.4492C44.8198 35.1788 39.616 36.5911 37.1816 40.6493L25.0319 35.0774C28.4069 30.5421 28.6074 24.3866 25.5342 19.6413L37.5346 13.8831C39.1817 16.2293 41.8685 17.6257 44.7348 17.6271ZM44.7348 52.5825C43.2019 52.5835 41.7069 52.1063 40.458 51.2167C40.4904 48.8778 42.3955 46.9988 44.7348 46.9988C47.0742 46.9988 48.9793 48.8778 49.0117 51.2167C47.7633 52.1063 46.2678 52.5835 44.7348 52.5825ZM44.7348 37.7711C47.6464 37.7688 50.2885 39.4734 51.4862 42.1269C52.6835 44.7805 52.2141 47.8897 50.2862 50.071C49.719 47.4595 47.4075 45.596 44.7348 45.596C42.0622 45.596 39.7511 47.4595 39.184 50.071C37.2556 47.8897 36.7857 44.7805 37.9835 42.1269C39.1812 39.473 41.8233 37.7684 44.7348 37.7711ZM26.3059 26.9977C26.3059 33.7121 20.8628 39.1552 14.1485 39.1552C7.43409 39.1552 1.99099 33.7121 1.99099 26.9977C1.99099 20.2833 7.43409 14.8402 14.1485 14.8402C20.8596 14.8475 26.2982 20.2865 26.3059 26.9977ZM44.7348 16.2243C43.2129 16.2252 41.7279 15.7549 40.484 14.8772C40.7283 12.7137 42.5581 11.0789 44.7348 11.0789C46.9121 11.0789 48.7418 12.7137 48.9857 14.8772C47.7423 15.7549 46.2568 16.2252 44.7348 16.2243ZM44.7348 1.41329C47.6692 1.41146 50.3277 3.14394 51.5113 5.82896C52.6949 8.51398 52.1808 11.6451 50.1999 13.81C49.5081 11.3652 47.276 9.67703 44.7348 9.67703C42.1941 9.67703 39.9621 11.3652 39.2698 13.81C37.2894 11.6451 36.7748 8.51398 37.9584 5.82896C39.142 3.14348 41.8005 1.41146 44.7348 1.41329Z" fill="#001E62"/>
<path d="M44.7348 8.83772C46.4974 8.83772 47.9263 7.40891 47.9263 5.64675C47.9263 3.88414 46.4974 2.45532 44.7348 2.45532C42.9722 2.45532 41.5434 3.88414 41.5434 5.64675C41.5457 7.40845 42.9731 8.8359 44.7348 8.83772ZM44.7348 3.85811C45.7225 3.85811 46.5235 4.65859 46.5235 5.64675C46.5235 6.63445 45.7225 7.43494 44.7348 7.43494C43.7471 7.43494 42.9462 6.63445 42.9462 5.64675C42.9476 4.65905 43.7476 3.85902 44.7348 3.85811Z" fill="#001E62"/>
<path d="M44.7348 44.7576C46.4974 44.7576 47.9263 43.3288 47.9263 41.5662C47.9263 39.8036 46.4974 38.3748 44.7348 38.3748C42.9722 38.3748 41.5434 39.8036 41.5434 41.5662C41.5457 43.3279 42.9731 44.7558 44.7348 44.7576ZM44.7348 39.7775C45.7225 39.7775 46.5235 40.5785 46.5235 41.5662C46.5235 42.5539 45.7225 43.3548 44.7348 43.3548C43.7471 43.3548 42.9462 42.5539 42.9462 41.5662C42.9476 40.5789 43.7476 39.7789 44.7348 39.7775Z" fill="#001E62"/>
</g>
<defs>
<clipPath id="clip0_1_9442">
<rect width="54" height="54" fill="white"/>
</clipPath>
</defs>
</svg>
