<svg width="50" height="50" viewBox="0 0 50 50" fill="none" xmlns="http://www.w3.org/2000/svg">
<path d="M8.24213 48.4509L42.3208 48.4509C42.3892 48.4509 42.4578 48.4477 42.5256 48.4427C43.8204 48.3233 44.7725 47.1814 44.6553 45.895L41.8137 14.6449C41.7035 13.4299 40.7007 12.5134 39.4803 12.5134L11.0826 12.5134C9.8643 12.5148 8.86172 13.4312 8.75103 14.6449L5.90991 45.895C5.90378 45.9616 5.90082 46.0339 5.90082 46.1057C5.90014 47.3974 6.94976 48.4499 8.24213 48.4509ZM39.4803 14.0758C39.8867 14.0758 40.2209 14.3811 40.2574 14.7861L43.0988 46.037C43.1383 46.4657 42.8204 46.8464 42.3915 46.8853L42.3208 46.8885L8.24304 46.8885C7.81255 46.8876 7.46321 46.5375 7.46321 46.1064L10.3073 14.787C10.3439 14.382 10.678 14.0767 11.0842 14.0758L39.4803 14.0758ZM31.5316 17.9843C31.5327 17.5533 31.8846 17.2017 32.3146 17.2008L32.311 15.6384C31.0236 15.6414 29.9728 16.6921 29.9692 17.9797L31.5316 17.9843Z" fill="#001E62"/>
<path d="M18.2504 20.3258C19.5428 20.3258 20.5942 19.2746 20.5942 17.982C20.5942 16.6896 19.543 15.6384 18.2504 15.6384C16.9581 15.6384 15.9068 16.6896 15.9068 17.982C15.9068 19.2746 16.9581 20.3258 18.2504 20.3258ZM18.2504 17.2008C18.6814 17.2008 19.0319 17.5511 19.0319 17.982C19.0319 18.4134 18.6814 18.7634 18.2504 18.7634C17.8193 18.7634 17.4692 18.4134 17.4692 17.982C17.4692 17.5511 17.8193 17.2008 18.2504 17.2008Z" fill="#001E62"/>
<path d="M32.313 20.3258C33.6052 20.3258 34.6566 19.2746 34.6566 17.982C34.6566 16.6896 33.6054 15.6384 32.313 15.6384L32.313 17.2008C32.7435 17.2008 33.0942 17.5508 33.0942 17.982C33.0942 18.413 32.7435 18.7634 32.313 18.7634C31.8823 18.7634 31.5316 18.413 31.5316 17.982L29.9692 17.982C29.9692 19.2746 31.0204 20.3258 32.313 20.3258Z" fill="#001E62"/>
<path d="M31.5316 17.9843C31.5327 17.5533 31.8845 17.2017 32.3146 17.2008L32.3109 15.6384C31.0236 15.6414 29.9728 16.6921 29.9692 17.9797L31.5316 17.9843Z" fill="#001E62"/>
<path d="M17.4692 16.4196L19.0318 16.4196L19.0318 9.38843C19.0318 5.94226 21.8355 3.13842 25.2816 3.13842C28.7278 3.13842 31.5316 5.94226 31.5316 9.38843L31.5316 16.4196L33.0942 16.4196L33.0942 9.38843C33.0942 5.08038 29.5897 1.57581 25.2816 1.5758C20.974 1.5758 17.4692 5.08038 17.4692 9.38843L17.4692 16.4196Z" fill="#001E62"/>
</svg>
