<svg width="48" height="47" viewBox="0 0 48 47" fill="none" xmlns="http://www.w3.org/2000/svg">
<g clip-path="url(#clip0_1_9439)">
<path d="M0.7562 26.5462L1.9739 34.5156H1.49595C1.38225 34.5156 1.27005 34.5411 1.16788 34.59C1.0657 34.639 0.97624 34.7102 0.906292 34.7982C0.836345 34.8862 0.787752 34.9887 0.764206 35.0979C0.740661 35.2071 0.742783 35.3202 0.770411 35.4285L2.26636 41.3035C2.30688 41.4623 2.40028 41.6032 2.53174 41.7039C2.66319 41.8047 2.82515 41.8594 2.9919 41.8594H44.8785C45.0452 41.8594 45.2072 41.8047 45.3386 41.7039C45.4701 41.6032 45.5635 41.4623 45.604 41.3035L47.1 35.4285C47.1276 35.3202 47.1297 35.2071 47.1062 35.0979C47.0826 34.9887 47.034 34.8862 46.9641 34.7982C46.8941 34.7102 46.8047 34.639 46.7025 34.59C46.6003 34.5411 46.4881 34.5156 46.3744 34.5156H45.8965L47.1142 26.5462C47.1293 26.4366 47.1188 26.3251 47.0835 26.2201H47.0887L43.3489 14.4701C43.3016 14.3204 43.2068 14.1894 43.0782 14.0964C42.9497 14.0034 42.7942 13.9532 42.6345 13.9531C36.6099 13.9473 30.643 15.1061 25.0743 17.3636L9.87326 23.5103C9.322 23.2995 8.77075 23.088 8.22772 22.8493V15.4219H11.9676C12.166 15.4219 12.3562 15.3445 12.4965 15.2068C12.6368 15.0691 12.7156 14.8823 12.7156 14.6875V5.875C12.7156 5.68023 12.6368 5.49344 12.4965 5.35572C12.3562 5.218 12.166 5.14062 11.9676 5.14062H2.9919C2.79352 5.14062 2.60327 5.218 2.463 5.35572C2.32272 5.49344 2.24392 5.68023 2.24392 5.875V14.6875C2.24392 14.8823 2.32272 15.0691 2.463 15.2068C2.60327 15.3445 2.79352 15.4219 2.9919 15.4219H6.73177V22.1194C5.8514 21.6736 4.983 21.2029 4.14153 20.6771C4.05005 20.6199 3.94701 20.583 3.83954 20.5688C3.73208 20.5547 3.62277 20.5636 3.51917 20.595C3.41558 20.6265 3.32019 20.6797 3.23961 20.7509C3.15902 20.8221 3.09517 20.9097 3.05248 21.0075L0.808558 26.1482C0.753802 26.2735 0.735672 26.4113 0.7562 26.5462ZM6.73177 9.54688H8.22772V11.0156H6.73177V9.54688ZM5.23582 11.0156H3.73987V9.54688H5.23582V11.0156ZM6.73177 8.07812V6.60938H8.22772V8.07812H6.73177ZM9.72367 9.54688H11.2196V11.0156H9.72367V9.54688ZM8.22772 12.4844V13.9531H6.73177V12.4844H8.22772ZM9.72367 13.9531V12.4844H11.2196V13.9531H9.72367ZM11.2196 8.07812H9.72367V6.60938H11.2196V8.07812ZM5.23582 6.60938V8.07812H3.73987V6.60938H5.23582ZM3.73987 12.4844H5.23582V13.9531H3.73987V12.4844ZM2.42867 27.5934C4.15001 28.2553 5.89204 28.835 7.65477 29.3324L7.90609 34.5156H3.48631L2.42867 27.5934ZM39.8932 35.9844H42.4244L41.3024 40.3906H39.6793L39.8932 35.9844ZM38.1811 40.3906H35.1892L35.6784 30.4112C36.6921 30.2095 37.6999 29.9801 38.7017 29.7231L38.1811 40.3906ZM33.6933 40.3906H29.919V35.25C29.919 35.0552 29.8402 34.8684 29.6999 34.7307C29.5596 34.593 29.3694 34.5156 29.171 34.5156H18.6994C18.501 34.5156 18.3107 34.593 18.1705 34.7307C18.0302 34.8684 17.9514 35.0552 17.9514 35.25V40.3906H14.1771L13.7066 30.6969C17.0816 31.2818 20.5021 31.5766 23.9292 31.5781H23.9412C27.3683 31.5766 30.7888 31.2818 34.1637 30.6969L33.6933 40.3906ZM24.6832 35.9844H28.423V40.3906H24.6832V35.9844ZM23.1872 40.3906H19.4473V35.9844H23.1872V40.3906ZM12.192 30.4112L12.6789 40.3906H9.68702L9.16942 29.7231C10.1732 29.9782 11.1807 30.2075 12.192 30.4112ZM8.19107 40.3906H6.56796L5.446 35.9844H7.97715L8.19107 40.3906ZM2.4541 35.9844H3.90368L5.02564 40.3906H3.57606L2.4541 35.9844ZM44.2943 40.3906H42.8447L43.9667 35.9844H45.4163L44.2943 40.3906ZM39.9643 34.5156L40.2156 29.3324C41.9778 28.8345 43.7199 28.2548 45.4417 27.5934L44.3841 34.5156H39.9643ZM25.6443 18.7222C30.7902 16.6371 36.2897 15.5212 41.8559 15.4329C41.8162 15.9315 41.7357 16.4261 41.6151 16.9119C36.3262 17.0265 31.1045 18.1006 26.2135 20.08L14.3611 24.8703C13.5638 24.6897 12.7747 24.4775 11.9938 24.2388L25.6443 18.7222ZM41.1027 18.3976C40.5644 19.6152 39.7656 20.7049 38.7605 21.5926C37.7554 22.4804 36.5675 23.1454 35.2775 23.5426L34.5878 23.7556C30.4254 25.0472 26.0858 25.704 21.7204 25.7031C20.1567 25.7028 18.5949 25.5929 17.0471 25.3741L26.7835 21.4379C31.3347 19.5973 36.1836 18.5677 41.1027 18.3976ZM4.08469 22.3698C9.40935 25.5148 15.5065 27.175 21.7204 27.1719C26.2386 27.1728 30.7301 26.493 35.0381 25.156L35.7277 24.943C37.4094 24.4261 38.9383 23.5167 40.1836 22.2927C41.429 21.0687 42.3536 19.5666 42.8784 17.9151L45.4537 26.0079L45.2943 26.0703C38.5047 28.7442 31.2559 30.1153 23.9404 30.1094C23.9367 30.1086 23.9329 30.1086 23.9292 30.1094C16.614 30.1146 9.36561 28.7435 2.57602 26.0703L2.48552 26.0343L4.08469 22.3698Z" fill="#001E62"/>
</g>
<defs>
<clipPath id="clip0_1_9439">
<rect width="47.8704" height="47" fill="white"/>
</clipPath>
</defs>
</svg>
