<svg width="89" height="89" viewBox="0 0 89 89" fill="none" xmlns="http://www.w3.org/2000/svg">
<path d="M10.6799 34.7778V53.3321C10.6799 53.8615 11.2771 54.2899 12.0149 54.2899C12.7527 54.2899 13.3499 53.8615 13.3499 53.3321V34.7778C13.3499 34.2484 12.7527 33.8199 12.0149 33.8199C11.2769 33.8199 10.6799 34.2484 10.6799 34.7778Z" fill="#E20072"/>
<path d="M79.2099 53.3321V34.7778C79.2099 34.2484 78.8118 33.8199 78.3199 33.8199C77.8281 33.8199 77.4299 34.2484 77.4299 34.7778V53.3321C77.4299 53.8615 77.8281 54.2899 78.3199 54.2899C78.8118 54.2899 79.2099 53.8616 79.2099 53.3321Z" fill="#E20072"/>
<path d="M58.6821 12.46C59.206 12.46 59.63 11.8628 59.63 11.125C59.63 10.3872 59.206 9.79004 58.6821 9.79004H31.2079C30.684 9.79004 30.26 10.3872 30.26 11.125C30.26 11.8628 30.684 12.46 31.2079 12.46H58.6821Z" fill="#E20072"/>
<path d="M58.6821 78.32C59.206 78.32 59.63 77.9219 59.63 77.43C59.63 76.9382 59.206 76.54 58.6821 76.54H31.2079C30.684 76.54 30.26 76.9382 30.26 77.43C30.26 77.9219 30.684 78.32 31.2079 78.32H58.6821Z" fill="#E20072"/>
<path d="M22.7011 6.61826L12.0642 0.138877C11.7625 -0.0462923 11.3775 -0.0462923 11.0758 0.138877L0.437831 6.61826C0.170715 6.78113 0 7.10433 0 7.38651V20.2044C0 20.5148 0.164406 20.8041 0.436078 20.969C12.5143 28.3302 10.9871 27.4084 11.1195 27.4794C11.4144 27.6392 11.772 27.614 12.0205 27.4794C12.0509 27.463 22.6214 21.0272 22.7039 20.969C22.9756 20.8041 23.14 20.5148 23.14 20.2044V7.38651C23.1398 7.08391 22.9428 6.7648 22.7011 6.61826ZM10.6397 25.0557L1.86034 19.7052V9.02018L10.6397 14.3707V25.0557ZM11.5699 12.8032L2.68149 7.3831L11.5699 1.96997L20.4575 7.3831L11.5699 12.8032ZM21.2795 19.7052L12.5001 25.0557V14.3705L21.2795 9.02001V19.7052Z" fill="#E20072"/>
<path d="M88.5782 6.61826L78.3502 0.138877C78.0601 -0.0462923 77.6899 -0.0462923 77.3998 0.138877L67.171 6.61826C66.9141 6.78114 66.75 7.10433 66.75 7.38651V20.2044C66.75 20.5148 66.9081 20.8041 67.1693 20.969C78.783 28.3302 77.3145 27.4084 77.4418 27.4794C77.7248 27.6389 78.0686 27.6144 78.3082 27.4794C78.4103 27.4224 82.5608 24.7846 88.5807 20.969C88.8419 20.8041 89 20.5148 89 20.2044V7.38651C89 7.08391 88.8104 6.7648 88.5782 6.61826ZM76.9807 25.0557L68.539 19.7052V9.02018L76.9807 14.3707V25.0557ZM77.8751 12.8032L69.3285 7.38311L77.8751 1.96997L86.4208 7.38311L77.8751 12.8032ZM87.2112 19.7052L78.7695 25.0557V14.3705L87.2112 9.02001V19.7052Z" fill="#E20072"/>
<path d="M0 81.3761C0 81.6966 0.164406 81.9952 0.436078 82.1655C12.5143 89.7641 10.9871 88.8126 11.1195 88.8858C11.4144 89.0508 11.772 89.0248 12.0205 88.8858C12.1268 88.827 16.4432 86.1041 22.7039 82.1655C22.9756 81.9952 23.14 81.6966 23.14 81.3761V68.1448C23.14 67.8352 22.9426 67.5029 22.7013 67.3518L12.0644 60.6634C11.7627 60.4722 11.3776 60.4722 11.076 60.6634L0.437831 67.3518C0.174046 67.5178 0 67.8502 0 68.1448V81.3761ZM21.2795 80.8609L12.5001 86.3839V75.3543L21.2795 69.8312V80.8609ZM11.5699 62.5535L20.4575 68.1413L11.5699 73.7362L2.68149 68.1413L11.5699 62.5535ZM1.86034 69.8312L10.6397 75.3543V86.3839L1.86034 80.8609V69.8312Z" fill="#E20072"/>
<path d="M88.578 67.352L78.3502 60.6634C78.0601 60.4722 77.6899 60.4722 77.3998 60.6634L67.171 67.352C66.9142 67.5201 66.75 67.8537 66.75 68.145V81.3768C66.75 81.6972 66.9081 81.9959 67.1693 82.1661C77.6976 89.0515 77.4399 88.8856 77.4418 88.8867C77.7237 89.0508 78.0718 89.0242 78.3082 88.8867C78.3374 88.8698 88.5013 82.2262 88.5807 82.1661C88.8419 81.9959 89 81.6972 89 81.3768V68.145C88.9998 67.8327 88.8102 67.5032 88.578 67.352ZM76.9805 86.3847L68.5388 80.8615V69.8314L76.9805 75.3547V86.3847ZM77.8749 73.7366L69.3284 68.1415L77.8749 62.5536L86.4205 68.1415L77.8749 73.7366ZM87.211 80.8615L78.7693 86.3847V75.3547L87.211 69.8314V80.8615Z" fill="#E20072"/>
</svg>
