<svg width="53" height="57" viewBox="0 0 53 57" fill="none" xmlns="http://www.w3.org/2000/svg">
<path d="M11.0531 35C11.6352 35 12.1064 34.5153 12.1064 33.9166V26.7167L17.0651 34.51C17.6361 35.4046 19 34.9957 19 33.9166V23.0834C19 22.4846 18.5288 22 17.9467 22C17.3646 22 16.8934 22.4846 16.8934 23.0834V30.2833L11.9347 22.49C11.3633 21.5942 10 22.0088 10 23.0834V33.9166C9.9998 34.5153 10.4708 35 11.0531 35Z" fill="#E20072"/>
<path d="M34.0977 24.1668H36.9025V33.9166C36.9025 34.5153 37.3936 35 38.0004 35C38.6072 35 39.0983 34.5153 39.0983 33.9166V24.1668H41.9021C42.5089 24.1668 43 23.6822 43 23.0834C43 22.4846 42.5089 22 41.9021 22H34.0979C33.4911 22 33 22.4846 33 23.0834C32.9998 23.6824 33.4909 24.1668 34.0977 24.1668Z" fill="#E20072"/>
<path d="M24.1419 35C24.773 35 25.2838 34.5153 25.2838 33.9166V29.5829H29.8581C30.4892 29.5829 31 29.0983 31 28.4995C31 27.9007 30.4892 27.4161 29.8581 27.4161H25.2838V24.1668H29.8581C30.4892 24.1668 31 23.6822 31 23.0834C31 22.4846 30.4892 22 29.8581 22H24.1419C23.5108 22 23 22.4846 23 23.0834V33.9166C23 34.5153 23.5108 35 24.1419 35Z" fill="#E20072"/>
<path d="M0 19.8025V37.199C0 41.1544 2.15464 44.8407 5.62333 46.819L20.8767 55.5168C24.343 57.4937 28.6544 57.4951 32.1233 55.5168L47.3767 46.819C50.8454 44.8407 53 41.1544 53 37.199V19.8025C53 15.847 50.8454 12.1608 47.3767 10.1825L32.1233 1.48373C28.6546 -0.494577 24.3454 -0.494577 20.8767 1.48373L5.62333 10.1825C2.15464 12.1608 0 15.847 0 19.8025ZM21.9263 3.27978C24.7449 1.67146 28.2527 1.6699 31.0737 3.27978L46.327 11.9785C49.148 13.5872 50.9007 16.5851 50.9007 19.8025V37.199C50.9007 40.4164 49.148 43.4143 46.327 45.023L31.0737 53.7207C28.2527 55.3304 24.7473 55.3304 21.9263 53.7207L6.67296 45.023C3.852 43.4143 2.09926 40.4164 2.09926 37.199V19.8025C2.09926 16.5851 3.852 13.5872 6.67296 11.9785L21.9263 3.27978Z" fill="#E20072"/>
</svg>
